<?xml version="1.0" encoding="UTF-8" standalone="no"?>
<svg
   xmlns:dc="http://purl.org/dc/elements/1.1/"
   xmlns:cc="http://creativecommons.org/ns#"
   xmlns:rdf="http://www.w3.org/1999/02/22-rdf-syntax-ns#"
   xmlns:svg="http://www.w3.org/2000/svg"
   xmlns="http://www.w3.org/2000/svg"
   xmlns:sodipodi="http://sodipodi.sourceforge.net/DTD/sodipodi-0.dtd"
   xmlns:inkscape="http://www.inkscape.org/namespaces/inkscape"
   xml:space="preserve"
   width="223"
   height="223"
   version="1.1"
   style="clip-rule:evenodd;fill-rule:evenodd;image-rendering:optimizeQuality;shape-rendering:geometricPrecision;text-rendering:geometricPrecision"
   viewBox="0 0 5900.2555 5900.1267"
   id="svg7086"
   sodipodi:docname="card_yellow.svg"
   inkscape:version="1.0 (4035a4fb49, 2020-05-01)"><metadata
   id="metadata7090"><rdf:RDF><cc:Work
       rdf:about=""><dc:format>image/svg+xml</dc:format><dc:type
         rdf:resource="http://purl.org/dc/dcmitype/StillImage" /><dc:title></dc:title></cc:Work></rdf:RDF></metadata><sodipodi:namedview
   inkscape:pagecheckerboard="false"
   inkscape:document-rotation="0"
   pagecolor="#000000"
   bordercolor="#666666"
   borderopacity="1"
   objecttolerance="10"
   gridtolerance="10"
   guidetolerance="10"
   inkscape:pageopacity="0"
   inkscape:pageshadow="2"
   inkscape:window-width="1920"
   inkscape:window-height="1001"
   id="namedview7088"
   showgrid="false"
   fit-margin-top="0"
   fit-margin-left="0"
   fit-margin-right="0"
   fit-margin-bottom="0"
   units="px"
   inkscape:zoom="1.8035665"
   inkscape:cx="43.541695"
   inkscape:cy="125.7229"
   inkscape:window-x="-9"
   inkscape:window-y="-9"
   inkscape:window-maximized="1"
   inkscape:current-layer="Layer_x0020_1" />
 <defs
   id="defs6671">
  <style
   type="text/css"
   id="style6669">
   <![CDATA[
    .str0 {stroke:#FEFEFE;stroke-width:50}
    .fil2 {fill:#FEFEFE}
    .fil3 {fill:#FFF212}
    .fil4 {fill:#ED3237}
    .fil1 {fill:#00AFEF}
    .fil0 {fill:#2F3686}
   ]]>
  </style>
 
   
   
   
   
   
   
   
   
   
   
   
   
   
   
   
   
   
   
   
   
   
   
   
   
   
   
   
   
   
   
   
   
   
   
   
   
   
   
   
   
   
   
   
   
   
   
   
   
   
   
   
   
   
   
   
   
   
   
   
   
   
   
   
   
   
   
   
   
   
   
   
   
   
   
   
   
   
   
   
   
   
   
   
   
   
   
   
   
   
   
   
   
   
   
   
   
   
   
   
   
   
   
   
   
   
   
   
   
   
   
   
   
   
   
   
   
   
   
   
   
   
   
   
   
   
   
   
   
   
   
   
   
   
   
   
   
   
   
   
   
   
   
   
   
   
   
   
   
   
   
   
   
   
   
   
   
   
   
   
   
   
   
   
   
   
   
   
   
   
   
   
   
   
   
   
   
   
   
   
   
   
   
   
   
   
   
   
   
   
   
   
   
   
   
   
   
   
   
   
   
   
   
   
   
   
  </defs>
 <g
   id="Layer_x0020_1"
   transform="translate(-4412.3825,-378.53151)"
   style="mix-blend-mode:darken">
  <metadata
   id="CorelCorpID_0Corel-Layer" />
  <path
   id="path6858"
   d="m 8109.8308,4367 c -29,-41 -288,-361 -384,-258 -70,75 91,129 143,152 71,32 170,85 241,106 z"
   class="fil2"
   style="fill:#f2ec3d;fill-opacity:1" /><path
   id="path6900"
   d="m 7639.8308,4453 78,-4 c -30,-21 -249,-116 -279,-113 -102,9 -32,134 201,117 z"
   class="fil2"
   style="fill:#f2ec3d;fill-opacity:1" /><path
   id="path6902"
   d="m 7704.8308,3767 c -17,77 43,89 96,121 52,31 107,68 159,91 -20,-52 -178,-271 -255,-212 z"
   class="fil2"
   style="fill:#f2ec3d;fill-opacity:1" /><path
   id="path6944"
   d="m 6686.8308,4209 c -2,-8 -12,-29 -46,-90 l -220,-394 c -96,-173 -194,-364 -297,-531 2,25 109,232 129,273 l 328,676 c 36,75 48,95 56,100 29,21 55,-9 50,-34 z"
   class="fil3"
   style="fill:#f2ec3d;fill-opacity:1" /><path
   id="path6950"
   d="m 6231.8308,2782 c 29,-3 901,-251 997,-279 26,-8 92,-18 120,-39 30,-22 5,-68 -25,-60 l -945,325 c -40,14 -113,35 -147,53 z"
   class="fil3"
   style="fill:#f2ec3d;fill-opacity:1" /><path
   id="path6956"
   d="m 6186.8308,3095 c 25,32 609,596 667,653 l 169,165 c 21,18 53,18 62,-11 10,-33 -74,-91 -98,-112 -38,-33 -76,-66 -114,-99 -77,-67 -151,-132 -228,-199 -152,-131 -312,-267 -458,-397 z"
   class="fil3"
   style="fill:#f2ec3d;fill-opacity:1" /><path
   id="path6962"
   d="m 6287.8308,2893 c 18,7 129,14 147,14 130,6 295,24 433,33 l 508,40 c 20,1 57,11 68,-21 19,-57 -76,-48 -122,-49 -49,-1 -98,-1 -147,-2 l -587,-12 c -29,0 -275,-8 -300,-3 z"
   class="fil3"
   style="fill:#f2ec3d;fill-opacity:1" /><path
   id="path6972"
   d="m 6252.8308,3007 960,438 c 54,23 118,69 133,16 12,-42 -55,-55 -113,-78 z"
   class="fil3"
   style="fill:#f2ec3d;fill-opacity:1" /><path
   id="path6988"
   d="m 6121.8308,3094 c 26,45 448,602 526,707 25,35 45,73 79,85 55,-29 5,-66 -24,-100 z"
   class="fil3"
   style="fill:#f2ec3d;fill-opacity:1" /><path
   id="path6996"
   d="m 6042.8308,3132 c 7,29 27,89 37,123 l 222,732 c 8,27 22,104 51,107 57,6 19,-71 7,-101 l -274,-746 z"
   class="fil3"
   style="fill:#f2ec3d;fill-opacity:1" /><path
   id="path7004"
   d="m 6198.8308,3036 c 22,21 73,51 100,68 33,22 66,44 99,66 75,49 495,333 586,384 32,18 56,-21 26,-47 -17,-15 -42,-27 -55,-34 -201,-112 -440,-254 -644,-374 -17,-10 -35,-21 -53,-31 -11,-6 -18,-11 -27,-16 l -21,-12 c -13,-5 -3,-1 -11,-4 z"
   class="fil3"
   style="fill:#f2ec3d;fill-opacity:1" /><path
   id="path7006"
   d="m 6240.8308,2941 c 11,7 2,3 14,7 l 307,72 c 12,4 17,7 28,9 21,5 38,8 59,13 22,4 35,9 57,15 l 233,54 c 42,15 76,16 116,28 23,6 101,40 113,0 13,-43 -56,-42 -96,-50 -41,-9 -78,-13 -118,-21 z"
   class="fil3"
   style="fill:#f2ec3d;fill-opacity:1" /><path
   id="path7010"
   d="m 6921.8308,429 2619,955 c 220,80 335,326 255,546 l -1275,3497 h -2878 l -479,-174 c -220,-80 -334,-326 -254,-547 l 1466,-4022 c 80,-221 326,-335 546,-255 z"
   class="fil0 str0" /><path
   style="clip-rule:evenodd;mix-blend-mode:darken;fill:#2f3686;fill-rule:evenodd;stroke:#fefefe;stroke-width:50;image-rendering:optimizeQuality;shape-rendering:geometricPrecision;text-rendering:geometricPrecision"
   class="fil0 str0"
   d="M 7807.3661,6216.7447 5189.9537,5257.4025 c -219.8669,-80.3646 -334.4587,-326.5549 -254.0941,-546.422 l 1280.7978,-3494.8804 2877.9959,4.773 478.7108,174.7942 c 219.867,80.3647 333.4587,326.5534 253.0925,547.4205 L 8353.7883,5962.6507 c -80.3665,220.867 -326.5552,334.4588 -546.4222,254.094 z"
   id="path7010-1" /><path
   id="path7012"
   d="m 7564.8308,3902 c 9,-160 200,-394 335,-504 201,-162 358,-95 431,-210 118,-183 -176,-264 -475,100 -95,115 -226,292 -257,483 -19,-26 -7,3 -14,-34 -10,-48 14,-236 26,-280 116,-441 533,-673 956,-780 89,-23 204,-18 272,-76 156,-133 -50,-385 -616,-82 -154,83 -273,197 -370,325 -150,198 -263,491 -277,759 -4,58 0,112 4,170 3,63 -10,67 -15,129 z"
   class="fil4"
   style="fill:#f2ec3d;fill-opacity:1" /><path
   id="path7014"
   d="m 7294.8308,3850 c -35,-247 -265,-585 -478,-737 -283,-201 -764,-225 -952,-40 -62,61 -71,172 9,209 108,50 387,-143 812,-53 353,75 515,315 609,621 z"
   class="fil4"
   style="fill:#f2ec3d;fill-opacity:1" /><path
   id="path7016"
   d="m 7403.8308,3823 c -3,-404 -47,-1092 -251,-1447 -43,-75 -200,-296 -331,-190 -188,153 189,329 376,693 164,320 202,546 206,944 z"
   class="fil4"
   style="fill:#f2ec3d;fill-opacity:1" /><path
   id="path7018"
   d="m 7283.8308,3959 c -112,-59 -145,-102 -298,-146 -471,-136 -939,186 -951,339 -6,78 47,112 124,84 90,-32 120,-177 385,-297 299,-135 473,-77 740,20 z"
   class="fil4"
   style="fill:#f2ec3d;fill-opacity:1" /><path
   id="path7020"
   d="m 7221.8308,3489 c -51,-190 -242,-590 -371,-730 -173,-186 -518,-123 29,331 62,52 135,123 184,177 101,111 81,106 146,204 1,3 4,7 6,9 1,2 3,6 6,9 z"
   class="fil4"
   style="fill:#f2ec3d;fill-opacity:1" /><path
   id="path7022"
   d="m 7548.8308,4016 c 136,57 234,17 518,198 80,50 141,103 204,157 28,24 155,176 219,71 88,-144 -234,-298 -345,-346 -109,-48 -479,-139 -596,-80 z"
   class="fil4"
   style="fill:#f2ec3d;fill-opacity:1" /><path
   id="path7024"
   d="m 7520.8308,3372 c 67,-211 62,-313 204,-549 141,-234 348,-379 245,-477 -159,-151 -497,598 -449,1026 z"
   class="fil4"
   style="fill:#f2ec3d;fill-opacity:1" /><path
   id="path7026"
   d="m 7755.8308,3818 c 146,-58 263,-60 388,25 104,70 133,213 311,185 63,-84 60,-134 -9,-207 -36,-38 -129,-96 -200,-120 -91,-30 -198,-33 -289,-5 -72,21 -157,63 -201,122 z"
   class="fil4"
   style="fill:#f2ec3d;fill-opacity:1" /><path
   id="path7028"
   d="m 7796.8308,3682 c 167,-103 266,-177 534,-171 312,8 518,172 508,-60 -128,-116 -424,-82 -599,-34 -157,44 -382,179 -443,265 z"
   class="fil4"
   style="fill:#f2ec3d;fill-opacity:1" /><path
   id="path7030"
   d="m 7326.8308,4020 c -153,-38 -321,13 -431,84 -343,219 -217,490 -47,246 227,-325 206,-217 478,-330 z"
   class="fil4"
   style="fill:#f2ec3d;fill-opacity:1" /><path
   id="path7032"
   d="m 7139.8308,3713 c -44,-80 -187,-173 -307,-216 -110,-38 -374,-76 -410,43 -28,92 58,130 139,110 69,-17 105,-49 195,-59 171,-19 281,54 383,122 z"
   class="fil4"
   style="fill:#f2ec3d;fill-opacity:1" /><path
   id="path7034"
   d="m 8146.8308,3966 c 0,-60 -13,-67 -74,-79 -107,-22 -273,-10 -367,34 93,2 145,-3 237,14 84,16 127,55 204,31 z"
   class="fil4"
   style="fill:#f2ec3d;fill-opacity:1" /><path
   id="path7036"
   d="m 6739.8308,3347 c -62,63 141,93 359,258 -42,-93 -305,-312 -359,-258 z"
   class="fil4"
   style="fill:#f2ec3d;fill-opacity:1" /><path
   id="path7038"
   d="m 7454.8308,3314 c 14,-163 -7,-210 45,-397 6,-19 15,-44 14,-64 0,-44 -5,-36 -24,-57 -53,14 -46,26 -57,94 -7,49 -11,101 -12,151 -1,76 36,252 34,273 z"
   class="fil4"
   style="fill:#f2ec3d;fill-opacity:1" /><path
   id="path7040"
   d="m 7763.8308,3637 c 135,-166 338,-205 361,-244 84,-144 -219,-20 -361,244 z"
   class="fil4"
   style="fill:#f2ec3d;fill-opacity:1" /><path
   id="path7042"
   d="m 7218.8308,3873 c -27,-56 -242,-260 -367,-227 0,67 7,65 68,84 227,71 219,107 299,143 z"
   class="fil4"
   style="fill:#f2ec3d;fill-opacity:1" /><path
   id="path7044"
   d="m 7108.8308,2997 c -22,73 81,172 138,314 17,40 24,86 41,119 5,-112 -73,-377 -125,-424 -27,-25 -38,-14 -54,-9 z"
   class="fil4"
   style="fill:#f2ec3d;fill-opacity:1" /><path
   id="path7046"
   d="m 7711.8308,3378 c 3,-2 7,-10 8,-8 1,3 7,-6 8,-7 18,-23 5,-5 19,-25 131,-194 267,-259 213,-311 -61,-57 -230,255 -248,351 z"
   class="fil4"
   style="fill:#f2ec3d;fill-opacity:1" /><path
   id="path7050"
   d="m 7294.8308,3850 c -35,-247 -265,-585 -478,-737 -283,-201 -764,-225 -952,-40 -62,61 -71,172 9,209 108,50 387,-143 812,-53 353,75 515,315 609,621 z"
   class="fil4"
   style="fill:#f2ec3d;fill-opacity:1" /><path
   id="path7052"
   d="m 7403.8308,3823 c -3,-404 -47,-1092 -251,-1447 -43,-75 -200,-296 -331,-190 -188,153 189,329 376,693 164,320 202,546 206,944 z"
   class="fil4"
   style="fill:#f2ec3d;fill-opacity:1" /><path
   id="path7054"
   d="m 7283.8308,3959 c -112,-59 -145,-102 -298,-146 -471,-136 -939,186 -951,339 -6,78 47,112 124,84 90,-32 120,-177 385,-297 299,-135 473,-77 740,20 z"
   class="fil4"
   style="fill:#f2ec3d;fill-opacity:1" /><path
   id="path7056"
   d="m 7221.8308,3489 c -51,-190 -242,-590 -371,-730 -173,-186 -518,-123 29,331 62,52 135,123 184,177 101,111 81,106 146,204 1,3 4,7 6,9 1,2 3,6 6,9 z"
   class="fil4"
   style="fill:#f2ec3d;fill-opacity:1" /><path
   id="path7058"
   d="m 7548.8308,4016 c 136,57 234,17 518,198 80,50 141,103 204,157 28,24 155,176 219,71 88,-144 -234,-298 -345,-346 -109,-48 -479,-139 -596,-80 z"
   class="fil4"
   style="fill:#f2ec3d;fill-opacity:1" /><path
   id="path7060"
   d="m 7520.8308,3372 c 67,-211 62,-313 204,-549 141,-234 348,-379 245,-477 -159,-151 -497,598 -449,1026 z"
   class="fil4"
   style="fill:#f2ec3d;fill-opacity:1" /><path
   id="path7062"
   d="m 7755.8308,3818 c 146,-58 263,-60 388,25 104,70 133,213 311,185 63,-84 60,-134 -9,-207 -36,-38 -129,-96 -200,-120 -91,-30 -198,-33 -289,-5 -72,21 -157,63 -201,122 z"
   class="fil4"
   style="fill:#f2ec3d;fill-opacity:1" /><path
   id="path7064"
   d="m 7796.8308,3682 c 167,-103 266,-177 534,-171 312,8 518,172 508,-60 -128,-116 -424,-82 -599,-34 -157,44 -382,179 -443,265 z"
   class="fil4"
   style="fill:#f2ec3d;fill-opacity:1" /><path
   id="path7066"
   d="m 7326.8308,4020 c -153,-38 -321,13 -431,84 -343,219 -217,490 -47,246 227,-325 206,-217 478,-330 z"
   class="fil4"
   style="fill:#f2ec3d;fill-opacity:1" /><path
   id="path7068"
   d="m 7139.8308,3713 c -44,-80 -187,-173 -307,-216 -110,-38 -374,-76 -410,43 -28,92 58,130 139,110 69,-17 105,-49 195,-59 171,-19 281,54 383,122 z"
   class="fil4"
   style="fill:#f2ec3d;fill-opacity:1" /><path
   id="path7070"
   d="m 8146.8308,3966 c 0,-60 -13,-67 -74,-79 -107,-22 -273,-10 -367,34 93,2 145,-3 237,14 84,16 127,55 204,31 z"
   class="fil4"
   style="fill:#f2ec3d;fill-opacity:1" /><path
   id="path7072"
   d="m 6739.8308,3347 c -62,63 141,93 359,258 -42,-93 -305,-312 -359,-258 z"
   class="fil4"
   style="fill:#f2ec3d;fill-opacity:1" /><path
   id="path7074"
   d="m 7454.8308,3314 c 14,-163 -7,-210 45,-397 6,-19 15,-44 14,-64 0,-44 -5,-36 -24,-57 -53,14 -46,26 -57,94 -7,49 -11,101 -12,151 -1,76 36,252 34,273 z"
   class="fil4"
   style="fill:#f2ec3d;fill-opacity:1" /><path
   id="path7076"
   d="m 7763.8308,3637 c 135,-166 338,-205 361,-244 84,-144 -219,-20 -361,244 z"
   class="fil4"
   style="fill:#f2ec3d;fill-opacity:1" /><path
   id="path7078"
   d="m 7218.8308,3873 c -27,-56 -242,-260 -367,-227 0,67 7,65 68,84 227,71 219,107 299,143 z"
   class="fil4"
   style="fill:#f2ec3d;fill-opacity:1" /><path
   id="path7080"
   d="m 7108.8308,2997 c -22,73 81,172 138,314 17,40 24,86 41,119 5,-112 -73,-377 -125,-424 -27,-25 -38,-14 -54,-9 z"
   class="fil4"
   style="fill:#f2ec3d;fill-opacity:1" /><path
   id="path7082"
   d="m 7711.8308,3378 c 3,-2 7,-10 8,-8 1,3 7,-6 8,-7 18,-23 5,-5 19,-25 131,-194 267,-259 213,-311 -61,-57 -230,255 -248,351 z"
   class="fil4"
   style="fill:#f2ec3d;fill-opacity:1" />
 </g>
</svg>
