<?xml version="1.0" encoding="UTF-8" standalone="no"?>
<!-- Created with Inkscape (http://www.inkscape.org/) -->

<svg
   xmlns:dc="http://purl.org/dc/elements/1.1/"
   xmlns:cc="http://creativecommons.org/ns#"
   xmlns:rdf="http://www.w3.org/1999/02/22-rdf-syntax-ns#"
   xmlns:svg="http://www.w3.org/2000/svg"
   xmlns="http://www.w3.org/2000/svg"
   xmlns:sodipodi="http://sodipodi.sourceforge.net/DTD/sodipodi-0.dtd"
   xmlns:inkscape="http://www.inkscape.org/namespaces/inkscape"
   width="42.333336mm"
   height="38.606949mm"
   viewBox="0 0 42.333336 38.606949"
   version="1.1"
   id="svg822"
   inkscape:version="0.91 r13725"
   sodipodi:docname="blue.svg">
  <defs
     id="defs816" />
  <sodipodi:namedview
     id="base"
     pagecolor="#ffffff"
     bordercolor="#666666"
     borderopacity="1.0"
     inkscape:pageopacity="0.0"
     inkscape:pageshadow="2"
     inkscape:zoom="3.959798"
     inkscape:cx="49.742373"
     inkscape:cy="68.358441"
     inkscape:document-units="mm"
     inkscape:current-layer="layer1"
     showgrid="false"
     inkscape:window-width="1368"
     inkscape:window-height="849"
     inkscape:window-x="-8"
     inkscape:window-y="-8"
     inkscape:window-maximized="1"
     fit-margin-top="0"
     fit-margin-left="0"
     fit-margin-right="0"
     fit-margin-bottom="0" />
  <metadata
     id="metadata819">
    <rdf:RDF>
      <cc:Work
         rdf:about="">
        <dc:format>image/svg+xml</dc:format>
        <dc:type
           rdf:resource="http://purl.org/dc/dcmitype/StillImage" />
        <dc:title></dc:title>
      </cc:Work>
    </rdf:RDF>
  </metadata>
  <g
     inkscape:label="Livello 1"
     inkscape:groupmode="layer"
     id="layer1"
     transform="translate(-99.694341,-76.779331)">
    <path
       d="m 136.46449,82.319858 c 0.21122,-0.185173 0.4406,-0.345015 0.64308,-0.53611 0.19588,-0.186957 1.7864,-1.495014 2.55842,-2.44721 0.49173,-0.602687 0.004,-1.025623 -0.42914,-0.985592 C 107.074,81.278678 100.778,77.093981 100.778,77.093981 c -3.018955,9.1392 3.79763,14.316089 3.79763,14.316089 0.0143,0.0071 0.0974,0.02141 0.13986,0.02854 -2.03559,9.9935 -0.77862,19.78673 -0.49576,20.08257 0,0 5.88661,6.20922 14.64758,2.21141 0,0 -3.21694,-3.84878 -4.73201,-22.741107 4.38275,-0.569755 9.65758,-1.719755 14.53412,-3.853277 -3.51504,11.277146 -1.92437,24.044814 -1.59955,24.382974 0,0 5.88886,6.20922 14.64316,2.21141 0,0 -4.15801,-4.99232 -5.24814,-31.410917 z"
       style="fill:#0000ff;fill-opacity:1;stroke:#000000;stroke-width:0.62933469;stroke-linecap:butt;stroke-linejoin:round;stroke-miterlimit:10;stroke-dasharray:none;stroke-opacity:1"
       id="path1790"
       inkscape:connector-curvature="0" />
  </g>
</svg>
