<?xml version="1.0" encoding="UTF-8" standalone="no"?>
<!-- Created with Inkscape (http://www.inkscape.org/) -->

<svg
   xmlns:dc="http://purl.org/dc/elements/1.1/"
   xmlns:cc="http://creativecommons.org/ns#"
   xmlns:rdf="http://www.w3.org/1999/02/22-rdf-syntax-ns#"
   xmlns:svg="http://www.w3.org/2000/svg"
   xmlns="http://www.w3.org/2000/svg"
   xmlns:sodipodi="http://sodipodi.sourceforge.net/DTD/sodipodi-0.dtd"
   xmlns:inkscape="http://www.inkscape.org/namespaces/inkscape"
   width="9.2609348mm"
   height="11.832765mm"
   viewBox="0 0 9.2609348 11.832765"
   version="1.1"
   id="svg4642"
   inkscape:version="0.92.3 (2405546, 2018-03-11)"
   sodipodi:docname="K4.svg">
  <defs
     id="defs4636" />
  <sodipodi:namedview
     id="base"
     pagecolor="#ffffff"
     bordercolor="#666666"
     borderopacity="1.0"
     inkscape:pageopacity="0.0"
     inkscape:pageshadow="2"
     inkscape:zoom="15.839192"
     inkscape:cx="2.6668255"
     inkscape:cy="19.887819"
     inkscape:document-units="mm"
     inkscape:current-layer="layer1"
     showgrid="false"
     inkscape:window-width="2160"
     inkscape:window-height="1346"
     inkscape:window-x="-11"
     inkscape:window-y="-11"
     inkscape:window-maximized="1" />
  <metadata
     id="metadata4639">
    <rdf:RDF>
      <cc:Work
         rdf:about="">
        <dc:format>image/svg+xml</dc:format>
        <dc:type
           rdf:resource="http://purl.org/dc/dcmitype/StillImage" />
        <dc:title></dc:title>
      </cc:Work>
    </rdf:RDF>
  </metadata>
  <g
     inkscape:label="Livello 1"
     inkscape:groupmode="layer"
     id="layer1"
     transform="translate(-86.004996,-130.16946)">
    <path
       d="m 93.916945,137.03876 c 0.22028,0.10095 0.344816,0.18524 0.403095,0.22618 0.267805,0.18732 0.374303,0 0.374303,0 0.237278,-0.486 0.64974,-1.33556 0.410033,-1.87013 -0.193222,-0.43154 -0.727791,-0.55018 -1.189513,-0.61852 0.06973,-1.04832 0.234156,-2.28502 0.53908,-3.74545 0,0 0.07909,-0.79405 -0.294516,-0.26712 -0.392689,0.55365 -1.371981,1.83856 -2.019639,3.84294 -0.247339,-0.006 -0.493636,-0.005 -0.736118,0.01 -0.928646,0.0562 -1.778199,0.0531 -2.669726,0.37465 -0.17102,0.0614 -0.336838,0.13286 -0.503001,0.20536 0.822147,-2.19655 1.553407,-2.93163 2.043228,-3.46759 0.234156,-0.25635 -0.09089,-0.47351 -0.09089,-0.47351 0,0 -0.649045,-0.59355 -1.413262,-0.91651 -0.764215,-0.32296 -0.887017,0.38055 -0.887017,0.38055 -0.286538,0.83775 -0.463802,3.36075 -0.505431,4.89473 -0.357998,0.19322 -0.709058,0.39858 -1.056997,0.60741 -0.595277,0.35696 0.160267,0.32124 0.160267,0.32124 0.308739,-0.0298 0.603602,-0.0534 0.889446,-0.0746 0.0018,0.0746 0.0041,0.14049 0.0073,0.19461 0.0569,0.89569 0.320187,0.13529 0.320187,0.13529 0.03746,-0.12523 0.07424,-0.24039 0.111354,-0.35903 1.668232,-0.10095 2.931981,-0.0548 3.880053,0.0565 -0.211261,1.33174 -0.242829,2.88099 0.06244,4.64877 0,0 0.428418,1.44483 1.658865,0.37501 1.230447,-1.07054 1.497905,-1.04382 1.497905,-1.04382 0,0 0.187671,-0.10685 0,-0.32088 -0.114825,-0.13147 -0.810702,-0.91165 -0.991436,-3.11584"
       style="fill:#656263;fill-opacity:1;fill-rule:nonzero;stroke:#000000;stroke-width:0.17638889;stroke-miterlimit:4;stroke-dasharray:none;stroke-opacity:1"
       id="path1271"
       inkscape:connector-curvature="0" />
  </g>
</svg>
