<?xml version="1.0" encoding="UTF-8" standalone="no"?>
<!-- Created with Inkscape (http://www.inkscape.org/) -->

<svg
   xmlns:dc="http://purl.org/dc/elements/1.1/"
   xmlns:cc="http://creativecommons.org/ns#"
   xmlns:rdf="http://www.w3.org/1999/02/22-rdf-syntax-ns#"
   xmlns:svg="http://www.w3.org/2000/svg"
   xmlns="http://www.w3.org/2000/svg"
   xmlns:sodipodi="http://sodipodi.sourceforge.net/DTD/sodipodi-0.dtd"
   xmlns:inkscape="http://www.inkscape.org/namespaces/inkscape"
   width="42.333424mm"
   height="42.333206mm"
   viewBox="0 0 42.333424 42.333206"
   version="1.1"
   id="svg1942"
   inkscape:version="0.91 r13725"
   sodipodi:docname="rainbow.svg">
  <defs
     id="defs1936" />
  <sodipodi:namedview
     id="base"
     pagecolor="#ffffff"
     bordercolor="#666666"
     borderopacity="1.0"
     inkscape:pageopacity="0.0"
     inkscape:pageshadow="2"
     inkscape:zoom="0.9899495"
     inkscape:cx="357.74991"
     inkscape:cy="119.28979"
     inkscape:document-units="mm"
     inkscape:current-layer="layer1"
     showgrid="false"
     inkscape:snap-page="true"
     inkscape:window-width="1368"
     inkscape:window-height="849"
     inkscape:window-x="-8"
     inkscape:window-y="-8"
     inkscape:window-maximized="1"
     fit-margin-top="0"
     fit-margin-left="0"
     fit-margin-right="0"
     fit-margin-bottom="0" />
  <metadata
     id="metadata1939">
    <rdf:RDF>
      <cc:Work
         rdf:about="">
        <dc:format>image/svg+xml</dc:format>
        <dc:type
           rdf:resource="http://purl.org/dc/dcmitype/StillImage" />
        <dc:title></dc:title>
      </cc:Work>
    </rdf:RDF>
  </metadata>
  <g
     inkscape:label="Livello 1"
     inkscape:groupmode="layer"
     id="layer1"
     transform="translate(-122.26724,-111.17504)">
    <path
       d="m 164.2612,132.36589 c -0.11332,-0.15665 -0.33858,-0.34857 -0.74901,-0.34857 -0.6806,0 -1.51535,0.54017 -1.53462,0.55336 -1.77426,1.00007 -4.96109,1.59489 -8.51817,1.59489 -3.5314,0 -6.58127,-0.61007 -7.58714,-1.51868 -0.18853,-0.1697 -0.36628,-0.31646 -0.53713,-0.43807 0.0312,0 0.0648,0.007 0.0984,0.007 5.43836,0 12.0817,-3.52534 15.4462,-8.19898 0.22075,-0.30518 0.29146,-0.7059 0.2114,-1.19184 -0.48792,-2.94795 -6.76744,-9.04212 -9.28651,-10.82438 -1.1322,-0.80185 -1.89844,-0.89552 -2.29858,-0.37288 -0.46015,0.61466 -0.15629,1.87162 -0.12233,1.99577 0.86899,4.58425 -2.46769,14.16242 -4.89905,15.6179 -0.23947,0.1436 -0.44324,0.28508 -0.62252,0.4269 1.74647,-5.22483 0.63354,-12.7505 -2.8123,-17.61805 -0.28661,-0.40315 -0.80044,-0.60544 -1.52814,-0.60544 -3.20823,0 -10.25819,3.94589 -12.49687,5.68238 -0.94606,0.72995 -1.327,1.34435 -1.16648,1.88037 0.25022,0.84542 1.77642,0.96085 1.93483,0.96746 4.54802,0.57312 12.46911,6.76085 13.07902,9.56282 0.0582,0.26142 0.12822,0.475 0.20135,0.68633 -2.89361,-2.17012 -7.2661,-3.51881 -11.6344,-3.51881 -2.04396,0 -3.95729,0.28506 -5.68879,0.85409 -0.35532,0.11784 -0.64456,0.39853 -0.85821,0.83883 -1.30561,2.66909 0.26061,11.35608 1.27339,14.30837 0.39607,1.14827 0.85613,1.71042 1.41471,1.71042 0.85831,0 1.4276,-1.42715 1.48322,-1.57311 1.88343,-4.10275 9.76813,-9.72853 12.77942,-9.72853 0.0665,0 0.13065,0.003 0.19268,0.007 0.23566,0.0176 0.44717,0.0318 0.63808,0.0318 0.0516,0 0.0787,-0.0176 0.12823,-0.0176 -4.44749,3.17024 -7.91257,9.92681 -7.94466,15.93599 -0.002,0.37023 0.16496,0.7321 0.50089,1.0698 2.05466,2.10264 10.5215,3.23781 13.52638,3.23781 l 0.24605,-0.002 c 1.18778,-0.0247 1.85131,-0.29177 2.03106,-0.82359 0.28487,-0.83448 -0.88174,-1.83894 -1.00162,-1.9413 -3.34523,-3.18767 -6.17038,-12.93571 -5.04241,-15.56991 0.11332,-0.25967 0.19927,-0.49478 0.26338,-0.72116 1.59447,5.27704 6.83383,10.70889 12.43487,12.58923 0.11748,0.0395 0.24605,0.0592 0.37664,0.0592 2.73741,0 7.14844,-9.52589 8.05163,-12.55441 0.29526,-0.99357 0.30185,-1.66467 0.0173,-2.05247 z"
       style="fill:none;fill-opacity:1;stroke:#000000;stroke-width:0.25601152;stroke-linecap:butt;stroke-linejoin:round;stroke-miterlimit:9.5;stroke-dasharray:none;stroke-opacity:1"
       id="path1176"
       inkscape:connector-curvature="0" />
    <path
       style="fill:none;fill-opacity:1;stroke:none;stroke-width:0.18304038;stroke-linecap:butt;stroke-linejoin:miter;stroke-miterlimit:9.5;stroke-dasharray:none;stroke-opacity:1"
       d="m 145.33544,132.20882 -1.47293,-2.54085 -2.78894,0.55605 -0.27205,2.91095 2.57917,1.1853 z"
       id="path2505"
       inkscape:connector-curvature="0" />
    <path
       style="opacity:1;fill:#ffffff;fill-opacity:1;stroke:#000000;stroke-width:0.64002866;stroke-linecap:butt;stroke-linejoin:round;stroke-miterlimit:9.5;stroke-dasharray:none;stroke-dashoffset:0;stroke-opacity:1"
       d="m 141.91704,134.03425 c 0.44457,0.21098 0.815,0.38935 0.82239,0.39662 0.007,0.007 -0.0454,0.16794 -0.12304,0.35693 -0.20862,0.52508 -0.29249,1.08685 -0.29249,1.95499 0,2.70666 1.11453,6.8498 2.75523,10.24169 0.8938,1.84801 1.6366,2.95662 2.7302,4.07505 0.56887,0.58173 0.83839,0.97331 0.83839,1.21854 0,0.14324 -0.13863,0.2653 -0.43486,0.38536 -0.20828,0.0843 -0.4226,0.0967 -1.59173,0.0949 -1.34152,-0.002 -1.77174,-0.0318 -3.48625,-0.24838 -5.21646,-0.65614 -9.14745,-1.95216 -9.66087,-3.18577 -0.0918,-0.22086 -0.0655,-0.98908 0.0745,-2.14755 0.51772,-4.29187 2.68979,-8.86137 5.65777,-11.90094 0.57729,-0.59095 1.78583,-1.64381 1.87133,-1.62988 0.0173,0.003 0.39476,0.17711 0.83946,0.38804 z"
       id="path2507"
       inkscape:connector-curvature="0" />
    <path
       style="opacity:1;fill:none;fill-opacity:1;stroke:#000000;stroke-width:0.64002866;stroke-linecap:butt;stroke-linejoin:round;stroke-miterlimit:9.5;stroke-dasharray:none;stroke-dashoffset:0;stroke-opacity:1"
       d="m 141.24324,133.76711 c 0.0745,0.0318 0.42973,0.20357 0.78921,0.37485 l 0.65405,0.31153 -0.15525,0.473 c -0.6368,1.93851 0.002,5.84485 1.65605,10.13207 0.39542,1.02429 1.486,3.22783 1.96091,3.96173 0.51322,0.79334 0.89363,1.27782 1.66229,2.11844 0.86519,0.94611 0.95355,1.1936 0.50673,1.41932 -0.68811,0.34786 -4.08935,0.15171 -7.42061,-0.42823 -4.08039,-0.70991 -7.00975,-1.83691 -7.38476,-2.84098 -0.16254,-0.4348 0.10153,-2.74632 0.49571,-4.34042 0.92447,-3.73954 2.93761,-7.37408 5.44911,-9.83758 0.6031,-0.59159 1.55672,-1.4201 1.62403,-1.411 0.0139,0.002 0.088,0.0318 0.16253,0.067 z"
       id="path2509"
       inkscape:connector-curvature="0" />
    <path
       style="opacity:1;fill:#ffff00;fill-opacity:1;stroke:#fdff00;stroke-width:0.64002866;stroke-linecap:butt;stroke-linejoin:round;stroke-miterlimit:9.5;stroke-dasharray:none;stroke-dashoffset:0;stroke-opacity:1"
       d="m 141.87116,134.1142 0.76305,0.3617 -0.12615,0.40452 c -0.18783,0.60213 -0.23704,1.00739 -0.23739,1.96299 -8.7e-4,1.7481 0.40571,3.87293 1.21368,6.34558 0.48406,1.48163 0.77067,2.20068 1.40355,3.52362 0.92929,1.94267 1.42843,2.75319 2.38139,3.86742 0.26789,0.31294 0.6387,0.74646 0.82366,0.96294 0.48923,0.57118 0.54361,0.75828 0.27447,0.93793 -0.48923,0.32634 -3.36506,0.22756 -6.36716,-0.2191 -4.39284,-0.65357 -7.91679,-1.87215 -8.39771,-2.90377 -0.1563,-0.33552 -0.0828,-1.57816 0.18506,-3.11607 0.68376,-3.93152 2.7653,-8.079 5.42471,-10.8087 0.55653,-0.57119 1.78756,-1.68227 1.86301,-1.68128 0.0173,2.4e-4 0.37664,0.16334 0.79624,0.36247 z"
       id="path2511"
       inkscape:connector-curvature="0" />
    <path
       style="opacity:1;fill:#0000fe;fill-opacity:1;stroke:#000000;stroke-width:0.64002866;stroke-linecap:butt;stroke-linejoin:round;stroke-miterlimit:9.5;stroke-dasharray:none;stroke-dashoffset:0;stroke-opacity:1"
       d="m 130.70558,127.31777 c 3.4283,0.20039 6.93202,1.29489 9.41388,2.94037 0.46591,0.30906 0.57463,0.40512 0.55716,0.4941 -0.0139,0.0592 -0.0516,0.44467 -0.0818,0.85326 -0.0312,0.40844 -0.0697,0.79235 -0.0818,0.85286 -0.0173,0.10231 -0.0666,0.11007 -0.65916,0.11395 -0.85221,0.003 -1.52605,0.18452 -2.71828,0.72385 -3.11661,1.4092 -6.86173,4.30451 -9.12276,7.05259 -0.51839,0.62983 -1.14558,1.61136 -1.49303,2.33609 -0.3643,0.76053 -0.67448,1.13588 -0.93761,1.13588 -0.30913,0 -0.64879,-0.55993 -0.98422,-1.62321 -0.58953,-1.86707 -1.20213,-5.0744 -1.49813,-7.84083 -0.13931,-1.29859 -0.14001,-4.00304 -9e-4,-4.69616 0.21279,-1.06637 0.46141,-1.44882 1.05704,-1.62899 1.2687,-0.38342 2.64078,-0.62256 4.11548,-0.71583 0.97937,-0.0593 1.34252,-0.0593 2.4341,0.002 z"
       id="path2513"
       inkscape:connector-curvature="0" />
    <path
       style="opacity:1;fill:#8000ff;fill-opacity:1;stroke:#8000ff;stroke-width:0.64002866;stroke-linecap:butt;stroke-linejoin:round;stroke-miterlimit:9.5;stroke-dasharray:none;stroke-dashoffset:0;stroke-opacity:1"
       d="m 140.15655,112.10292 c 0.31432,0.10548 0.3792,0.17322 0.81252,0.85142 1.58547,2.48182 2.60559,5.48004 3.01605,8.86497 0.13411,1.10713 0.13446,3.68594 9.7e-4,4.69694 -0.11263,0.85247 -0.30427,1.79138 -0.49311,2.42237 l -0.13932,0.46514 -0.25645,0.0525 c -0.75255,0.16334 -1.48662,0.28999 -1.54599,0.26706 -0.0388,-0.0142 -0.0977,-0.15875 -0.13411,-0.32069 -0.32472,-1.43464 -2.21339,-3.59136 -5.06218,-5.78061 -2.94091,-2.26008 -6.3516,-3.95848 -8.4317,-4.19859 -0.77806,-0.0896 -1.36896,-0.29918 -1.48916,-0.52769 -0.19337,-0.36829 0.40187,-0.99004 1.92152,-2.00543 3.07218,-2.05289 7.13624,-4.0076 9.67486,-4.65354 0.787,-0.2004 1.74928,-0.26144 2.12585,-0.13583 z"
       id="path2515"
       inkscape:connector-curvature="0" />
    <path
       style="opacity:1;fill:#ff0000;fill-opacity:1;stroke:#fa0000;stroke-width:0.64002866;stroke-linecap:butt;stroke-linejoin:round;stroke-miterlimit:9.5;stroke-dasharray:none;stroke-dashoffset:0;stroke-opacity:1"
       d="m 131.06167,127.37609 c 2.70327,0.2318 5.33703,0.94816 7.50116,2.04055 0.716,0.36172 1.64957,0.91911 1.91209,1.14223 l 0.17293,0.14676 -0.0849,0.88042 c -0.0454,0.48419 -0.0957,0.89206 -0.10847,0.90642 -0.0139,0.0142 -0.34483,0.0462 -0.73689,0.066 -1.03512,0.0525 -1.6392,0.24061 -3.09346,0.95066 -2.65146,1.295 -5.7844,3.6701 -7.91796,6.00261 -0.96773,1.05796 -1.49986,1.80714 -2.13015,2.99897 -0.6666,1.26032 -0.92399,1.48071 -1.2783,1.09457 -0.53259,-0.58036 -1.19284,-2.97307 -1.75239,-6.34953 -0.41809,-2.52416 -0.47825,-3.19646 -0.48085,-5.3923 -0.002,-1.80667 0.003,-1.95555 0.11714,-2.40689 0.14347,-0.58044 0.32888,-0.96842 0.55331,-1.16079 0.28729,-0.24626 1.71192,-0.60675 3.19483,-0.80828 0.94307,-0.12842 3.21052,-0.1884 4.13267,-0.10937 z"
       id="path2517"
       inkscape:connector-curvature="0" />
    <path
       style="opacity:1;fill:none;fill-opacity:1;stroke:#000000;stroke-width:0.64002866;stroke-linecap:butt;stroke-linejoin:round;stroke-miterlimit:9.5;stroke-dasharray:none;stroke-dashoffset:0;stroke-opacity:1"
       d="m 150.5702,111.96412 c 0.39348,0.14606 0.78017,0.39331 1.5124,0.96841 2.08936,1.64071 4.81335,4.37768 6.48722,6.51807 1.29099,1.65065 1.97249,2.94265 1.97249,3.73924 0,0.31082 -0.0139,0.34928 -0.27932,0.70328 -1.66371,2.22982 -4.14482,4.23198 -7.04417,5.68446 -2.5241,1.26455 -5.03449,1.97224 -7.25477,2.0453 l -0.55265,0.0176 -0.48923,-0.84697 c -0.26928,-0.4658 -0.48212,-0.85057 -0.47437,-0.85488 0.20204,-0.10796 0.72088,-0.49276 0.92257,-0.68468 1.64379,-1.56528 3.63742,-6.3984 4.38342,-10.62656 0.31917,-1.80857 0.39864,-3.65765 0.20828,-4.83502 -0.0516,-0.3214 -0.0946,-0.8361 -0.0946,-1.14315 0,-0.4717 0.0139,-0.57648 0.10294,-0.67403 0.12475,-0.14006 0.24604,-0.14252 0.59988,-0.0142 z"
       id="path2519"
       inkscape:connector-curvature="0" />
    <path
       style="opacity:1;fill:#0000ff;fill-opacity:1;stroke:#0000fd;stroke-width:0.64002866;stroke-linecap:butt;stroke-linejoin:round;stroke-miterlimit:9.5;stroke-dasharray:none;stroke-dashoffset:0;stroke-opacity:1"
       d="m 150.61383,112.0284 c 0.94118,0.38868 3.07963,2.20985 5.33592,4.54378 2.96444,3.06645 4.53849,5.37304 4.53849,6.65058 0,0.27695 -0.0173,0.31716 -0.37081,0.77831 -1.77052,2.32265 -4.58712,4.4885 -7.64135,5.87586 -2.2487,1.02147 -4.16934,1.54023 -6.225,1.68125 -0.44329,0.0318 -0.81098,0.0462 -0.81674,0.0395 -0.0776,-0.10232 -0.88995,-1.57643 -0.88891,-1.61352 7.3e-4,-0.0247 0.12684,-0.13758 0.28001,-0.24378 0.68189,-0.47042 1.21919,-1.1151 1.88596,-2.2622 1.40203,-2.41204 2.73564,-6.38789 3.18156,-9.48542 0.25368,-1.76271 0.26546,-2.81191 0.0516,-4.78705 -0.0648,-0.59884 -0.0388,-1.09022 0.0582,-1.2143 0.0867,-0.1062 0.29562,-0.0942 0.60832,0.0318 z"
       id="path2521"
       inkscape:connector-curvature="0" />
    <path
       style="opacity:1;fill:#00ff00;fill-opacity:1;stroke:#00ff00;stroke-width:0.64002866;stroke-linecap:butt;stroke-linejoin:round;stroke-miterlimit:9.5;stroke-dasharray:none;stroke-dashoffset:0;stroke-opacity:1"
       d="m 163.81459,132.73721 c 0.29943,0.46581 -0.20204,2.14578 -1.51372,5.06649 -2.09812,4.67231 -4.53191,8.19109 -5.92031,8.55959 -0.22908,0.0592 -0.27899,0.0525 -0.86484,-0.16722 -3.88222,-1.44837 -7.77733,-4.79603 -10.06935,-8.65415 -0.58374,-0.9829 -1.21679,-2.36882 -1.46375,-3.20563 -0.0243,-0.0874 0.10223,-0.25614 0.60572,-0.79575 l 0.63807,-0.68468 0.32092,0.25367 c 0.98889,0.78237 2.7829,1.28035 5.53653,1.53688 0.93885,0.0874 3.8055,0.0871 4.78338,-7.5e-4 2.85568,-0.25613 4.64439,-0.70035 6.39513,-1.58796 0.68025,-0.34504 0.88434,-0.42425 1.14332,-0.44333 0.29319,-0.0176 0.32161,-0.0142 0.40897,0.12277 z"
       id="path2523"
       inkscape:connector-curvature="0" />
    <path
       style="opacity:1;fill:#fffff7;fill-opacity:1;stroke:#ffffff;stroke-width:0.64002866;stroke-linecap:butt;stroke-linejoin:round;stroke-miterlimit:9.5;stroke-dasharray:none;stroke-dashoffset:0;stroke-opacity:1"
       d="m 142.22351,133.41166 -0.87402,-0.40353 -0.0839,-0.15771 -0.0839,-0.1577 0.0801,-0.86811 c 0.10569,-1.14519 0.0963,-1.09227 0.2159,-1.23198 l 0.10188,-0.11925 0.95328,-0.19016 0.95331,-0.19016 0.12094,0.0597 c 0.0665,0.0318 0.13897,0.0688 0.1608,0.0801 0.0208,0.0106 0.26651,0.41268 0.54371,0.89196 l 0.50379,0.87142 -0.0173,0.15665 c -0.0173,0.15487 -0.0243,0.1644 -0.68598,0.87566 -0.58579,0.63059 -0.68181,0.72157 -0.78096,0.73989 -0.062,0.0106 -0.14001,0.0282 -0.17294,0.0353 -0.035,0.007 -0.42716,-0.15629 -0.9341,-0.39045 z"
       id="path823"
       inkscape:connector-curvature="0" />
  </g>
</svg>
