<?xml version="1.0" encoding="UTF-8" standalone="no"?>
<!-- Created with Inkscape (http://www.inkscape.org/) -->

<svg
   xmlns:dc="http://purl.org/dc/elements/1.1/"
   xmlns:cc="http://creativecommons.org/ns#"
   xmlns:rdf="http://www.w3.org/1999/02/22-rdf-syntax-ns#"
   xmlns:svg="http://www.w3.org/2000/svg"
   xmlns="http://www.w3.org/2000/svg"
   xmlns:sodipodi="http://sodipodi.sourceforge.net/DTD/sodipodi-0.dtd"
   xmlns:inkscape="http://www.inkscape.org/namespaces/inkscape"
   width="8.031951mm"
   height="12.000017mm"
   viewBox="0 0 8.031951 12.000017"
   version="1.1"
   id="svg4067"
   inkscape:version="0.91 r13725"
   sodipodi:docname="ZS.svg">
  <defs
     id="defs4061" />
  <sodipodi:namedview
     id="base"
     pagecolor="#ffffff"
     bordercolor="#666666"
     borderopacity="1.0"
     inkscape:pageopacity="0.0"
     inkscape:pageshadow="2"
     inkscape:zoom="15.839192"
     inkscape:cx="12.883515"
     inkscape:cy="17.127067"
     inkscape:document-units="mm"
     inkscape:current-layer="layer1"
     showgrid="false"
     inkscape:window-width="1368"
     inkscape:window-height="849"
     inkscape:window-x="-8"
     inkscape:window-y="-8"
     inkscape:window-maximized="1"
     showguides="false"
     fit-margin-top="0"
     fit-margin-left="0"
     fit-margin-right="0"
     fit-margin-bottom="0" />
  <metadata
     id="metadata4064">
    <rdf:RDF>
      <cc:Work
         rdf:about="">
        <dc:format>image/svg+xml</dc:format>
        <dc:type
           rdf:resource="http://purl.org/dc/dcmitype/StillImage" />
        <dc:title />
      </cc:Work>
    </rdf:RDF>
  </metadata>
  <g
     inkscape:label="Livello 1"
     inkscape:groupmode="layer"
     id="layer1"
     transform="translate(-82.570534,-140.29814)">
    <path
       style="fill:#656263;fill-opacity:1;stroke:#000000;stroke-width:0.18473212;stroke-miterlimit:4;stroke-dasharray:none;stroke-opacity:1"
       d="m 84.741984,152.20006 c -0.03592,-0.004 -0.157683,-0.0165 -0.270581,-0.0276 -0.421652,-0.0414 -0.929127,-0.16703 -1.200554,-0.29728 -0.20034,-0.0961 -0.396934,-0.28538 -0.484814,-0.4667 -0.09745,-0.20106 -0.123761,-0.33265 -0.123125,-0.6158 6.65e-4,-0.296 0.02677,-0.43713 0.16049,-0.86773 0.05099,-0.1642 0.126521,-0.40752 0.167829,-0.54071 0.10206,-0.32904 0.196631,-0.5111 0.345648,-0.66546 0.150926,-0.15633 0.275418,-0.21721 0.380053,-0.18587 0.106742,0.0319 0.185168,0.13688 0.358649,0.47972 0.08771,0.17335 0.201841,0.37529 0.253609,0.44876 0.203747,0.28913 0.58763,0.64214 0.972619,0.89436 0.223702,0.14656 0.614944,0.36222 0.657181,0.36226 0.03827,4e-5 0.193857,-0.25702 0.341746,-0.5646 0.399687,-0.83127 0.431779,-1.67055 0.09098,-2.37929 -0.208959,-0.43455 -0.699793,-0.97544 -1.180991,-1.3014 -0.90496,-0.61303 -1.716913,-1.84935 -1.848407,-2.81447 -0.117574,-0.86295 0.353679,-1.55169 1.412757,-2.06476 0.0947,-0.0459 0.17218,-0.0885 0.17218,-0.0948 0,-0.006 -0.05668,-0.003 -0.12596,0.006 -0.06928,0.009 -0.239324,0.0141 -0.377881,0.0105 -0.22285,-0.006 -0.262685,-0.0121 -0.345223,-0.053 -0.07306,-0.0362 -0.09456,-0.0572 -0.09911,-0.0966 -0.0084,-0.0723 0.07625,-0.12068 0.444334,-0.25413 0.758796,-0.27511 1.569486,-0.49716 2.22063,-0.60822 0.551028,-0.094 0.777852,-0.11289 1.352906,-0.11273 0.584864,1.7e-4 0.805428,0.0206 1.222279,0.11344 0.503275,0.11205 0.758611,0.22422 0.954417,0.41932 0.350555,0.34927 0.411966,0.92029 0.177407,1.64959 -0.03631,0.1129 -0.09642,0.31024 -0.133597,0.43853 -0.125723,0.43396 -0.199468,0.60717 -0.332841,0.78174 -0.09063,0.11863 -0.237769,0.23399 -0.329491,0.25832 -0.17022,0.0451 -0.271774,-0.0569 -0.493686,-0.49619 -0.08863,-0.17546 -0.211185,-0.3865 -0.272336,-0.46897 -0.299214,-0.40355 -0.831361,-0.82994 -1.393464,-1.11651 l -0.224578,-0.1145 -0.09382,0.15352 c -0.5422,0.8872 -0.692462,1.75642 -0.4352,2.5175 0.207128,0.61278 0.622356,1.11218 1.358056,1.6334 0.579839,0.4108 1.09938,1.04108 1.45246,1.76207 0.441594,0.90173 0.461934,1.59578 0.06396,2.18249 -0.216253,0.3188 -0.584506,0.60792 -1.118359,0.87801 -0.11803,0.0597 -0.197164,0.10872 -0.175854,0.1089 0.02131,1.9e-4 0.129082,-0.008 0.239494,-0.0199 0.332649,-0.0335 0.660112,0.0313 0.693743,0.13728 0.02829,0.0891 -0.132037,0.16647 -0.824396,0.39773 -0.849047,0.28359 -1.648126,0.46977 -2.396208,0.5583 -0.235802,0.0279 -1.068025,0.0525 -1.21295,0.0357 z"
       id="path4165"
       inkscape:connector-curvature="0" />
  </g>
</svg>
