<?xml version="1.0" encoding="UTF-8" standalone="no"?>
<!-- Created with Inkscape (http://www.inkscape.org/) -->

<svg
   xmlns:dc="http://purl.org/dc/elements/1.1/"
   xmlns:cc="http://creativecommons.org/ns#"
   xmlns:rdf="http://www.w3.org/1999/02/22-rdf-syntax-ns#"
   xmlns:svg="http://www.w3.org/2000/svg"
   xmlns="http://www.w3.org/2000/svg"
   xmlns:sodipodi="http://sodipodi.sourceforge.net/DTD/sodipodi-0.dtd"
   xmlns:inkscape="http://www.inkscape.org/namespaces/inkscape"
   width="42.333336mm"
   height="42.333447mm"
   viewBox="0 0 42.333336 42.333449"
   version="1.1"
   id="svg4737"
   inkscape:version="0.91 r13725"
   sodipodi:docname="teal.svg">
  <defs
     id="defs4731" />
  <sodipodi:namedview
     id="base"
     pagecolor="#ffffff"
     bordercolor="#666666"
     borderopacity="1.0"
     inkscape:pageopacity="0.0"
     inkscape:pageshadow="2"
     inkscape:zoom="2.8"
     inkscape:cx="10.451406"
     inkscape:cy="87.001206"
     inkscape:document-units="mm"
     inkscape:current-layer="layer1"
     showgrid="false"
     inkscape:window-width="1368"
     inkscape:window-height="849"
     inkscape:window-x="-8"
     inkscape:window-y="-8"
     inkscape:window-maximized="1"
     fit-margin-top="0"
     fit-margin-left="0"
     fit-margin-right="0"
     fit-margin-bottom="0" />
  <metadata
     id="metadata4734">
    <rdf:RDF>
      <cc:Work
         rdf:about="">
        <dc:format>image/svg+xml</dc:format>
        <dc:type
           rdf:resource="http://purl.org/dc/dcmitype/StillImage" />
        <dc:title></dc:title>
      </cc:Work>
    </rdf:RDF>
  </metadata>
  <g
     inkscape:label="Livello 1"
     inkscape:groupmode="layer"
     id="layer1"
     transform="translate(-74.15539,-82.208377)">
    <g
       id="g4135"
       style="fill:#00cccc;fill-opacity:1"
       transform="matrix(-3.2996682,1.133672,-1.2009809,-3.1147381,502.08921,381.77571)">
      <g
         id="g4139"
         style="fill:#00cccc;fill-opacity:1">
        <g
           id="g4144"
           style="fill:#00cccc;fill-opacity:1">
          <path
             style="fill:#00cccc;fill-opacity:1;stroke:#000000;stroke-width:0.61854231;stroke-miterlimit:4;stroke-dasharray:none;stroke-opacity:1"
             d="m 28.347656,0.3125 c -0.681506,0.003061 -1.448222,0.24517794 -2.291015,0.7226562 -1.724829,0.9772086 -3.335026,2.6540784 -6.017579,6.2675782 -3.64434,4.9090746 -3.45357,4.7995016 -10.6894526,6.0683596 -5.7243933,1.003854 -8.2770378,1.929403 -8.8730469,3.214844 -0.59619685,1.28583 0.26653605,2.497549 4.703125,6.595703 3.1286303,2.889956 4.0668889,3.916861 4.3496094,4.765625 0.1982338,0.595169 0.4756681,3.110804 0.6171871,5.589843 0.287575,5.036953 0.743344,6.859363 1.996094,7.978516 l 0,0.002 c 0.89611,0.800504 1.876646,0.918026 3.06836,0.365234 1.263575,-0.585992 4.336295,-3.639352 6.949218,-6.904296 2.640108,-3.298925 4.168705,-4.704191 5.761719,-5.298828 0.553638,-0.206646 2.850185,-0.728507 5.103516,-1.158204 5.201996,-0.991948 6.658927,-1.380822 7.859375,-2.103515 2.372828,-1.428555 1.774308,-2.693982 -3.455078,-7.298828 C 35.287418,17.23272 33.308731,15.289797 33.033203,14.802734 32.651245,14.127522 32.480019,12.921518 32.308594,9.7226562 32.011232,4.1738732 31.555509,2.3535465 30.128906,1.0175781 29.626019,0.54557422 29.029163,0.30943947 28.347656,0.3125 Z m -4.6875,13.851562 c 0.230896,-0.0012 0.433138,0.07901 0.603516,0.238282 0.483332,0.452586 0.637534,1.069246 0.738281,2.949218 0.05811,1.083756 0.116692,1.491948 0.246094,1.720704 0.09333,0.165118 0.764434,0.823784 1.490234,1.46289 1.771725,1.560118 1.973838,1.988641 1.169922,2.472656 -0.406711,0.244843 -0.899668,0.376808 -2.662109,0.712891 -0.763431,0.14563 -1.542893,0.322704 -1.730469,0.392578 -0.539713,0.20126 -1.056699,0.677257 -1.951172,1.794922 -0.88526,1.106185 -1.925413,2.141277 -2.353515,2.339844 -0.403753,0.187441 -0.737415,0.146417 -1.041016,-0.125 -0.423584,-0.379256 -0.578437,-0.99611 -0.675781,-2.701172 -0.04794,-0.83987 -0.141804,-1.692882 -0.208985,-1.894531 -0.09577,-0.287362 -0.414625,-0.636113 -1.474609,-1.615235 -1.503121,-1.388444 -1.795743,-1.798725 -1.59375,-2.234375 0.201933,-0.435507 1.06838,-0.747804 3.007812,-1.08789 2.451522,-0.42991 2.386383,-0.393413 3.621094,-2.056641 0.908848,-1.224248 1.454686,-1.793913 2.039063,-2.125 0.285537,-0.161752 0.544495,-0.242989 0.77539,-0.244141 z"
             transform="matrix(0.28222222,0,0,0.28222224,74.155397,112.54177)"
             id="path4718"
             inkscape:connector-curvature="0" />
        </g>
      </g>
    </g>
  </g>
</svg>
