<?xml version="1.0" encoding="UTF-8" standalone="no"?>
<svg
   xmlns:dc="http://purl.org/dc/elements/1.1/"
   xmlns:cc="http://creativecommons.org/ns#"
   xmlns:rdf="http://www.w3.org/1999/02/22-rdf-syntax-ns#"
   xmlns:svg="http://www.w3.org/2000/svg"
   xmlns="http://www.w3.org/2000/svg"
   xmlns:sodipodi="http://sodipodi.sourceforge.net/DTD/sodipodi-0.dtd"
   xmlns:inkscape="http://www.inkscape.org/namespaces/inkscape"
   sodipodi:docname="navbar.svg"
   inkscape:version="1.0 (4035a4fb49, 2020-05-01)"
   id="svg1093"
   version="1.1"
   viewBox="0 0 395.28088 69.587746"
   height="69.587746mm"
   width="395.28088mm">
  <defs
     id="defs1087" />
  <sodipodi:namedview
     inkscape:window-maximized="0"
     inkscape:window-y="0"
     inkscape:window-x="192"
     inkscape:window-height="1030"
     inkscape:window-width="1424"
     inkscape:pagecheckerboard="true"
     fit-margin-bottom="0"
     fit-margin-right="0"
     fit-margin-left="0"
     fit-margin-top="0"
     showgrid="false"
     inkscape:document-rotation="0"
     inkscape:current-layer="layer1"
     inkscape:document-units="mm"
     inkscape:cy="668.64726"
     inkscape:cx="846.98752"
     inkscape:zoom="0.35"
     inkscape:pageshadow="2"
     inkscape:pageopacity="0"
     borderopacity="1.0"
     bordercolor="#666666"
     pagecolor="#797979"
     id="base" />
  <metadata
     id="metadata1090">
    <rdf:RDF>
      <cc:Work
         rdf:about="">
        <dc:format>image/svg+xml</dc:format>
        <dc:type
           rdf:resource="http://purl.org/dc/dcmitype/StillImage" />
        <dc:title></dc:title>
      </cc:Work>
    </rdf:RDF>
  </metadata>
  <g
     transform="translate(118.26545,28.746254)"
     id="layer1"
     inkscape:groupmode="layer"
     inkscape:label="Layer 1">
    <path
       inkscape:export-ydpi="23.725451"
       inkscape:export-xdpi="23.725451"
       style="clip-rule:evenodd;fill:#ffffff;fill-opacity:1;fill-rule:evenodd;stroke-width:0.0130836;image-rendering:optimizeQuality;shape-rendering:geometricPrecision;text-rendering:geometricPrecision"
       class="fil1"
       d="M -96.088184,-10.210703 -115.93599,2.4018795 c -1.16444,0.732681 -1.92329,1.884037 -2.21113,3.140062 -0.27476,1.256024 -0.0785,2.616718 0.66726,3.781157 l 20.0179,31.5183795 h 17.40118 l -3.074647,-9.825781 c -0.03925,1.334526 0.05233,2.669053 0.287841,3.977412 0.248589,1.373778 0.444841,1.609283 0.69343,2.629802 -0.157004,0.130837 -0.837351,0.327092 -1.099023,0.379426 -0.05233,-0.43176 -0.22242,-0.968187 -0.300922,-1.439196 -0.418676,-2.328878 -0.340172,-4.566173 0.02617,-6.777302 l -0.811186,-2.590551 c -0.680347,1.661618 -1.229857,3.427902 -1.63545,5.181105 -0.287838,1.256022 -0.484092,2.603633 -0.588762,3.964326 -0.157001,2.14571 0.0131,2.459718 0.117753,4.343755 -0.366339,0.02617 -1.216774,0.170085 -1.517697,0.117753 -0.0131,-5.285772 1.059772,-9.158515 3.336319,-13.685441 0.02617,-0.03925 0.0785,-0.157001 0.157001,-0.314005 l -0.183169,-0.614928 c -0.745765,1.007435 -1.34761,2.080291 -1.923288,3.20548 -0.614931,1.190606 -1.360694,3.323232 -1.452279,4.867097 l -0.928936,-0.117752 c 0.02617,-0.614929 0.523343,-2.041041 0.745765,-2.590552 0.314007,-0.785016 0.706514,-1.583116 1.112105,-2.263463 0.340174,-0.562594 1.596199,-2.394296 2.381215,-3.297065 l -0.327091,-1.020519 c -0.183171,0.248586 -0.732682,0.745762 -0.902769,0.91585 l -0.928934,1.033605 c -0.575677,0.680347 -1.138271,1.413029 -1.687785,2.237293 -0.928933,1.426112 -2.11954,3.728826 -2.420463,5.482026 l -1.125189,-0.300923 c 0.497176,-1.910205 1.844786,-3.885827 2.930726,-5.390439 0.157002,-0.209338 0.300922,-0.366342 0.484093,-0.575677 l 0.981268,-1.112108 c 0.444841,-0.484092 1.596199,-1.543865 2.14571,-1.988706 0.248589,-0.209336 0.366339,-0.366339 0.497176,-0.392507 l -1.57003,-5.024101 c -2.067208,-1.085937 -4.683927,-1.975623 -6.999723,-2.250377 -0.536428,-0.06542 -1.072855,-0.09159 -1.622366,-0.09159 -0.340174,0 -1.399944,0.09159 -1.609282,0.05233 l -0.09158,-1.12519 c 3.768075,0.09159 5.573611,0.732681 8.674422,2.276546 0.523343,0.248589 1.072854,0.601845 1.570032,0.902769 l -0.209338,-0.65418 c -0.06542,-0.05233 -0.130837,-0.104669 -0.183171,-0.14392 -2.211126,-1.543865 -5.024099,-3.048476 -7.889406,-3.074643 l 0.02617,-0.706515 c 2.355046,0.0785 5.233436,1.622365 7.012804,2.943807 0.09159,0.0785 0.549513,0.418674 0.968187,0.758849 l -0.379423,-1.20369 c -1.216774,-1.269108 -2.826057,-2.708304 -4.108249,-3.63724 -2.014873,-1.478444 -3.885828,-2.577468 -6.306292,-3.401732 l -1.020521,-0.340175 0.457926,-1.5176955 c 2.616719,0.523343 7.209059,4.2783345 8.818342,5.9006985 l 1.975623,2.394299 -0.863518,-2.747555 c -0.05234,-0.06542 -0.117753,-0.117753 -0.170085,-0.183171 -0.745765,-0.758849 -1.413029,-1.399945 -2.315798,-2.00179 l -0.379423,-0.26167 0.353256,-0.575678 c 0.209338,0.09158 0.549511,0.379423 0.732682,0.536427 0.235503,0.196252 0.484092,0.379423 0.69343,0.588761 0.104669,0.10467 0.183171,0.222422 0.300921,0.327089 0.117753,0.117753 0.222422,0.196255 0.327092,0.314007 l 0.09159,0.117753 -0.785016,-2.538217 c -0.261673,-0.28784 -0.536427,-0.5756775 -0.811183,-0.8635185 -0.968185,-1.007435 -1.936372,-1.727033 -3.02231,-2.616718 -0.431759,-0.327091 -1.556947,-0.981271 -1.713951,-1.112105 0.06542,-0.196254 0.654181,-1.138274 0.824267,-1.360696 0.628013,0.235505 3.022311,2.420466 3.820408,3.323235 l 0.117753,0.143918 -0.706514,-2.237293 -0.51026,-0.02617 c 0.03925,-0.10467 0,-0.03925 0.117753,-0.130837 0.0785,-0.05233 0.183171,-0.117753 0.28784,-0.196255 z m -2.171876,39.590952 -0.222421,-0.09159 0.09159,0.222422 -0.157002,0.196252 0.261671,-0.0131 0.09158,0.209338 0.05233,-0.209338 0.222422,-0.0785 c -0.01308,-0.02617 -0.02617,-0.03925 -0.03925,-0.03925 -0.03925,0.0785 0.02617,0.02617 -0.130837,-0.104667 l 0.03925,-0.222422 c -0.117752,0.05233 -0.0785,0.06542 -0.209337,0.130837 z m -2.13263,-5.011015 -0.28784,-0.117753 c 0.0523,0.130836 0.0785,0.183168 0.14392,0.300921 l -0.18317,0.248589 0.32709,-0.0785 c 0.0262,0.05233 0.0262,0.0785 0.0523,0.117752 l 0.13084,0.130837 c 0.0131,-0.340175 -0.0131,-0.314008 0.32709,-0.366342 l -0.30092,-0.14392 0.0131,-0.314005 z m 5.717535,3.20548 h -0.340173 c 0.02617,0.03925 0.196253,0.183168 0.235504,0.222419 l -0.09159,0.300924 c 0.130836,-0.05233 0.157003,-0.09159 0.300922,-0.14392 0.130837,0.09158 0.117753,0.117753 0.248589,0.183171 l -0.06542,-0.340175 0.261672,-0.183168 -0.340173,-0.02617 -0.09159,-0.314007 z m -6.437125,-8.94918 c -0.0131,0.0131 -0.0392,0 -0.0392,0.0131 l -0.34018,0.0785 0.31401,0.196255 -0.0523,0.392507 0.28784,-0.248587 0.35325,0.170085 -0.14392,-0.36634 c 0.11776,-0.117753 0.18318,-0.14392 0.24859,-0.274756 l -0.37942,0.03925 c -0.0523,-0.11775 -0.0785,-0.222422 -0.18317,-0.314005 z m 7.666983,-9.3940185 c -0.117753,0.143918 -0.209338,0.209336 -0.314007,0.379424 0.130836,-0.0131 0.222421,-0.03925 0.340174,-0.06542 0.484093,-0.117753 0.340173,0.09159 0.549511,0.418674 l 0.03925,-0.510259 c 0.117753,-0.130837 0.353258,-0.09159 0.549511,-0.209339 -0.117752,-0.117752 -0.353257,-0.170084 -0.523344,-0.222419 l 0.06542,-0.588761 c -0.28784,0.274754 -0.130836,0.143917 -0.497176,0.40559 l -0.43176,-0.18317 c 0.0785,0.209338 0.300922,0.418677 0.222421,0.57568 z m 0.641095,22.8962885 -0.40559,0.104669 0.379423,0.183169 -0.01308,0.444841 c 0.130836,-0.130834 0.170086,-0.143918 0.261671,-0.314005 l 0.457926,0.14392 -0.222421,-0.405593 c 0.130836,-0.104666 0.209338,-0.209336 0.261672,-0.340172 l -0.392507,0.104669 c -0.117753,-0.09158 -0.10467,-0.14392 -0.196255,-0.261673 l -0.09159,-0.104666 z m 3.938162,2.983058 -0.471008,0.248589 c 0.11775,0.06542 0.340172,0.06542 0.523343,0.09159 0.03925,0.11775 0.03925,0.143917 0.06542,0.26167 l 0.0785,0.248589 c 0,0.01307 0.0131,0.02617 0.0131,0.02617 l 0.222419,-0.471009 0.562597,0.05233 -0.379426,-0.366339 c 0.02617,-0.222422 0.130837,-0.314008 0.196255,-0.536427 l -0.457928,0.235505 -0.444841,-0.353258 z m -7.797821,-20.044063 0.497176,0.274754 -0.09159,0.588761 0.444842,-0.40559 0.523344,0.274756 -0.248589,-0.536429 c 0.170087,-0.209336 0.300924,-0.274754 0.405592,-0.418674 l -0.588761,0.06542 -0.248589,-0.536427 c -0.03925,0.170085 -0.06542,0.497176 -0.14392,0.562594 -0.09158,0.0785 -0.405591,0.03925 -0.54951,0.130837 z m -3.153147,13.332179 -0.562592,-0.01307 c 0.10467,0.157001 0.32709,0.248586 0.44484,0.392507 l -0.18317,0.54951 0.523343,-0.314008 c 0.117753,0.10467 0.340174,0.287841 0.457926,0.353259 l -0.157002,-0.601845 c 0.117752,-0.05233 0.418674,-0.222422 0.484092,-0.340175 l -0.588762,-0.0131 -0.157002,-0.575678 c -0.06542,0.10467 -0.09159,0.170088 -0.117753,0.261673 -0.05233,0.14392 -0.06542,0.196252 -0.14392,0.300922 z m 2.054125,-15.059215 -0.628013,-0.0131 c 0.09159,0.14392 0.300922,0.300924 0.457926,0.366342 l -0.196254,0.641096 c 0.183171,-0.09159 0.366341,-0.261673 0.549511,-0.340175 0.130836,0.104669 0.340174,0.314008 0.497176,0.366342 l -0.157002,-0.601845 0.51026,-0.353258 -0.601846,-0.03925 c -0.104668,-0.143916 -0.143919,-0.405589 -0.209337,-0.601843 z m 16.092819,25.827013 0.732682,-0.300923 c -0.248589,-0.06542 -0.771933,-0.170085 -0.863518,-0.36634 -0.05234,-0.117753 -0.05234,-0.562594 -0.06542,-0.745765 -0.117755,0.09159 -0.405593,0.588761 -0.444844,0.745765 l -0.915852,-0.183171 c 0.14392,0.209338 0.405593,0.457928 0.575678,0.654182 -0.104667,0.22242 -0.418674,0.680345 -0.444842,0.824265 l 0.758849,-0.353259 c 0.274757,0.06542 0.353256,0.431761 0.680347,0.614932 -0.02617,-0.209339 -0.117753,-0.706515 -0.01307,-0.889686 z m -13.345264,-8.412749 c -0.117753,0.14392 -0.222421,0.287837 -0.340174,0.444841 -0.235505,0.314007 -0.431759,0.588761 -0.654179,0.928936 -0.248589,0.366339 -1.059772,1.609281 -1.177524,2.041041 l 1.38686,0.601845 c 0.117753,-0.457928 0.641097,-1.465363 0.863518,-1.884037 0.641096,-1.164442 1.360693,-2.263463 2.18496,-3.283982 2.119543,-2.459718 3.650322,-3.728826 6.502546,-5.78295 0.209338,-0.143918 0.117753,-0.01307 0.14392,-0.183169 -0.314008,-0.14392 -3.401735,1.923288 -4.055914,2.446631 -1.413029,1.072854 -3.859661,3.349401 -4.854013,4.670844 z m -3.702657,-6.162374 -0.680348,-0.314007 c 0.09159,0.274756 0.287839,0.457927 0.366341,0.745765 -0.130836,0.104669 -0.170086,0.130836 -0.274755,0.261673 -0.0785,0.104669 -0.170087,0.235505 -0.248588,0.28784 l 0.771932,-0.14392 c 0.143919,0.209338 0.261672,0.510259 0.418674,0.680347 l 0.09159,-0.7981 c 0.130835,-0.01307 0.248588,-0.03925 0.392507,-0.06542 l 0.353258,-0.104669 -0.65418,-0.300922 c -0.09158,-0.274756 0.117752,-0.601845 0,-0.811183 -0.117752,0.157004 -0.340173,0.457925 -0.536427,0.562594 z m 2.446632,-17.0479225 -0.706514,-0.327088 0.353256,0.706514 -0.523343,0.588762 0.785015,-0.130837 0.366341,0.693431 c 0.01308,-0.01307 0.01308,-0.03925 0.01308,-0.03925 l 0.117752,-0.758849 0.785015,-0.14392 -0.719598,-0.36634 0.10467,-0.798099 z m -5.639027,12.9004225 0.17008,0.680347 2.145713,-0.54951 c 0.719598,-0.14392 1.63545,-0.300921 2.381215,-0.314005 -0.05233,-0.14392 0.117752,0.0131 -0.06542,-0.06542 -0.222421,-0.10467 -2.106459,-0.03925 -2.302713,-0.02617 -0.824265,0.05233 -1.543865,0.183171 -2.328885,0.274754 z m 7.012804,-1.988706 c -0.01308,0.222422 0.05233,0.523346 0.14392,0.693431 2.315796,-0.314005 3.009225,-0.196252 5.325022,0.235505 -0.03925,-0.09159 0.01307,-0.02617 -0.0785,-0.0785 -0.222422,-0.14392 -2.171877,-0.628012 -2.394297,-0.667263 -0.994354,-0.209338 -1.949456,-0.274754 -2.996143,-0.183171 z m -5.115684,-6.855801 c 1.085937,-0.0131 2.171875,0.183171 3.140061,0.444841 l 2.459716,0.863518 c 0.157003,0.02617 0.09159,0.03925 0.170087,-0.02617 0.0785,-0.170088 0.05233,-0.130837 -0.14392,-0.222422 -0.104669,-0.05233 -0.209338,-0.104669 -0.340173,-0.170085 -1.439196,-0.706514 -3.519487,-1.504614 -5.115686,-1.543865 z m 7.627734,14.31345 c 0.18317,0.183171 0.353256,0.444844 0.58876,0.562594 l 0.850435,-0.758849 c 1.007438,-0.876599 2.512049,-1.635447 3.75499,-2.158791 0.248589,-0.104669 0.549513,-0.209338 0.785016,-0.327091 -0.05233,-0.03925 -0.03925,-0.05233 -0.209336,-0.02617 l -1.478446,0.444847 c -1.05977,0.353256 -2.106459,0.758846 -3.035396,1.347608 -0.327088,0.196254 -1.09902,0.680349 -1.256023,0.915852 z m -4.906348,2.263463 c 0.14392,0.11775 0.431758,0.327088 0.588762,0.392507 0.130835,-0.300922 0.824266,-1.05977 1.033604,-1.282192 1.02052,-1.099021 2.721387,-2.22421 4.095164,-2.904557 l -0.117753,-0.248589 c -0.497175,0.157004 -1.216773,0.562594 -1.648532,0.785016 -1.138272,0.614929 -1.870953,1.20369 -2.812972,2.00179 -0.235505,0.196252 -1.02052,0.994352 -1.138273,1.256025 z m -1.740118,-11.552814 -1.164438,0.418676 c 0.0654,0.03925 0.0131,0.0131 0.13083,0.06542 0.0393,0.01307 0.104673,0.02617 0.143924,0.03925 l 0.902768,0.261673 0.130836,1.151355 c 0.01308,-0.01307 0.02617,-0.02617 0.02617,-0.02617 l 0.601846,-0.889683 1.190606,0.327089 -0.706513,-0.981268 c 0.09158,-0.314008 0.523343,-0.732682 0.654179,-1.059773 l -1.138272,0.405593 c -0.235505,-0.157004 -0.536427,-0.680347 -0.771932,-0.94202 -0.02617,0.03925 -0.01308,-0.06542 -0.03925,0.104669 l 0.01308,0.444842 c 0.01308,0.222422 0.01308,0.457927 0.02617,0.680347 z m 6.476379,14.797545 0.614929,0.248589 c 0.104668,-0.170087 0.523344,-1.190609 0.968185,-1.923291 0.732682,-1.177522 1.661618,-2.250376 2.642886,-3.192396 0.340175,-0.327088 0.300924,-0.353256 0.732682,-0.719598 0.157003,-0.130836 0.209338,-0.196252 0.366339,-0.353256 0.170087,-0.157003 0.366342,-0.170087 0.235506,-0.366342 -0.287838,0.05233 -2.695221,2.237296 -3.140062,2.773723 -0.523343,0.614928 -0.824267,0.889685 -1.334527,1.622366 -0.340173,0.471009 -0.863517,1.282192 -1.085938,1.910205 z m 1.661616,6.738048 0.680347,-0.0131 c 0.05233,-0.327088 0.02617,-0.981268 0.05233,-1.347607 0.0785,-1.177526 0.340172,-2.551301 0.680347,-3.650324 0.392506,-1.242941 0.69343,-1.962539 1.216773,-3.100811 0.130837,-0.274757 0.431758,-0.745765 0.484093,-0.994354 l -0.60184,0.915855 c -0.183172,0.327089 -0.379424,0.65418 -0.536427,1.007438 -0.327091,0.706514 -0.641096,1.347608 -0.928937,2.11954 -0.444841,1.164442 -1.138271,3.676492 -1.046686,5.06335 z m -8.334249,-10.584624 c 0.183171,0.11775 0.353257,0.274754 0.523344,0.40559 l 1.949456,-1.923288 c 0.157002,-0.117753 0.314006,-0.235505 0.471008,-0.353258 0.889685,-0.667264 1.910205,-1.282192 2.969976,-1.766285 0.261672,-0.117752 2.184959,-0.876598 2.237294,-0.928936 -0.758848,-0.02617 -3.754991,1.282195 -4.566173,1.753204 -0.719598,0.40559 -1.34761,0.798099 -1.923289,1.256024 -0.392507,0.300924 -1.491529,1.20369 -1.661616,1.556949 z m 15.124635,11.866816 0.654179,-0.209335 c -0.117752,-0.536427 -0.405593,-1.16444 -0.601845,-2.080292 -0.157003,-0.758849 -0.274756,-1.556949 -0.327091,-2.355046 -0.06542,-0.83735 -0.06542,-1.713952 -0.02617,-2.564384 0.02617,-0.340175 0.274757,-2.28963 0.209338,-2.381215 -0.130836,0.222422 -0.366342,1.870953 -0.418674,2.250379 -0.222422,1.700866 -0.235505,3.401734 0,5.115684 0.09158,0.562594 0.300921,1.779368 0.51026,2.224209 z M -97.684382,23.937473 c 0.06542,0.274757 0.457926,0.680347 0.601845,0.981271 l 1.046688,-0.654179 c 0.366341,-0.222422 0.732681,-0.418677 1.125189,-0.601845 2.36813,-1.125191 5.063349,-1.674702 7.719319,-1.766287 0.183171,-0.0131 0.641096,0.0131 0.771932,-0.0785 -0.01307,-0.01307 -0.02617,-0.02617 -0.03925,-0.02617 l -1.517698,-0.10467 c -1.622364,-0.02617 -3.140062,0.0785 -4.736259,0.405591 -0.928935,0.183171 -1.805537,0.431757 -2.65597,0.758849 -0.758848,0.287837 -2.18496,1.046686 -2.315796,1.085937 z m -6.319378,-1.085937 0.83735,1.556946 1.63545,-0.850432 c 0.53643,-0.28784 1.19061,-0.549513 1.779371,-0.771932 1.282192,-0.457925 2.5513,-0.824267 3.938161,-1.112105 2.708304,-0.549513 5.482025,-0.69343 8.255748,-0.562596 0.248589,0.01307 1.020519,0.130836 1.177522,0.02617 -0.03925,-0.196252 -0.667263,-0.209336 -1.007435,-0.26167 -5.796032,-0.811187 -11.264975,-0.484096 -16.616167,1.975619 z m 28.61382,9.237017 c 1.413028,3.938162 1.203693,0.758849 -0.183168,-1.727033 -0.183172,-0.340175 -1.30836,-2.355049 0.183168,1.727033 z m -2.171875,3.480234 c -0.02617,-0.03925 -0.03925,-0.09158 -0.05233,-0.130834 -0.196255,-0.601845 -0.287841,-1.229857 -0.24859,-1.870956 0.143921,0.68035 0.0785,1.242944 0.300924,2.00179 z"
       id="path1525" />
    <path
       inkscape:export-ydpi="23.725451"
       inkscape:export-xdpi="23.725451"
       style="clip-rule:evenodd;fill:#ffffff;fill-opacity:1;fill-rule:evenodd;stroke-width:0.0130836;image-rendering:optimizeQuality;shape-rendering:geometricPrecision;text-rendering:geometricPrecision"
       class="fil1"
       d="m -51.564716,-24.537243 -0.09159,-0.03925 v 0 l -0.0785,-0.02617 v 0 l -0.06542,-0.02617 -0.0785,-0.01308 -0.0785,-0.02617 -0.06542,-0.02617 -0.0785,-0.01308 -0.06542,-0.02617 -0.0785,-0.01308 v 0 l -0.0785,-0.01308 v 0 l -0.06542,-0.01308 v 0 l -0.0785,-0.02617 -0.0785,-0.01308 -0.06542,-0.01308 v 0 l -0.0785,-0.01308 v 0 l -0.0785,-0.01308 h -0.06542 l -0.0785,-0.01308 v 0 l -0.06542,-0.01308 h -0.0785 l -0.0785,-0.01308 v 0 h -0.06542 v 0 l -0.0785,-0.01308 v 0 h -0.0785 v 0 h -0.06542 v 0 h -0.0785 v 0 h -0.0785 v 0 l -0.06542,-0.01308 -0.0785,0.01308 h -0.06542 -0.0785 -0.0785 v 0 h -0.06542 l -0.0785,0.01308 h -0.06542 l -0.0785,0.01308 h -0.06542 v 0 l -0.0785,0.01308 -0.0785,0.01308 h -0.06542 v 0 l -0.0785,0.01308 -0.06542,0.01308 -0.06542,0.01308 -0.0785,0.01308 -0.06542,0.01308 v 0 l -0.0785,0.01308 -0.06542,0.01308 -0.0785,0.02617 -0.06542,0.01308 -0.06542,0.01308 -0.0785,0.02617 -0.06542,0.01308 -0.06542,0.02617 v 0 l -0.0785,0.02617 -0.06542,0.01308 -0.06542,0.02617 -0.06541,0.02617 -0.06542,0.02617 -0.0785,0.02617 -0.06542,0.02617 -0.06542,0.02617 -0.06542,0.02617 -0.06542,0.02617 -0.06542,0.02617 -0.06542,0.03925 -0.06542,0.02617 -0.06542,0.03925 -0.06542,0.02617 -0.06542,0.03925 -0.06542,0.02617 -0.06542,0.03925 v 0 l -0.06542,0.03925 v 0 l -0.06542,0.03925 v 0 l -0.06542,0.02617 -0.06542,0.03925 -0.05233,0.03925 -0.06542,0.03925 v 0 l -0.06542,0.05233 v 0 l -0.05233,0.03925 v 0 l -0.06542,0.03925 v 0 l -0.06542,0.03925 v 0 l -0.05233,0.05233 -0.06542,0.03925 -0.05233,0.03925 -0.06542,0.05233 -0.05233,0.05233 v 0 l -0.05233,0.03925 v 0 l -0.06542,0.05233 v 0 l -0.05233,0.05234 -0.05233,0.03925 v 0 l -0.05233,0.05233 v 0 l -0.06542,0.05234 v 0 l -0.05233,0.05233 v 0 l -0.05233,0.05233 v 0 l -0.05233,0.05233 v 0 l -0.05233,0.05233 v 0 l -0.05234,0.05234 v 0 l -0.05233,0.06542 -0.03925,0.05233 v 0 l -0.05233,0.05233 v 0 l -0.05233,0.05233 v 0 l -0.05233,0.06542 v 0 l -0.03925,0.05233 v 0 l -0.05233,0.06542 v 0 l -0.03925,0.05233 -0.05233,0.06542 -0.03925,0.06542 -0.05233,0.05233 v 0 l -0.03925,0.06542 v 0 l -0.03925,0.06542 -0.03925,0.06542 v 0 l -0.03925,0.06542 v 0 l -0.05234,0.06542 -0.03925,0.06542 v 0 l -0.03925,0.06542 v 0 l -0.02617,0.06542 -0.03925,0.06542 -0.03925,0.06542 -0.03925,0.06542 -0.03925,0.0785 v 0 l -0.02617,0.06542 -0.03925,0.06542 -0.02617,0.0785 -0.03925,0.06542 -0.02617,0.0785 -0.02617,0.06542 -0.03925,0.0785 -0.02617,0.06542 -0.02617,0.0785 -0.03925,0.09159 -4.827844,13.2536805 c 0.0131,-0.196254 -0.02617,-0.418675 -0.248589,-0.497176 -0.65418,-0.222421 -0.497176,0.994353 -0.497176,1.308359 l 0.0131,1.229858 -1.308359,3.558738 -0.876602,-8.3211655 c -0.01307,-0.143919 -0.02617,-0.300923 -0.05233,-0.457926 -0.130836,-0.588762 -0.876599,-0.667263 -0.889682,0.06542 -0.0131,0.392508 0.130834,0.9027675 0.157001,1.1251885 0.117753,0.680347 0.222422,1.321443 0.340175,2.014873 0.0785,0.523344 0.562594,3.49332 1.033602,6.384796 l -0.758848,2.08029105 c -0.235503,-0.732681 -0.444842,-1.399945 -0.601845,-1.910207 -0.314005,-1.02051905 -0.641096,-2.09337405 -0.955101,-3.12697805 -0.130837,-0.444842 -0.758849,-2.930725 -1.112108,-3.02231 -0.235502,-0.05233 -0.484092,0.157003 -0.457924,0.405591 0,0.01308 1.661617,4.644676 2.943809,8.137997 l -0.484095,1.334526 -2.485882,-5.115686 c -0.562594,-1.190607 -1.151355,-2.355047 -1.713949,-3.53257 l -1.269109,-2.616719 c -0.05233,-0.104669 -0.09159,-0.196254 -0.130836,-0.261672 -0.314008,-0.51026 -1.020522,-0.196254 -0.785016,0.431759 0.0131,0.05233 0.05233,0.117752 0.0785,0.18317 l 1.413028,2.525134 c 0.641096,1.138272 1.282192,2.289628 1.923288,3.427901 0.928934,1.68778505 1.884037,3.506404 2.878391,5.233437 l -0.353258,0.955104 c -1.870953,-2.51205 -4.958681,-6.607216 -5.691362,-7.588485 -0.117753,-0.157004 -0.353259,-0.523344 -0.497179,-0.65418 -0.183168,-0.183171 -0.54951,-0.14392 -0.628009,0.157003 -0.104669,0.353257 1.60928,2.158794 1.936369,2.551301 1.543865,1.88403705 3.23165,3.820411 4.814763,5.717529 l -0.340172,0.928936 c -1.975623,-1.975622 -7.339897,-7.169809 -7.889407,-7.693153 l -2.132626,-2.080292 c -0.24859,-0.209336 -0.65418,-0.209336 -0.771933,0.157004 -0.14392,0.418675 0.968187,1.216774 1.282192,1.49153 1.020519,0.889684 7.261395,6.358627 9.472523,8.242664 l -0.261673,0.719595 c -1.373778,-0.928933 -3.820409,-2.512047 -4.383003,-2.878389 -0.889685,-0.588761 -1.74012,-1.151355 -2.629802,-1.740117 -0.457928,-0.300923 -0.876602,-0.58876095 -1.334527,-0.88968495 -0.274756,-0.170085 -1.151355,-0.955101 -1.334526,-0.274754 -0.117753,0.418674 0.902766,0.85043195 1.177522,1.00743595 0.758849,0.431757 6.201625,3.650321 8.452001,4.919429 l -0.287837,0.771933 c -0.09159,-0.03925 -0.183171,-0.06542 -0.274757,-0.117753 l -4.474588,-2.027957 c -0.588762,-0.26167 -1.177523,-0.523343 -1.766285,-0.798097 l -5.364273,-2.446632 c -0.758849,-0.340174 -1.504614,-0.85043395 -1.687785,-0.196254 -0.130837,0.457925 0.366342,0.601845 0.614929,0.69343 l 4.566173,1.753201 c 1.5962,0.562594 3.754994,1.478447 5.403525,2.093373 l 2.956893,1.125191 -0.261673,0.706514 -6.502545,-1.543865 c -0.261699,-0.05234 -0.484118,-0.157008 -0.745791,-0.20934 l -2.28963,-0.523346 c -0.523344,-0.117752 -1.256025,-0.510259 -1.399942,0.03925 -0.130837,0.536427 0.562594,0.484095 1.269108,0.641096 l 9.629524,1.727036 -0.314005,0.837351 -2.590552,-0.209338 c -3.506403,-0.314007 -7.287561,-0.497175 -10.767798,-0.83735 -1.256025,-0.117753 -1.072853,0.876602 -0.196255,0.902769 l 10.898635,0.196252 c 0.693431,0.02617 1.321443,0.03925 2.00179,0.05233 0.222419,0 0.418674,0 0.614929,0.0131 l -0.300924,0.811184 c -2.65597,0.300921 -6.672633,0.7850165 -7.182893,0.8504345 -0.654179,0.0785 -2.930726,0.183169 -3.048476,0.575678 -0.235505,0.758849 0.981268,0.392507 1.321443,0.327088 0.536427,-0.09158 1.05977,-0.183171 1.609281,-0.274754 l 6.450211,-1.1251885 0.785016,-0.14392 -0.405591,1.0990215 -8.687506,2.433548 c -0.641096,0.170087 -1.269109,0.353258 -1.897121,0.523343 -0.418674,0.117755 -1.661618,0.327091 -1.7532,0.745765 -0.0785,0.366342 0.235502,0.601845 0.54951,0.54951 l 10.584627,-3.650321 c 0.209336,-0.06542 0.628012,-0.209338 1.125188,-0.379423 l -0.497176,1.360694 c -1.517697,0.771932 -3.035395,1.543862 -4.526925,2.276544 -0.601845,0.300924 -2.171875,0.968187 -2.682134,1.426112 -0.261673,0.248589 0.09158,0.680347 0.366339,0.562594 0.65418,-0.261673 2.080292,-1.164439 2.669053,-1.504611 l 4.016664,-2.341965 -0.693431,1.897121 c -2.224212,1.622366 -4.540006,3.323232 -5.194186,3.794241 -0.549511,0.392509 -1.085937,0.785016 -1.622367,1.177523 -0.183168,0.130836 -0.680347,0.457928 -0.77193,0.601848 -0.157003,0.222419 -0.05233,0.601845 0.274754,0.680347 0.379423,0.104666 1.216774,-0.745766 1.570032,-1.033606 0.536427,-0.431757 3.035393,-2.459715 5.45586,-4.435337 l -1.30836,3.584903 -0.614931,0.667266 c -0.222419,0.248586 -1.112105,1.007435 -0.392507,1.216774 0.104669,0.03925 0.235506,-0.0131 0.36634,-0.117753 L -78.60849,31.77456 c -0.588762,1.583116 -0.457925,3.270899 0.196254,4.697011 0.667263,1.426112 1.870954,2.590551 3.467153,3.179313 l 3.283982,1.190609 h -7.222157 L -95.224666,-11.21814 v 0 l -0.02617,-0.0785 c -0.418675,-1.321442 -0.248588,-2.682137 0.340173,-3.833492 0.601845,-1.12519 1.622365,-2.041041 2.930726,-2.459716 h 0.01308 l 34.802364,-10.92481 c 1.321443,-0.418675 2.695221,-0.248588 3.833492,0.340174 1.138272,0.601846 2.054125,1.622367 2.459715,2.94381 l 0.340175,1.059772 z"
       id="path1527" />
    <path
       inkscape:export-ydpi="23.725451"
       inkscape:export-xdpi="23.725451"
       style="clip-rule:evenodd;fill:#ffffff;fill-opacity:1;fill-rule:evenodd;stroke-width:0.0130836;image-rendering:optimizeQuality;shape-rendering:geometricPrecision;text-rendering:geometricPrecision"
       class="fil1"
       d="M 8.5937327,20.300236 -14.551147,-1.6147845 -30.029046,40.841478 h 0.562597 c 0.248592,-1.033606 0.745768,-2.119543 0.942015,-2.341965 0.06542,0.641096 0.222427,1.517698 0.26168,2.341965 h 3.454067 c -0.248592,-1.177526 -0.327094,-2.590552 -0.340172,-2.891475 0.183168,0.379423 1.216774,1.7532 1.648526,2.891475 h 19.5599757 l 12.73033,-13.449935 c 0.94203,-0.994355 1.3999503,-2.302711 1.3607003,-3.584903 -0.0262,-1.295279 -0.5495103,-2.564387 -1.5569403,-3.506404 z m -33.0099127,11.278055 2.485882,0.484095 c 0.811181,0.02617 1.936374,0 1.570035,-1.007438 -0.798103,-0.484093 -3.048482,0.327091 -4.055917,0.523343 z m 10.898633,2.14571 c 0.37943,0.261673 3.6895697,1.583116 4.1867497,1.020522 1.15136,-1.295276 -3.4540697,-1.112108 -4.1867497,-1.020522 z m -7.43148,1.099023 c 0.327093,-1.504613 -2.525139,-1.857869 -3.76808,-1.988706 0.418682,0.392507 1.125194,0.863516 1.700869,1.229858 0.641099,0.392506 1.099029,1.046686 2.067211,0.758848 z m -2.184959,2.682137 c 0.274752,-0.928936 -0.366347,-1.308359 -0.955103,-1.844786 -0.562597,-0.497178 -1.112105,-1.033605 -1.674702,-1.439196 0.117756,0.667261 0.549508,1.504612 0.876602,2.054122 0.418674,0.693433 0.680344,1.360694 1.753203,1.22986 z m 5.089519,-16.210573 c 0.18316,-0.09159 3.70265,-2.276544 2.99614,-3.048477 -0.10467,-0.03925 -0.0262,-0.196254 -0.5626,-0.117752 -0.88968,0.117752 -2.17187,2.472798 -2.43354,3.166229 z m -6.895056,8.739841 c 0.601842,-0.157004 4.396089,-1.229858 3.558733,-2.158794 -0.641088,-0.706514 -2.616719,1.020522 -3.153138,1.609283 -0.03926,0.03925 -0.143925,0.14392 -0.170092,0.183171 -0.170091,0.235503 -0.0785,0.104667 -0.235503,0.36634 z m -2.224212,4.670843 c -0.0785,0.667263 -0.785014,4.814763 0.549508,4.055914 0.968192,-0.536427 -0.117745,-3.440986 -0.549508,-4.055914 z m 12.992008,-7.588486 c 0.65418,0 5.1287697,-0.444841 3.97741,-1.687782 -0.58876,-0.628013 -3.49332,1.334526 -3.97741,1.687782 z m -8.203412,9.184683 c 0.222416,0.457927 2.564384,3.728825 3.506398,2.83914 0.353261,-0.340172 0.170093,-0.706514 -0.274749,-1.085937 z m 1.635447,-3.467151 c 0.431763,0.431758 1.399945,0.680347 2.014876,0.942017 0.601839,0.24859 1.831709,0.981271 2.368129,0.39251 0.56259,-0.628013 -0.51026,-1.099024 -1.37378,-1.229858 -1.059772,-0.157003 -1.923285,-0.117752 -3.009225,-0.104669 z m -0.248592,-3.08773 c 1.25603,0.09159 5.351197,-0.484092 4.317587,-1.687782 -0.65417,-0.758849 -3.611064,1.334527 -4.317587,1.687782 z m -2.014865,-3.179312 c 0.745757,-0.431758 1.34761,-0.889683 2.014865,-1.386861 0.379429,-0.274754 1.897129,-1.151356 1.190607,-1.831703 -0.968182,-0.928936 -2.878389,2.355046 -3.205472,3.218564 z m 3.794236,0.196254 c 0.850437,-0.274756 2.158796,-1.059772 2.878396,-1.478446 0.60185,-0.340172 2.64288,-1.112105 1.74011,-2.093376 -1.1906,-1.308359 -4.304499,2.826057 -4.618506,3.571822 z m 5.835286,11.644398 c 0.15701,-1.439194 -0.75885,-1.583114 -2.00179,-1.884037 -1.13828,-0.274754 -2.30271,-0.418675 -3.519489,-0.457925 0.248592,0.314004 -0.01307,0.06542 0.327092,0.314004 l 1.033607,0.588764 c 1.71395,0.955101 2.98306,2.067206 4.16058,1.439194 z M -23.474166,23.217876 c 0.510262,-0.353256 4.644681,-3.754991 3.362484,-4.984848 -0.981271,-0.928936 -1.687782,1.072853 -2.001787,1.792451 -0.444839,1.007438 -1.046684,2.158794 -1.360697,3.192397 z m 5.416619,7.523067 c 1.05977,0.54951 5.67827,1.674699 6.04461,0.248586 0.35326,-1.347607 -1.70087,-0.915849 -2.5513,-0.798097 -1.05977,0.143918 -2.44663,0.287838 -3.49331,0.549511 z"
       id="path1529" />
    <path
       inkscape:export-ydpi="23.725451"
       inkscape:export-xdpi="23.725451"
       style="clip-rule:evenodd;fill:#ffffff;fill-opacity:1;fill-rule:evenodd;stroke-width:0.0130836;image-rendering:optimizeQuality;shape-rendering:geometricPrecision;text-rendering:geometricPrecision"
       class="fil1"
       d="M -17.665047,-10.995719 -51.83947,-23.451304 v 0 l -0.104669,-0.03925 c -1.295276,-0.47101 -2.669054,-0.366342 -3.833493,0.170086 -1.164442,0.549512 -2.119542,1.530782 -2.590551,2.812975 l -0.0131,0.01308 -19.180548,52.64838 c -0.471009,1.295276 -0.379426,2.669053 0.170085,3.846576 0.549513,1.16444 1.530781,2.119543 2.826057,2.590552 l 6.162373,2.250379 h 37.18365 l 16.550749,-45.4000695 c 0.47101,-1.295275 0.37942,-2.669053 -0.17008,-3.846577 -0.54952,-1.164439 -1.53079,-2.1195415 -2.82606,-2.5905505 z m -25.683108,32.434227 c 0.117761,-2.080292 2.616732,-5.154936 4.383016,-6.581048 2.629805,-2.132626 4.683927,-1.256024 5.652119,-2.760638 1.530779,-2.3942975 -2.302713,-3.4540675 -6.227797,1.308359 -1.242941,1.517698 -2.956893,3.833492 -3.349405,6.319374 -0.26167,-0.340172 -0.104669,0.03925 -0.196257,-0.444841 -0.130837,-0.614929 0.183168,-3.087727 0.340177,-3.663405 1.517706,-5.7698675 6.986646,-8.8052595 12.521007,-10.2052045 1.151353,-0.300921 2.669053,-0.235503 3.558736,-0.994352 2.027962,-1.740117 -0.667266,-5.03718195 -8.059492,-1.072853 -2.014876,1.085937 -3.584903,2.577467 -4.854011,4.252166 -1.962539,2.5905515 -3.427916,6.4240445 -3.624165,9.9304475 -0.05233,0.771933 0,1.478447 0.05233,2.237296 0.05233,0.824264 -0.130839,0.876599 -0.196263,1.674699 z m -3.5326,-0.667264 c -0.457933,-3.244731 -3.467188,-7.666984 -6.253991,-9.64261 -3.702656,-2.6428835 -9.995866,-2.9568905 -12.45558,-0.536426 -0.811184,0.811183 -0.94202,2.250379 0.104666,2.734471 1.426112,0.65418 5.076436,-1.870953 10.636964,-0.693431 4.618506,0.981271 6.73807,4.121333 7.967941,8.137996 z m 1.426125,-0.353258 c -0.03925,-5.298855 -0.614934,-14.3003675 -3.284016,-18.9450405 -0.562602,-0.98127095 -2.616732,-3.872744 -4.330682,-2.485882 -2.459717,2.00179005 2.472799,4.304501 4.919446,9.080011 2.145739,4.1736675 2.642918,7.1305605 2.695252,12.3509115 z m -1.570048,1.766287 c -1.465382,-0.771933 -1.897137,-1.321443 -3.898942,-1.897121 -6.175455,-1.779368 -12.298577,2.420464 -12.442497,4.435338 -0.0785,1.007435 0.601845,1.465363 1.622367,1.099021 1.164439,-0.418674 1.570029,-2.328879 5.037182,-3.885827 3.911994,-1.779368 6.188541,-1.020519 9.68189,0.248589 z m -0.811199,-6.14929 c -0.667261,-2.472798 -3.166242,-7.7062355 -4.867111,-9.5510225 -2.250379,-2.43355 -6.777302,-1.609283 0.392509,4.3437525 0.811181,0.667264 1.766284,1.5962 2.407383,2.302711 1.321456,1.45228 1.059781,1.386864 1.910218,2.68214 0.0131,0.02617 0.05233,0.0785 0.0785,0.104666 0.0131,0.02617 0.03925,0.0785 0.0785,0.117753 z m 4.278386,6.908139 c 1.779384,0.732681 3.061573,0.209335 6.777318,2.577467 1.046684,0.667264 1.844784,1.347611 2.669051,2.054125 0.366339,0.314005 2.027954,2.315795 2.865302,0.942017 1.16444,-1.884037 -3.061559,-3.911994 -4.50075,-4.540007 -1.439198,-0.614928 -6.280129,-1.805535 -7.810921,-1.033602 z m -0.366344,-8.438917 c 0.876612,-2.760639 0.824277,-4.095166 2.669071,-7.1828965 1.844784,-3.061559 4.553093,-4.95868 3.205483,-6.240872 -2.0803,-1.97562295 -6.502569,7.823988 -5.874554,13.4237685 z m 3.074664,5.848365 c 1.910199,-0.771932 3.440978,-0.785016 5.089515,0.327089 1.34761,0.915852 1.740114,2.786806 4.055917,2.420466 0.824267,-1.112107 0.785013,-1.766286 -0.104669,-2.708304 -0.471017,-0.510262 -1.687783,-1.269111 -2.629805,-1.583116 -1.190609,-0.392509 -2.577465,-0.418674 -3.781161,-0.06542 -0.942014,0.274757 -2.054119,0.824267 -2.629797,1.609283 z m 0.536422,-1.792454 c 2.184966,-1.334524 3.480242,-2.315795 6.999729,-2.224209 4.068996,0.104667 6.777294,2.237293 6.646461,-0.7981 -1.674694,-1.517697 -5.547442,-1.072853 -7.850156,-0.431757 -2.054122,0.575677 -4.997934,2.328878 -5.796034,3.454066 z m -6.149327,4.422257 c -2.001816,-0.484095 -4.199871,0.183168 -5.639067,1.099021 -4.500756,2.865307 -2.839141,6.424043 -0.614929,3.231647 2.956891,-4.26525 2.695221,-2.852224 6.253996,-4.330668 z m -2.44666,-4.00358 c -0.575681,-1.046689 -2.446642,-2.276547 -4.016674,-2.826057 -1.439196,-0.51026 -4.893263,-0.994354 -5.364271,0.562594 -0.366342,1.190607 0.758846,1.687782 1.818619,1.426112 0.902769,-0.222422 1.373777,-0.641096 2.5513,-0.771932 2.237296,-0.24859 3.676489,0.706514 5.011026,1.609283 z m 13.188333,3.310149 c -0.0131,-0.7981 -0.183168,-0.889685 -0.981268,-1.046689 -1.386866,-0.287838 -3.558744,-0.117753 -4.801685,0.444844 1.216774,0.02617 1.897126,-0.03925 3.113903,0.196252 1.099015,0.209338 1.648526,0.719598 2.66905,0.405593 z m -18.421781,-8.098745 c -0.824264,0.824267 1.844789,1.20369 4.697013,3.375567 -0.549513,-1.229857 -3.990499,-4.095165 -4.697013,-3.375567 z m 9.354825,-0.431758 c 0.183174,-2.14571 -0.09159,-2.760638 0.588764,-5.1941895 0.0785,-0.26167 0.196258,-0.588761 0.196258,-0.850431 -0.0131,-0.575678 -0.0785,-0.471011 -0.327097,-0.745765 -0.680349,0.196254 -0.601847,0.340172 -0.745773,1.229857 -0.09158,0.641096 -0.143915,1.321443 -0.157001,1.9887065 -0.01307,0.994355 0.471017,3.283982 0.444849,3.571822 z m 4.042858,4.225999 c 1.779362,-2.184958 4.435334,-2.69522 4.723174,-3.20548 1.112105,-1.884037 -2.852224,-0.26167 -4.723174,3.20548 z m -7.130622,3.08773 c -0.353264,-0.732681 -3.166247,-3.414818 -4.801698,-2.969977 0,0.876602 0.09159,0.837351 0.889685,1.085938 2.969988,0.942019 2.865321,1.399944 3.912013,1.884039 z M -49.314334,9.6109395 c -0.287841,0.9420175 1.05978,2.2503765 1.805556,4.0951655 0.222424,0.536427 0.314018,1.125188 0.536435,1.556946 0.06542,-1.465361 -0.955114,-4.932514 -1.635461,-5.5474425 -0.353267,-0.327091 -0.49719,-0.183171 -0.70653,-0.104669 z m 7.889478,4.9717645 c 0.03926,-0.02617 0.09159,-0.130834 0.104669,-0.09158 0.02617,0.02617 0.09159,-0.0785 0.104669,-0.104669 0.248592,-0.28784 0.06542,-0.05233 0.248592,-0.327091 1.71395,-2.538217 3.506398,-3.388651 2.786809,-4.055915 -0.7981,-0.7588495 -3.009234,3.323233 -3.244739,4.579258 z"
       id="path1531" />
    <g
       inkscape:export-ydpi="23.725451"
       inkscape:export-xdpi="23.725451"
       transform="matrix(0.02278301,0,0,0.02278301,-294.73294,-152.7364)"
       id="g1569"
       style="clip-rule:evenodd;fill:#ffffff;fill-opacity:1;fill-rule:evenodd;image-rendering:optimizeQuality;shape-rendering:geometricPrecision;text-rendering:geometricPrecision">
      <path
         style="fill:#ffffff;fill-opacity:1"
         class="fil1"
         d="m 15429.384,7680.6235 v -1333 h -339.001 v 500 h -436 v -500 h -339 v 1333 h 339 v -534 h 436 v 534 z m 1438,0 -529,-1333 h -270 l -533,1333 h 366 l 70,-194 h 463 l 64,194 z m -525,-464 h -278 l 140,-455 z m 1754,464 v -1333 h -326 l 14,839 -519,-839 h -292 v 1333 h 326 l -14,-809 515,809 z m 1440,0 -529,-1333 h -270 l -533,1333 h 365 l 70,-194 h 464 l 64,194 z m -525,-464 h -278 l 140,-455 z m 1612,60 c 0,-153 -74,-261 -220,-309 100,-58 154,-154 154,-270 0,-104 -44,-210 -126,-276 -96,-78 -264,-74 -380,-74 h -409 v 1333 h 421 c 164,0 312,2 438,-116 80,-76 122,-178 122,-288 z m -392,-527 c 0,88 -68,106 -144,106 h -119 v -208 h 119 c 76,0 144,12 144,102 z m 66,505 c 0,98 -86,126 -170,126 h -159 v -242 h 159 c 84,0 170,14 170,116 z m 837,426 v -1333 h -339 v 1333 z m 1386,0 v -230 h -405 v -1103 h -248 v 1333 z m 404,0 v -1333 h -248 v 1333 z m 1344,-1333 h -258 l -359,1013 -360,-1013 h -259 l 519,1333 h 202 z m 827,1333 v -230 h -469 v -316 h 449 v -231 h -449 v -324 h 469 v -232 h -717 v 1333 z"
         id="path1533" />
    </g>
  </g>
</svg>
