<?xml version="1.0" encoding="UTF-8" standalone="no"?>
<svg
   xmlns:dc="http://purl.org/dc/elements/1.1/"
   xmlns:cc="http://creativecommons.org/ns#"
   xmlns:rdf="http://www.w3.org/1999/02/22-rdf-syntax-ns#"
   xmlns:svg="http://www.w3.org/2000/svg"
   xmlns="http://www.w3.org/2000/svg"
   xmlns:sodipodi="http://sodipodi.sourceforge.net/DTD/sodipodi-0.dtd"
   xmlns:inkscape="http://www.inkscape.org/namespaces/inkscape"
   inkscape:version="1.0 (4035a4fb49, 2020-05-01)"
   sodipodi:docname="navbar.svg"
   id="svg841"
   version="1.1"
   width="1493.8718"
   height="305.51089"
   viewBox="0 0 395.26609 80.850031">
  <metadata
     id="metadata847">
    <rdf:RDF>
      <cc:Work
         rdf:about="">
        <dc:format>image/svg+xml</dc:format>
        <dc:type
           rdf:resource="http://purl.org/dc/dcmitype/StillImage" />
        <dc:title></dc:title>
      </cc:Work>
    </rdf:RDF>
  </metadata>
  <defs
     id="defs845" />
  <sodipodi:namedview
     inkscape:current-layer="svg841"
     inkscape:window-maximized="0"
     inkscape:window-y="105"
     inkscape:window-x="253"
     inkscape:cy="173.90508"
     inkscape:cx="747.00477"
     inkscape:zoom="0.55689424"
     fit-margin-right="0"
     fit-margin-bottom="0"
     fit-margin-left="0"
     lock-margins="false"
     fit-margin-top="42.2678"
     units="px"
     inkscape:pagecheckerboard="false"
     showgrid="false"
     id="namedview843"
     inkscape:window-height="641"
     inkscape:window-width="1675"
     inkscape:pageshadow="2"
     inkscape:pageopacity="0"
     guidetolerance="10"
     gridtolerance="10"
     objecttolerance="10"
     borderopacity="1"
     bordercolor="#666666"
     pagecolor="#535353" />
  <path
     id="path833"
     text-rendering="geometricPrecision"
     shape-rendering="geometricPrecision"
     image-rendering="optimizeQuality"
     stroke-width="0"
     fill-rule="evenodd"
     fill="#ffffff"
     clip-rule="evenodd"
     d="m 22.201262,29.72203 -19.9000001,12.6 a 5,5 0 0 0 -1.49999996,7 l 20.00000006,31.5 h 17.4 l -3,-9.8 c -0.1,1.3 0,2.6 0.2,4 l 0.7,2.6 -1,0.3 -0.4,-1.4 c -0.4,-2.3 -0.3,-4.6 0,-6.8 l -0.7,-2.5 a 34,34 0 0 0 -2.2,9.2 c -0.2,2.1 0,2.4 0.1,4.3 -0.3,0 -1.2,0.2 -1.5,0.1 0,-5.2 1,-9.1 3.3,-13.6 l 0.2,-0.4 -0.2,-0.6 -2,3.2 c -0.5,1.2 -1.3,3.4 -1.4,5 l -0.9,-0.2 a 16.5,16.5 0 0 1 1.9,-4.9 l 2.3,-3.3 -0.3,-1 -0.9,1 -1,1 -1.6,2.2 a 17,17 0 0 0 -2.4,5.5 l -1.1,-0.3 c 0.5,-2 1.8,-3.9 2.9,-5.4 l 0.5,-0.6 1,-1 c 0.4,-0.6 1.5,-1.6 2.1,-2 l 0.5,-0.5 -1.6,-5 a 21.4,21.4 0 0 0 -8.6,-2.3 h -1.6 l -0.1,-1.1 c 3.8,0 5.6,0.7 8.7,2.3 l 1.5,0.9 -0.2,-0.7 -0.1,-0.1 c -2.3,-1.6 -5,-3 -8,-3.1 v -0.7 c 2.4,0 5.3,1.6 7.1,3 l 1,0.7 -0.4,-1.2 a 33.7,33.7 0 0 0 -4.1,-3.7 c -2,-1.4 -3.9,-2.5 -6.3,-3.4 l -1,-0.3 0.4,-1.5 c 2.6,0.5 7.2,4.3 8.8,5.9 l 2,2.4 -0.9,-2.8 -0.1,-0.1 c -0.8,-0.8 -1.4,-1.4 -2.3,-2 l -0.4,-0.3 0.3,-0.6 0.8,0.6 0.7,0.5 0.3,0.4 0.3,0.3 v 0.1 l -0.7,-2.5 -0.8,-0.9 c -1,-1 -2,-1.7 -3,-2.6 l -2,-1.2 0.9,-1.4 c 0.6,0.2 3,2.4 3.8,3.3 l 0.1,0.2 -0.7,-2.3 h -0.5 l 0.1,-0.1 0.3,-0.2 z m -2.2,39.6 h -0.2 v 0.4 h 0.2 v 0.1 l 0.1,-0.2 h 0.2 l -0.1,-0.2 v -0.2 z m -2.1,-5 -0.3,-0.1 0.1,0.3 -0.2,0.2 h 0.4 l 0.2,0.2 c 0,-0.3 0,-0.3 0.3,-0.3 l -0.3,-0.2 v -0.2 z m 5.7,3.2 h -0.3 l 0.2,0.2 -0.1,0.3 0.3,-0.1 0.2,0.2 v -0.4 l 0.2,-0.1 h -0.3 v -0.4 z m -6.4,-9 -0.4,0.2 0.3,0.2 v 0.4 l 0.2,-0.3 0.4,0.2 -0.2,-0.4 0.3,-0.3 h -0.4 c 0,0 0,-0.2 -0.2,-0.2 z m 7.6,-9.3 -0.3,0.4 0.3,-0.1 c 0.5,-0.1 0.4,0 0.6,0.4 v -0.5 c 0.2,-0.1 0.4,0 0.6,-0.2 l -0.5,-0.2 v -0.6 l -0.5,0.4 -0.4,-0.2 c 0,0.2 0.3,0.4 0.2,0.6 z m 0.7,22.9 h -0.5 l 0.3,0.3 v 0.4 l 0.3,-0.3 0.4,0.1 -0.2,-0.4 c 0.2,0 0.2,-0.2 0.3,-0.3 l -0.4,0.1 -0.2,-0.3 h -0.1 z m 3.9,3 -0.5,0.2 0.6,0.1 v 0.3 l 0.1,0.2 0.2,-0.4 h 0.6 l -0.4,-0.3 0.2,-0.5 -0.4,0.2 -0.5,-0.3 z m -7.8,-20 0.5,0.2 v 0.6 l 0.4,-0.4 0.5,0.2 -0.3,-0.5 0.4,-0.4 h -0.6 l -0.2,-0.5 -0.1,0.6 -0.6,0.1 z m -3.2,13.1 h -0.4 c 0,0.2 0.3,0.3 0.4,0.4 l -0.2,0.6 0.6,-0.3 0.4,0.3 -0.1,-0.6 0.5,-0.3 h -0.6 l -0.2,-0.6 -0.1,0.2 c 0,0.2 0,0.2 -0.2,0.3 z m 2.1,-15 h -0.6 l 0.4,0.3 -0.2,0.7 0.6,-0.4 c 0.1,0.1 0.3,0.4 0.5,0.4 l -0.2,-0.6 0.5,-0.3 h -0.5 l -0.2,-0.7 z m 16.1,25.8 0.7,-0.3 c -0.2,0 -0.7,-0.2 -0.8,-0.4 l -0.1,-0.7 -0.4,0.7 -1,-0.1 0.6,0.6 -0.4,0.8 0.7,-0.3 c 0.3,0 0.4,0.4 0.7,0.6 z m -13.3,-8.4 -0.4,0.4 a 16.7,16.7 0 0 0 -1.8,3 l 1.4,0.6 c 0,-0.4 0.6,-1.4 0.8,-1.9 l 2.2,-3.3 a 32,32 0 0 1 6.5,-5.7 l 0.2,-0.2 c -0.4,-0.2 -3.4,2 -4.1,2.4 -1.4,1.1 -3.9,3.4 -4.8,4.7 z m -3.8,-6.2 -0.5,-0.2 c 0,0.3 0.3,0.5 0.3,0.8 l -0.2,0.2 -0.3,0.3 0.8,-0.1 0.4,0.7 v -0.9 l 0.5,-0.1 0.3,-0.1 -0.6,-0.3 c -0.1,-0.3 0.1,-0.6 0,-0.8 l -0.6,0.5 z m 2.5,-17 -0.7,-0.3 0.3,0.7 -0.5,0.6 0.8,-0.2 0.4,0.7 0.1,-0.8 0.8,-0.1 -0.7,-0.4 v -0.8 z m -5.6,12.9 0.1,0.7 2.2,-0.6 2.3,-0.2 c -0.1,-0.1 0,0 -0.1,0 a 15,15 0 0 0 -2.3,0 l -2.3,0.2 z m 7,-2 0.1,0.7 c 2.3,-0.3 3,-0.2 5.3,0.2 -0.3,-0.2 -2.2,-0.7 -2.4,-0.7 -1,-0.2 -2,-0.3 -3,-0.2 z m -5.1,-6.9 c 1,0 2.1,0.2 3,0.5 l 2.6,0.9 h 0.1 c 0.1,-0.2 0,-0.2 -0.1,-0.3 l -0.4,-0.2 a 14,14 0 0 0 -5,-1.5 z m 7.6,14.4 c 0.2,0.1 0.3,0.4 0.6,0.5 l 0.8,-0.7 c 1,-1 2.5,-1.7 3.8,-2.2 l 0.8,-0.3 h -0.3 l -1.4,0.4 a 13.8,13.8 0 0 0 -4.3,2.3 z m -5,2.2 0.7,0.4 c 0,-0.3 0.8,-1 1,-1.3 1,-1 2.7,-2.2 4,-2.9 v 0 a 15.2,15.2 0 0 0 -4.5,2.8 l -1.1,1.1 z m -1.7,-11.5 -1.1,0.4 h 0.2 l 1,0.4 v 1.1 h 0.1 l 0.6,-1 1.2,0.4 -0.7,-1 c 0,-0.3 0.5,-0.7 0.6,-1 l -1,0.4 -0.9,-1 v 1.4 z m 6.5,14.8 0.6,0.2 1,-2 c 0.7,-1 1.7,-2.2 2.6,-3.1 0.4,-0.3 0.3,-0.4 0.8,-0.7 l 0.3,-0.4 c 0.2,-0.1 0.4,-0.1 0.3,-0.3 -0.3,0 -2.7,2.2 -3.2,2.7 l -1.3,1.7 a 9,9 0 0 0 -1,1.9 z m 1.7,6.7 h 0.7 v -1.4 a 17,17 0 0 1 1.9,-6.7 l 0.5,-1 -0.6,1 -0.6,1 -0.9,2 c -0.4,1.2 -1.1,3.7 -1,5.1 z m -8.4,-10.5 0.6,0.4 2,-1.9 0.4,-0.3 c 0.9,-0.7 1.9,-1.3 3,-1.8 l 2.2,-1 a 18,18 0 0 0 -6.5,3 l -1.7,1.7 z m 15.2,11.9 0.6,-0.2 -0.6,-2.1 a 17.3,17.3 0 0 1 -0.3,-5 l 0.2,-2.3 a 19.1,19.1 0 0 0 0,9.6 z m -13.6,-15.5 c 0,0.3 0.4,0.7 0.6,1 l 1,-0.7 1.2,-0.6 c 2.3,-1.1 5,-1.7 7.7,-1.8 h 0.7 l -1.5,-0.2 a 21.3,21.3 0 0 0 -7.4,1.2 l -2.3,1 z m -6.3,-1.1 0.8,1.6 1.6,-0.9 1.8,-0.8 a 29,29 0 0 1 12.2,-1.5 h 1.3 c 0,-0.2 -0.7,-0.2 -1,-0.3 -5.8,-0.8 -11.3,-0.5 -16.6,2 z m 28.6,9.2 c 1.4,4 1.2,0.8 -0.2,-1.7 -0.2,-0.3 -1.3,-2.3 0.2,1.7 z m -2.2,3.5 v -0.1 a 5,5 0 0 1 -0.3,-1.9 c 0.1,0.7 0,1.3 0.3,2 z"
     class="fil1" />
  <path
     id="path835"
     text-rendering="geometricPrecision"
     shape-rendering="geometricPrecision"
     image-rendering="optimizeQuality"
     stroke-width="0"
     fill-rule="evenodd"
     fill="#ffffff"
     clip-rule="evenodd"
     d="m 66.701262,15.42203 h -0.2 l -0.1,-0.1 h -0.4 v -0.1 h -0.5 l -0.1,-0.1 h -2.3 v 0.1 h -0.2 v 0.1 h -0.2 l -0.1,0.1 h -0.3 v 0.1 h -0.3 v 0.1 h -0.2 v 0.1 h -0.2 v 0.1 h -0.2 v 0.1 h -0.1 v 0.1 h -0.2 v 0.2 h -0.1 v 0 l -0.1,0.1 h -0.1 v 0.1 h -0.1 l -0.1,0.1 -0.1,0.1 -0.1,0.1 -0.1,0.1 -0.1,0.1 -0.1,0.2 h -0.1 v 0.1 h -0.1 v 0.1 l -0.1,0.1 -0.1,0.1 -0.1,0.1 v 0.1 h -0.1 v 0.1 l -0.1,0.2 h -0.1 v 0.2 h -0.1 v 0.2 l -0.1,0.1 v 0.1 l -0.1,0.1 v 0.1 l -0.1,0.1 v 0.3 h -0.1 l -4.8,13.3 c 0,-0.2 0,-0.4 -0.3,-0.5 -0.6,-0.2 -0.5,1 -0.5,1.3 v 1.3 l -1.2,3.4 -0.8,-8.3 -0.1,-0.5 c -0.1,-0.6 -0.9,-0.6 -0.9,0.1 l 0.2,1.1 c 0,0.7 0.2,1.4 0.3,2 l 1,6.4 -0.7,2.1 a 165.1,165.1 0 0 1 -1.6,-5 c -0.1,-0.5 -0.7,-3 -1,-3 -0.3,-0.1 -0.6,0.1 -0.5,0.4 l 2.9,8 -0.5,1.4 -2.5,-5 c -0.5,-1.3 -1.1,-2.4 -1.7,-3.6 l -1.3,-2.6 v -0.3 c -0.4,-0.5 -1.1,-0.2 -0.9,0.4 l 0.1,0.2 1.4,2.5 2,3.5 2.8,5.2 -0.3,1 -5.7,-7.6 -0.5,-0.7 c -0.2,-0.2 -0.6,-0.1 -0.6,0.2 -0.2,0.3 1.6,2.1 1.9,2.5 1.5,2 3.2,3.8 4.8,5.7 l -0.3,1 -8,-7.7 -2,-2.1 c -0.3,-0.2 -0.7,-0.2 -0.8,0.2 -0.2,0.4 1,1.2 1.3,1.4 l 9.4,8.3 -0.2,0.7 -4.4,-2.9 -2.6,-1.7 -1.4,-0.9 c -0.3,-0.2 -1.1,-1 -1.3,-0.3 -0.1,0.4 0.9,0.9 1.2,1 l 8.4,5 -0.3,0.7 -0.3,-0.1 -4.4,-2 -1.8,-0.8 -5.4,-2.5 c -0.7,-0.3 -1.5,-0.8 -1.6,-0.2 -0.2,0.5 0.3,0.6 0.6,0.7 l 4.5,1.8 5.4,2 3,1.2 -0.3,0.7 -6.5,-1.4 -0.7,-0.2 -2.3,-0.6 c -0.5,0 -1.3,-0.5 -1.4,0 -0.1,0.6 0.6,0.6 1.3,0.7 l 9.6,1.7 -0.3,0.9 -2.6,-0.2 c -3.5,-0.3 -7.3,-0.5 -10.8,-0.9 -1.2,0 -1,1 -0.2,1 l 11,0.1 a 104.9,104.9 0 0 0 2.5,0 l -0.3,0.9 -7.1,0.9 c -0.7,0 -3,0.1 -3,0.5 -0.3,0.8 0.9,0.4 1.2,0.4 l 1.6,-0.3 6.5,-1.1 0.8,-0.2 -0.4,1.1 -8.7,2.4 -2,0.6 c -0.3,0 -1.6,0.3 -1.7,0.7 0,0.4 0.3,0.6 0.6,0.6 l 10.4,-3.8 1,-0.4 -0.4,1.4 -4.5,2.3 c -0.6,0.3 -2.2,1 -2.7,1.4 -0.3,0.2 0,0.7 0.4,0.6 l 2.6,-1.5 4,-2.4 -0.7,2 -5.1,3.7 -1.7,1.2 c -0.2,0.1 -0.7,0.4 -0.7,0.6 -0.2,0.2 -0.1,0.6 0.2,0.7 0.4,0 1.2,-0.8 1.6,-1 l 5.5,-4.5 -1.4,3.6 -0.6,0.6 c -0.2,0.3 -1,1 -0.4,1.3 0.1,0 0.3,0 0.4,-0.2 l -4,11 a 6.1,6.1 0 0 0 3.7,7.8 l 3.3,1.2 h -7.2 l -16.3,-52 v -0.2 a 5,5 0 0 1 3.3,-6.2 l 34.8,-11 a 5,5 0 0 1 6.3,3.3 l 0.3,1 z m 60.199998,44.8 -23.2,-21.9 -15.499998,42.5 h 0.6 a 8,8 0 0 1 1,-2.4 l 0.2,2.4 h 3.5 c -0.3,-1.2 -0.4,-2.6 -0.4,-2.9 0.2,0.4 1.2,1.7 1.7,2.9 h 19.499998 l 12.8,-13.6 a 5,5 0 0 0 1.3,-3.5 5,5 0 0 0 -1.4,-3.5 z m -32.999998,11.3 2.4,0.5 c 0.8,0 2,0 1.6,-1 -0.8,-0.5 -3,0.3 -4,0.5 z m 10.799998,2.2 c 0.4,0.2 3.7,1.6 4.2,1 1.2,-1.3 -3.4,-1.1 -4.2,-1 z m -7.399998,1 c 0.3,-1.4 -2.5,-1.8 -3.8,-2 l 1.7,1.3 c 0.7,0.4 1.1,1 2.1,0.8 z m -2.2,2.8 c 0.3,-1 -0.3,-1.4 -1,-1.9 l -1.5,-1.4 c 0.1,0.6 0.6,1.5 0.9,2 0.4,0.7 0.7,1.4 1.7,1.3 z m 5.099998,-16.3 c 0.2,0 3.7,-2.2 3,-3 0,0 0,-0.2 -0.5,-0.1 -1,0 -2.2,2.4 -2.5,3.1 z m -6.899998,8.8 c 0.6,-0.2 4.4,-1.2 3.6,-2.2 -0.7,-0.7 -2.6,1 -3.2,1.6 l -0.1,0.2 z m -2.2,4.7 c 0,0.6 -0.8,4.8 0.6,4 1,-0.5 -0.2,-3.4 -0.6,-4 z m 12.999998,-7.6 c 0.6,0 5.1,-0.5 4,-1.7 -0.6,-0.7 -3.5,1.3 -4,1.7 z m -8.199998,9.1 c 0.2,0.5 2.6,3.8 3.5,2.9 0.3,-0.4 0.2,-0.7 -0.3,-1.1 z m 1.6,-3.4 c 0.5,0.4 1.4,0.7 2,1 0.599998,0.2 1.899998,0.9 2.399998,0.3 0.6,-0.6 -0.5,-1 -1.4,-1.2 -0.999998,-0.2 -1.899998,-0.1 -2.999998,-0.1 z m -0.2,-3.1 c 1.2,0 5.299998,-0.5 4.299998,-1.7 -0.7,-0.8 -3.599998,1.3 -4.299998,1.7 z m -2,-3.2 2,-1.4 c 0.4,-0.2 1.9,-1.1 1.2,-1.8 -1,-1 -3,2.4 -3.2,3.2 z m 3.8,0.2 c 0.8,-0.3 2.099998,-1 2.799998,-1.5 0.6,-0.3 2.7,-1 1.8,-2 -1.2,-1.4 -4.299998,2.8 -4.599998,3.5 z m 5.799998,11.7 c 0.1,-1.5 -0.8,-1.6 -2,-2 l -3.499998,-0.4 0.3,0.3 0.999998,0.6 c 1.7,1 3,2 4.2,1.5 z m -10.099998,-15.2 c 0.5,-0.4 4.6,-3.8 3.4,-5 -1,-1 -1.7,1 -2,1.8 z m 5.399998,7.5 c 1,0.5 5.7,1.7 6,0.2 0.4,-1.3 -1.6,-0.9 -2.5,-0.8 -1,0.2 -2.4,0.3 -3.5,0.6 z"
     class="fil1" />
  <path
     id="path837"
     text-rendering="geometricPrecision"
     shape-rendering="geometricPrecision"
     image-rendering="optimizeQuality"
     stroke-width="0"
     fill-rule="evenodd"
     fill="#ffffff"
     clip-rule="evenodd"
     d="m 100.60126,29.02203 -34.199998,-12.5 a 5,5 0 0 0 -6.5,3 l -19.2,52.6 a 5,5 0 0 0 3,6.4 l 6.2,2.3 h 37.1 l 16.599998,-45.4 a 5,5 0 0 0 -3,-6.4 z m -25.699998,32.4 c 0.1,-2.1 2.6,-5.2 4.4,-6.6 2.6,-2.1 4.7,-1.3 5.7,-2.8 1.5,-2.4 -2.4,-3.4 -6.3,1.4 -1.2,1.5 -3,3.8 -3.3,6.3 -0.3,-0.4 -0.1,0 -0.2,-0.5 -0.2,-0.6 0.2,-3 0.3,-3.6 1.5,-5.8 7,-8.8 12.5,-10.2 1.2,-0.3 2.7,-0.3 3.6,-1 2,-1.8 -0.7,-5 -8,-1.1 a 15,15 0 0 0 -5,4.2 c -1.9,2.6 -3.3,6.5 -3.5,10 v 2.2 z m -3.5,-0.7 c -0.5,-3.2 -3.5,-7.6 -6.3,-9.6 -3.7,-2.7 -10,-3 -12.4,-0.6 -0.8,0.8 -1,2.3 0,2.8 1.5,0.6 5.2,-1.9 10.7,-0.7 4.6,1 6.8,4.1 8,8.1 z m 1.4,-0.3 c 0,-5.3 -0.6,-14.3 -3.3,-19 -0.5,-1 -2.6,-3.9 -4.3,-2.5 -2.5,2 2.5,4.3 5,9.1 2,4.2 2.6,7.1 2.6,12.4 z m -1.6,1.7 c -1.4,-0.7 -1.9,-1.3 -3.9,-1.9 -6.1,-1.7 -12.3,2.5 -12.4,4.5 0,1 0.6,1.4 1.6,1 1.2,-0.4 1.6,-2.3 5,-3.8 4,-1.8 6.2,-1 9.7,0.2 z m -0.8,-6.1 a 32,32 0 0 0 -4.8,-9.6 c -2.3,-2.4 -6.8,-1.6 0.4,4.4 0.8,0.6 1.7,1.6 2.4,2.3 1.3,1.4 1,1.4 1.9,2.7 z m 4.3,6.9 c 1.8,0.7 3,0.2 6.8,2.6 1,0.6 1.8,1.3 2.7,2 0.3,0.3 2,2.3 2.8,1 1.2,-2 -3,-4 -4.5,-4.6 -1.4,-0.6 -6.3,-1.8 -7.8,-1 z m -0.4,-8.4 c 1,-2.8 0.9,-4.1 2.7,-7.2 1.9,-3 4.6,-5 3.2,-6.3 -2,-2 -6.5,7.9 -5.9,13.5 z m 3.1,5.8 c 2,-0.8 3.5,-0.8 5.1,0.3 1.4,1 1.7,2.8 4,2.4 0.9,-1 0.8,-1.7 0,-2.7 a 6.5,6.5 0 0 0 -6.4,-1.6 c -1,0.3 -2.1,0.8 -2.7,1.6 z m 0.6,-1.8 c 2.1,-1.3 3.4,-2.3 7,-2.2 4,0 6.7,2.2 6.6,-0.8 -1.7,-1.5 -5.5,-1 -7.9,-0.4 -2,0.5 -5,2.3 -5.7,3.4 z m -6.2,4.4 c -2,-0.5 -4.2,0.2 -5.6,1.1 -4.5,2.9 -2.9,6.5 -0.7,3.3 3,-4.3 2.7,-2.9 6.3,-4.4 z m -2.4,-4 c -0.6,-1 -2.5,-2.3 -4,-2.8 -1.5,-0.5 -5,-1 -5.4,0.6 -0.4,1.2 0.7,1.6 1.8,1.4 0.9,-0.2 1.4,-0.7 2.5,-0.8 2.3,-0.2 3.7,0.7 5,1.6 z m 13.1,3.3 c 0,-0.8 -0.1,-0.9 -1,-1 a 9.2,9.2 0 0 0 -4.7,0.4 c 1.2,0 1.9,0 3,0.2 1.2,0.2 1.7,0.7 2.7,0.4 z m -18.4,-8 c -0.8,0.8 1.9,1.1 4.7,3.3 -0.5,-1.2 -4,-4 -4.7,-3.4 z m 9.4,-0.5 c 0.2,-2.1 -0.1,-2.8 0.6,-5.2 l 0.2,-0.8 c 0,-0.6 -0.1,-0.5 -0.4,-0.8 -0.6,0.2 -0.6,0.4 -0.7,1.2 l -0.2,2 c 0,1 0.5,3.3 0.5,3.6 z m 4,4.2 c 1.8,-2.2 4.5,-2.7 4.7,-3.2 1.2,-1.9 -2.8,-0.2 -4.7,3.2 z m -7.1,3.1 c -0.4,-0.7 -3.2,-3.4 -4.8,-3 0,1 0,0.9 0.9,1.1 3,1 2.8,1.4 3.9,2 z m -1.4,-11.4 c -0.3,0.9 1,2.2 1.8,4 l 0.5,1.6 c 0,-1.5 -1,-5 -1.6,-5.5 -0.4,-0.4 -0.5,-0.2 -0.7,-0.1 z m 7.8,5 0.1,-0.2 h 0.1 l 0.3,-0.4 c 1.7,-2.5 3.5,-3.4 2.8,-4 -0.8,-0.8 -3,3.3 -3.3,4.5 z"
     class="fil1" />
  <path
     id="path839"
     text-rendering="geometricPrecision"
     shape-rendering="geometricPrecision"
     image-rendering="optimizeQuality"
     fill-rule="evenodd"
     fill="#ffffff"
     clip-rule="evenodd"
     d="M 175.00126,55.625515 V 25.225516 h -7.7 v 11.399999 h -9.9 V 25.225516 h -7.7 v 30.399999 h 7.7 V 43.425516 h 10 v 12.2 z m 32.8,0 -12,-30.399999 h -6.2 l -12.1,30.399999 h 8.3 l 1.6,-4.4 h 10.6 l 1.4,4.4 z m -12,-10.6 h -6.3 l 3.2,-10.3 z m 40,10.6 V 25.225516 h -7.4 l 0.3,19.1 -11.8,-19 h -6.7 v 30.3 h 7.5 l -0.4,-18.4 11.8,18.4 z m 32.8,0 -12,-30.399999 h -6.2 l -12.1,30.399999 h 8.3 l 1.6,-4.4 h 10.6 l 1.4,4.4 z m -12,-10.6 h -6.3 l 3.2,-10.3 z m 36.8,1.4 c 0,-3.5 -1.7,-6 -5,-7 a 6.8,6.8 0 0 0 3.5,-6.2 c 0,-2.4 -1,-4.8 -2.9,-6.3 -2.2,-1.8 -6,-1.7 -8.6,-1.7 h -9.4 v 30.4 h 9.6 c 3.8,0 7.1,0 10,-2.6 a 9,9 0 0 0 2.8,-6.6 z m -9,-12 c 0,2 -1.5,2.4 -3.2,2.4 h -2.7 v -4.7 h 2.7 c 1.7,0 3.3,0.2 3.3,2.3 z m 1.6,11.5 c 0,2.2 -2,2.9 -4,2.9 h -3.5 v -5.6 h 3.6 c 2,0 3.9,0.4 3.9,2.7 z m 19,9.7 v -30.4 h -7.7 v 30.4 z m 31.6,0 v -5.2 h -9.2 v -25.2 h -5.7 v 30.4 z m 9.2,0 v -30.4 h -5.6 v 30.4 z m 30.6,-30.4 h -5.8 l -8.2,23.1 -8.2,-23 h -6 l 12,30.3 h 4.6 z m 18.9,30.4 v -5.2 h -10.7 v -7.2 h 10.2 v -5.3 h -10.2 v -7.4 h 10.7 v -5.3 h -16.4 v 30.4 z"
     class="fil1" />
</svg>
