<?xml version="1.0" encoding="UTF-8" standalone="no"?>
<!-- Generator: Adobe Illustrator 19.0.0, SVG Export Plug-In . SVG Version: 6.00 Build 0)  -->

<svg
   xmlns:dc="http://purl.org/dc/elements/1.1/"
   xmlns:cc="http://creativecommons.org/ns#"
   xmlns:rdf="http://www.w3.org/1999/02/22-rdf-syntax-ns#"
   xmlns:svg="http://www.w3.org/2000/svg"
   xmlns="http://www.w3.org/2000/svg"
   xmlns:sodipodi="http://sodipodi.sourceforge.net/DTD/sodipodi-0.dtd"
   xmlns:inkscape="http://www.inkscape.org/namespaces/inkscape"
   version="1.1"
   id="Layer_1"
   x="0px"
   y="0px"
   viewBox="0 0 149.99999 150.00002"
   xml:space="preserve"
   inkscape:version="0.91 r13725"
   sodipodi:docname="null.svg"
   width="149.99998"
   height="150.00002"><metadata
     id="metadata49"><rdf:RDF><cc:Work
         rdf:about=""><dc:format>image/svg+xml</dc:format><dc:type
           rdf:resource="http://purl.org/dc/dcmitype/StillImage" /><dc:title></dc:title></cc:Work></rdf:RDF></metadata><defs
     id="defs47" /><sodipodi:namedview
     pagecolor="#ffffff"
     bordercolor="#666666"
     borderopacity="1"
     objecttolerance="10"
     gridtolerance="10"
     guidetolerance="10"
     inkscape:pageopacity="0"
     inkscape:pageshadow="2"
     inkscape:window-width="1368"
     inkscape:window-height="849"
     id="namedview45"
     showgrid="false"
     fit-margin-top="0"
     fit-margin-left="0"
     fit-margin-right="0"
     fit-margin-bottom="0"
     inkscape:zoom="1.84375"
     inkscape:cx="-33.115955"
     inkscape:cy="73.876272"
     inkscape:window-x="-8"
     inkscape:window-y="-8"
     inkscape:window-maximized="1"
     inkscape:current-layer="Layer_1"
     showguides="false" /><g
     id="g15"
     transform="translate(-42.294174,-321.0357)" /><g
     id="g17"
     transform="translate(-42.294174,-321.0357)" /><g
     id="g19"
     transform="translate(-42.294174,-321.0357)" /><g
     id="g21"
     transform="translate(-42.294174,-321.0357)" /><g
     id="g23"
     transform="translate(-42.294174,-321.0357)" /><g
     id="g25"
     transform="translate(-42.294174,-321.0357)" /><g
     id="g27"
     transform="translate(-42.294174,-321.0357)" /><g
     id="g29"
     transform="translate(-42.294174,-321.0357)" /><g
     id="g31"
     transform="translate(-42.294174,-321.0357)" /><g
     id="g33"
     transform="translate(-42.294174,-321.0357)" /><g
     id="g35"
     transform="translate(-42.294174,-321.0357)" /><g
     id="g37"
     transform="translate(-42.294174,-321.0357)" /><g
     id="g39"
     transform="translate(-42.294174,-321.0357)" /><g
     id="g41"
     transform="translate(-42.294174,-321.0357)" /><g
     id="g43"
     transform="translate(-42.294174,-321.0357)" /><path
     id="path4190"
     style="fill:#ffffff;fill-opacity:1;stroke:#000000;stroke-width:2.97192049;stroke-miterlimit:4;stroke-dasharray:none;stroke-opacity:1"
     d="M 93.395604,41.064834 C 93.26576,39.711958 92.953133,39.392722 90.632177,38.242957 89.192831,37.529918 85.637505,36.34415 82.73146,35.607913 68.902941,32.104515 55.874645,35.343561 45.969062,44.747603 c -8.141546,7.729328 -12.690685,19.226263 -11.987471,30.29566 0.333521,5.250349 1.374107,9.164171 4.194792,15.777672 l 2.209812,5.18121 26.577914,-26.705928 C 92.468501,43.668989 93.536111,42.528676 93.395604,41.064834 Z M 80.932176,114.77275 c 12.839555,-1.862 24.591544,-10.31157 30.117534,-21.654226 2.5546,-5.243586 3.14845,-8.242241 3.12115,-15.760197 -0.0299,-8.201795 -1.22233,-14.394855 -3.85868,-20.039029 L 108.52074,53.484 95.214647,66.708296 C 80.421286,81.41072 62.908944,99.216674 58.574396,103.96285 c -1.821876,1.99488 -2.829035,3.48692 -2.829035,4.19101 0,1.30819 1.572292,2.53126 5.04231,3.92241 7.134228,2.86016 13.312875,3.68721 20.144505,2.69648 z M 4.3669757,146.75622 c -1.0458527,-0.88279 -1.8865045,-2.33113 -2.2930155,-3.95061 -1.0553708,-4.20439 0.1438986,-6.03923 11.6264598,-17.78779 5.563899,-5.6928 10.11619,-10.53685 10.11619,-10.76454 0,-0.22766 -1.372371,-2.84857 -3.049701,-5.82417 C 17.226131,102.14774 13.648438,91.902559 12.319066,84.237672 9.9653244,70.666437 13.915362,52.393284 21.739359,40.658736 25.042008,35.705363 33.268029,27.175423 38.347503,23.436987 53.720941,12.12229 75.863094,8.8514684 95.073879,15.057411 c 2.459079,0.794387 7.844761,3.203674 11.968201,5.353976 l 7.49715,3.909623 5.07373,-5.45883 c 6.25046,-6.724875 14.89377,-14.5026636 17.72891,-15.9535836 1.16517,-0.59628 2.82462,-1.08417 3.68765,-1.08417 4.04744,0 8.22838,5.63631 6.8597,9.2475026 -0.92033,2.428244 -5.72028,8.15681 -14.19273,16.938505 l -7.55019,7.825766 3.84561,8.093479 c 4.53754,9.549686 6.36575,14.764687 7.536,21.496415 1.81326,10.430591 0.58666,21.144427 -3.67193,32.072994 -10.05794,25.811082 -31.73395,40.559472 -59.611089,40.559472 -11.829809,0 -20.664462,-2.39617 -32.207405,-8.73545 -3.042351,-1.67083 -5.794197,-3.03786 -6.115219,-3.03786 -0.321029,0 -4.999462,4.38112 -10.396547,9.73583 -5.508721,5.46549 -10.844949,10.26067 -12.165859,10.93237 -3.289215,1.67262 -6.8706959,1.59407 -8.9928853,-0.19722 z" /></svg>