<?xml version="1.0" encoding="UTF-8" standalone="no"?>
<svg
   xmlns:dc="http://purl.org/dc/elements/1.1/"
   xmlns:cc="http://creativecommons.org/ns#"
   xmlns:rdf="http://www.w3.org/1999/02/22-rdf-syntax-ns#"
   xmlns:svg="http://www.w3.org/2000/svg"
   xmlns="http://www.w3.org/2000/svg"
   xmlns:sodipodi="http://sodipodi.sourceforge.net/DTD/sodipodi-0.dtd"
   xmlns:inkscape="http://www.inkscape.org/namespaces/inkscape"
   height="119.99983pt"
   viewBox="0 -8 119.99998 119.99983"
   width="119.99991pt"
   id="svg2"
   version="1.1"
   inkscape:version="0.91 r13725"
   sodipodi:docname="pink.svg">
  <metadata
     id="metadata12">
    <rdf:RDF>
      <cc:Work
         rdf:about="">
        <dc:format>image/svg+xml</dc:format>
        <dc:type
           rdf:resource="http://purl.org/dc/dcmitype/StillImage" />
        <dc:title />
      </cc:Work>
    </rdf:RDF>
  </metadata>
  <defs
     id="defs10" />
  <sodipodi:namedview
     pagecolor="#ffffff"
     bordercolor="#666666"
     borderopacity="1"
     objecttolerance="10"
     gridtolerance="10"
     guidetolerance="10"
     inkscape:pageopacity="0"
     inkscape:pageshadow="2"
     inkscape:window-width="1368"
     inkscape:window-height="849"
     id="namedview8"
     showgrid="false"
     fit-margin-top="0"
     fit-margin-left="0"
     fit-margin-right="0"
     fit-margin-bottom="0"
     inkscape:zoom="2.95"
     inkscape:cx="69.452485"
     inkscape:cy="72.677768"
     inkscape:window-x="-8"
     inkscape:window-y="-8"
     inkscape:window-maximized="1"
     inkscape:current-layer="svg2" />
  <path
     style="fill:none;stroke:#000000;stroke-width:1.77037489;stroke-miterlimit:4;stroke-dasharray:none;stroke-opacity:1"
     d="M 66.660601,59.539431"
     id="path4"
     inkscape:connector-curvature="0" />
  <path
     style="fill:#ff69b4;fill-opacity:1;stroke:#000000;stroke-width:1.77037489;stroke-miterlimit:4;stroke-dasharray:none;stroke-opacity:1"
     d="m 44.956081,-7.1148217 c -3.269839,0 -6.439746,1.297199 -8.925727,3.653224 -2.482377,2.353273 -4.005903,5.500366 -4.29184,8.863324 l -1.137277,13.4035727 -12.992787,0 c -3.269843,0 -6.439747,1.297974 -8.925725,3.653999 -2.4823793,2.353238 -4.0068018,5.50072 -4.2918461,8.863678 -0.2958745,3.488476 0.7641974,6.785288 2.9831824,9.281719 2.2117708,2.487152 5.2876817,3.85667 8.6630607,3.85667 l 12.385541,0 -1.279796,15.07789 -12.992061,0 c -3.269846,0 -6.439387,1.297234 -8.9253682,3.653259 -2.4823757,2.353273 -4.0059021,5.500508 -4.29184241,8.862548 -0.29587455,3.489465 0.76293441,6.785289 2.98282241,9.28172 2.2108641,2.487117 5.2876807,3.856705 8.6630572,3.856705 l 12.386624,0 -1.084957,12.782472 c -0.295875,3.488511 0.762934,6.784721 2.982822,9.282071 2.210861,2.48712 5.287677,3.85667 8.663057,3.85667 3.269846,0 6.439567,-1.2972 8.924648,-3.65326 2.483276,-2.35324 4.007882,-5.50051 4.292922,-8.862546 0.0018,-0.01764 0.0034,-0.03528 0.0042,-0.05292 l 1.132945,-13.352596 14.601277,0.0012 -1.084234,12.780567 c -0.296757,3.489501 0.763118,6.785321 2.982099,9.281751 2.210864,2.48804 5.287677,3.8578 8.663064,3.8578 3.269835,0 6.439383,-1.2972 8.925364,-3.65326 2.482372,-2.35323 4.006978,-5.50033 4.292922,-8.863286 9.21e-4,-0.01058 0.0017,-0.02117 0.0025,-0.03175 l 1.134748,-13.370834 12.992804,0 c 0.0282,0 0.054,-1.76e-4 0.0811,-0.0012 3.24097,-0.02117 6.37932,-1.316389 8.84456,-3.652906 2.48236,-2.353238 4.00681,-5.500508 4.29186,-8.862549 0.29598,-3.488476 -0.76334,-6.784724 -2.9832,-9.282107 -2.21089,-2.487117 -5.28767,-3.85667 -8.67024,-3.85667 l -12.379455,0 1.280156,-15.077855 12.991699,0 c 3.26986,0 6.43978,-1.29801 8.92573,-3.653999 2.48236,-2.352356 4.00678,-5.500508 4.29186,-8.862549 0.29598,-3.488547 -0.76313,-6.784583 -2.98214,-9.281013 -2.21174,-2.488035 -5.28873,-3.857411 -8.67134,-3.857411 l -12.378293,0 1.084227,-12.7817317 c 0.296686,-3.489464 -0.762211,-6.78528801 -2.982103,-9.281719 -2.210861,-2.487117 -5.287674,-3.857799 -8.663057,-3.857799 -3.269846,0 -6.439743,1.297975 -8.925727,3.654 -2.482376,2.352321 -4.006802,5.49959 -4.291843,8.862548 l -1.138357,13.4047017 -14.60092,0 1.08496,-12.7824727 c 0.295875,-3.488511 -0.763117,-6.78472401 -2.982099,-9.282071 -2.211764,-2.487153 -5.288404,-3.856706 -8.663783,-3.856706 z m 5.209026,44.4355457 21.554819,0 c 0.971475,0 1.897858,0.420264 2.554536,1.158486 0.655768,0.738257 0.981403,1.725858 0.896612,2.723478 l -1.885239,22.217438 c -0.156951,1.844639 -1.655215,3.25903 -3.451146,3.25903 l -21.554822,0 c -0.971479,0 -1.897862,-0.419523 -2.554537,-1.157746 -0.655771,-0.738257 -0.981402,-1.72547 -0.896616,-2.72309 l 1.88632,-22.218531 c 0.15695,-1.843792 1.655038,-3.259065 3.450073,-3.259065 z"
     id="path4234"
     inkscape:connector-curvature="0" />
  <path
     style="fill:none;fill-opacity:1;stroke:#000000;stroke-width:1.77037489;stroke-miterlimit:4;stroke-dasharray:none;stroke-opacity:1"
     d="M 85.242327,65.521587"
     id="path6"
     inkscape:connector-curvature="0" />
</svg>
