<?xml version="1.0" encoding="UTF-8" standalone="no"?>
<!-- Created with Inkscape (http://www.inkscape.org/) -->

<svg
   xmlns:dc="http://purl.org/dc/elements/1.1/"
   xmlns:cc="http://creativecommons.org/ns#"
   xmlns:rdf="http://www.w3.org/1999/02/22-rdf-syntax-ns#"
   xmlns:svg="http://www.w3.org/2000/svg"
   xmlns="http://www.w3.org/2000/svg"
   xmlns:sodipodi="http://sodipodi.sourceforge.net/DTD/sodipodi-0.dtd"
   xmlns:inkscape="http://www.inkscape.org/namespaces/inkscape"
   width="8.8642607mm"
   height="11.999937mm"
   viewBox="0 0 8.8642607 11.999937"
   version="1.1"
   id="svg5208"
   inkscape:version="0.92.3 (2405546, 2018-03-11)"
   sodipodi:docname="K5.svg">
  <defs
     id="defs5202" />
  <sodipodi:namedview
     id="base"
     pagecolor="#ffffff"
     bordercolor="#666666"
     borderopacity="1.0"
     inkscape:pageopacity="0.0"
     inkscape:pageshadow="2"
     inkscape:zoom="15.839192"
     inkscape:cx="-7.053335"
     inkscape:cy="16.874328"
     inkscape:document-units="mm"
     inkscape:current-layer="layer1"
     showgrid="false"
     inkscape:window-width="2160"
     inkscape:window-height="1346"
     inkscape:window-x="-11"
     inkscape:window-y="-11"
     inkscape:window-maximized="1" />
  <metadata
     id="metadata5205">
    <rdf:RDF>
      <cc:Work
         rdf:about="">
        <dc:format>image/svg+xml</dc:format>
        <dc:type
           rdf:resource="http://purl.org/dc/dcmitype/StillImage" />
        <dc:title></dc:title>
      </cc:Work>
    </rdf:RDF>
  </metadata>
  <g
     inkscape:label="Livello 1"
     inkscape:groupmode="layer"
     id="layer1"
     transform="translate(-89.993569,-112.6882)">
    <path
       d="m 97.39578,118.59418 c -0.959924,-0.42004 -2.606351,-0.24389 -4.294816,0.0375 -0.09832,-1.30283 -0.06393,-2.24399 0.03022,-2.94717 0.21957,0.0841 0.445045,0.15738 0.681292,0.20776 0.595479,0.1268 1.208329,0.14974 1.814926,0.10283 0.566992,-0.0441 1.154828,-0.0844 1.714869,-0.18761 0.745565,-0.13792 0.774054,-0.84874 0.66948,-1.43728 -0.05698,-0.31963 -0.40544,-1.9855 -0.964093,-1.51058 -1.048863,0.89183 -2.31417,1.49808 -3.607618,1.47758 0.05281,-0.15877 0.104574,-0.30156 0.151128,-0.43254 0.116039,-0.32762 -0.268208,-0.40161 -0.268208,-0.40161 0,0 -0.830336,-0.29462 -1.661366,-0.29462 -0.420033,0 -0.586099,0.17788 -0.648288,0.35367 -0.09554,-0.0246 -0.185175,-0.0305 -0.257091,0.004 -0.143485,0.0684 0.02745,0.32658 0.267514,0.59756 0.174057,1.06624 0.950196,3.3005 1.462989,4.59396 -0.236594,0.10595 -0.347421,0.3349 -0.108048,0.31927 0.08025,-0.006 0.156339,-0.006 0.233467,-0.008 0.09137,0.22027 0.17093,0.40197 0.228602,0.51766 0.401619,0.80393 0.348116,0 0.348116,0 -0.0198,-0.17823 -0.03579,-0.34603 -0.05142,-0.51279 3.094825,0.19594 3.343926,3.04896 2.630671,4.09123 -3.824062,-0.4044 -5.126543,-2.13838 -5.126543,-2.13838 -3.262629,6.43076 8.856105,2.21828 6.808407,2.22245 -0.06324,3.4e-4 -0.12403,-9.9e-4 -0.186566,-0.002 1.951811,-1.52275 2.021642,-3.82546 0.132368,-4.65197 z"
       style="fill:#656263;fill-opacity:1;stroke:#000000;stroke-width:0.17638889;stroke-linecap:butt;stroke-linejoin:miter;stroke-miterlimit:10;stroke-dasharray:none;stroke-opacity:1"
       id="path2015"
       inkscape:connector-curvature="0" />
  </g>
</svg>
