<?xml version="1.0" encoding="UTF-8"?>
<!DOCTYPE svg PUBLIC "-//W3C//DTD SVG 1.1//EN" "http://www.w3.org/Graphics/SVG/1.1/DTD/svg11.dtd">
<!-- Creator: CorelDRAW X7 -->
<svg xmlns="http://www.w3.org/2000/svg" xml:space="preserve" width="12.5309cm" height="5.78508cm" version="1.1" style="shape-rendering:geometricPrecision; text-rendering:geometricPrecision; image-rendering:optimizeQuality; fill-rule:evenodd; clip-rule:evenodd"
viewBox="0 0 12531 5785"
 xmlns:xlink="http://www.w3.org/1999/xlink">
 <defs>
  <style type="text/css">
   <![CDATA[
    .str0 {stroke:#FEFEFE;stroke-width:50}
    .fil2 {fill:#FEFEFE}
    .fil3 {fill:#FFF212}
    .fil4 {fill:#ED3237}
    .fil1 {fill:#00AFEF}
    .fil0 {fill:#2F3686}
   ]]>
  </style>
 </defs>
 <g id="Layer_x0020_1">
  <metadata id="CorelCorpID_0Corel-Layer"/>
  <g id="_912466784">
   <path class="fil0 str0" d="M1495 2411l2353 -1494c198,-126 463,-67 588,131l2296 3614c126,198 67,463 -131,588l-278 177 -3417 0 -1542 -2427c-126,-198 -67,-463 131,-589z"/>
   <path class="fil1" d="M2430 4010l64 119 125 -65c41,-22 91,-42 136,-59 97,-35 194,-63 301,-85 207,-42 418,-53 630,-43 20,1 79,10 90,2 -3,-15 -50,-16 -77,-20 -443,-62 -860,-36 -1269,151z"/>
   <path class="fil1" d="M4462 3879c6,4 -1,1 8,3l30 -1c90,-7 199,-8 289,-4 103,4 205,14 305,31 95,16 185,37 273,64 120,37 151,59 248,95l51 -122 -61 -23c-65,-21 -139,-39 -205,-53 -256,-52 -535,-55 -794,-20 -26,3 -50,7 -76,11 -29,4 -65,4 -68,19z"/>
   <path class="fil1" d="M3777 2376c9,18 23,39 34,59 190,333 267,733 270,1117 0,18 -5,32 9,36 13,-18 14,-238 14,-276 0,-264 -39,-545 -128,-787 -16,-43 -73,-191 -95,-213 -14,6 -98,56 -104,64z"/>
   <path class="fil1" d="M4158 3312l3 156c1,22 2,43 3,65 3,37 -2,52 13,55 5,-8 7,-152 8,-176 11,-175 34,-328 75,-498 23,-96 57,-197 94,-285 29,-69 58,-127 94,-191 11,-21 26,-41 36,-62 -11,-13 -99,-61 -107,-64 -9,27 -34,72 -47,102 -15,35 -31,72 -44,109 -90,258 -128,507 -128,789z"/>
   <path class="fil1" d="M4373 3497c0,15 -3,12 -4,22 7,5 4,6 12,5l3 -7c-8,-24 -1,-40 24,-40 10,-9 57,-90 70,-111 62,-96 125,-181 198,-265 44,-50 87,-100 135,-143 36,-33 60,-58 100,-89 60,-47 93,-75 161,-117 15,-9 45,-25 57,-35 -10,-31 -52,-77 -61,-106 -24,11 -89,64 -113,84 -45,36 -114,100 -153,143l-48 53c-95,105 -175,221 -248,343 -19,33 -131,234 -133,263z"/>
   <path class="fil1" d="M3171 2613c-12,17 -58,88 -62,104 11,9 97,60 130,85 84,67 158,123 232,200 169,175 291,349 409,568l29 55c6,10 2,10 12,12 5,-6 4,-1 3,-10 -1,-2 -5,-12 -6,-15l-38 -88c-54,-117 -103,-217 -170,-327 -88,-142 -143,-212 -247,-331 -60,-69 -243,-235 -292,-253z"/>
   <path class="fil1" d="M2862 2924l-35 116 78 27c185,62 327,146 482,259 115,84 264,221 360,328 9,10 14,19 24,28 3,3 66,81 51,40l-287 -346c-123,-125 -474,-412 -673,-452z"/>
   <path class="fil1" d="M4447 5375c17,8 91,14 115,13 15,-420 -110,-781 -301,-1134 -19,-34 -10,-25 -22,-27 -4,10 39,101 46,118 88,215 153,461 170,696 12,164 -1,189 -8,334z"/>
   <path class="fil1" d="M3656 5382c23,3 87,-8 115,-10 -7,-143 -20,-168 -9,-331 8,-104 23,-207 45,-303 36,-156 88,-313 151,-458 10,-24 26,-49 20,-60 -13,5 -61,104 -67,116 -175,346 -257,641 -255,1046z"/>
   <path class="fil1" d="M5280 3089l-48 -111c-25,7 -99,52 -124,68 -42,26 -79,51 -117,78 -79,55 -104,83 -161,128 -11,9 -14,13 -25,23l-73 69c-17,17 -32,35 -49,49 -21,18 -29,34 -47,51 -12,12 -13,16 -23,26 -34,36 -78,92 -108,131 -29,37 -55,74 -84,112 -11,15 -16,44 25,-7 75,-94 242,-251 347,-331 171,-132 280,-196 471,-277 2,-1 5,-3 7,-4 1,0 4,-2 5,-2l4 -3z"/>
   <path class="fil1" d="M5028 4635c20,28 39,59 57,89l74 145c8,15 15,37 23,50l105 -45c-8,-25 -43,-81 -57,-104 -21,-34 -42,-67 -64,-96 -12,-17 -21,-30 -34,-46 -10,-14 -25,-33 -35,-45l-55 -63c-75,-94 -232,-221 -314,-278 -46,-33 -95,-63 -146,-94 -19,-12 -141,-84 -154,-78 3,8 120,84 136,96 33,24 103,76 133,104 53,48 100,85 152,144 68,74 122,138 179,221z"/>
   <path class="fil1" d="M4016 5168c19,-4 72,-20 84,-30 -20,-77 -35,-95 -54,-200 -27,-155 -28,-317 -11,-474 3,-29 34,-208 30,-216 -6,4 -6,6 -10,20 -71,262 -112,516 -63,790 7,36 19,77 24,110z"/>
   <path class="fil1" d="M4260 3603c9,-5 30,-95 35,-111 72,-243 170,-447 338,-633 11,-13 27,-26 36,-38 -10,-14 -51,-55 -65,-60 -7,13 -21,27 -32,41 -131,170 -210,344 -265,556 -9,35 -55,226 -47,245z"/>
   <path class="fil1" d="M3588 2831c9,14 24,26 35,39 6,6 12,10 18,17 162,173 289,464 344,699 1,4 3,11 4,14 1,5 1,5 2,8 3,6 1,2 5,6l2 -5c4,-25 -42,-221 -48,-242 -21,-79 -44,-152 -74,-224 -52,-126 -137,-280 -227,-373 -16,16 -51,43 -61,61z"/>
   <path class="fil1" d="M3339 4887l85 23c23,-134 114,-309 186,-419 41,-63 85,-118 128,-170l71 -79c15,-15 68,-62 74,-77 -14,-2 -22,12 -44,30 -42,34 -131,115 -164,152l-76 85c-13,16 -24,28 -36,44 -83,115 -186,266 -224,411z"/>
   <path class="fil1" d="M4813 4910l86 -22c-31,-136 -169,-347 -258,-454l-116 -125c-13,-13 -26,-23 -39,-37l-85 -75c-11,-10 -32,-32 -46,-33 4,11 63,66 72,76 29,34 78,86 104,119 91,121 133,174 204,325 25,53 70,165 78,226z"/>
   <path class="fil1" d="M4436 3800c12,2 63,-28 86,-39 192,-91 397,-158 615,-159 35,0 98,8 125,5l9 -87c-181,-1 -321,30 -472,86 -68,26 -129,55 -191,88l-133 76c-11,8 -36,18 -39,30z"/>
   <path class="fil1" d="M2975 3606c15,4 97,-4 123,-4 42,0 83,2 123,7 178,21 380,89 537,173 19,10 33,22 44,17l-39 -28c-42,-25 -89,-55 -132,-77 -237,-118 -375,-167 -663,-174l7 86z"/>
   <path class="fil1" d="M2912 4093c6,21 36,52 46,75l81 -50c28,-17 55,-32 85,-46 182,-86 387,-128 590,-135 15,-1 49,1 59,-6 -1,-1 -2,-2 -2,-2l-116 -8c-125,-2 -241,6 -362,31 -71,14 -138,33 -203,58 -58,22 -167,80 -178,83z"/>
   <path class="fil1" d="M4472 3941c2,5 -2,9 22,10 202,7 443,60 618,151 75,39 99,58 164,103 11,-10 47,-58 52,-72 -27,-14 -53,-31 -83,-46 -247,-130 -494,-150 -773,-146z"/>
   <path class="fil1" d="M3580 4873l71 9c6,-118 64,-281 110,-372 50,-98 104,-191 172,-277 8,-11 9,-7 10,-20 -40,19 -188,233 -221,289 -31,52 -61,113 -85,173 -17,42 -56,151 -57,198z"/>
   <path class="fil1" d="M3564 2712c4,-1 10,-1 14,0 9,0 19,0 28,1 20,0 40,1 59,1 -15,-22 -67,-48 -83,-71l37 -100c-23,8 -68,47 -93,58 -24,-15 -72,-59 -87,-66l29 105c-16,16 -59,40 -79,54 -9,7 -6,3 -9,11l106 3c2,9 31,101 33,105 6,-19 29,-98 45,-101z"/>
   <path class="fil1" d="M4227 3584c9,-10 13,-84 16,-105 4,-36 9,-70 16,-106 12,-66 27,-132 47,-193 31,-93 63,-166 113,-246 17,-27 34,-47 50,-71 0,-1 -1,-3 -1,-2 -1,0 -2,-2 -2,-2l-39 -30c-71,114 -111,185 -147,328 -34,132 -52,280 -53,427z"/>
   <path class="fil1" d="M3118 3468c219,1 433,116 602,234 20,14 53,43 71,51 -8,-19 -121,-104 -136,-115 -135,-101 -355,-218 -535,-225l-2 55z"/>
   <path class="fil1" d="M4446 3752l141 -97c154,-96 336,-184 532,-188l-1 -53c-46,-4 -163,31 -206,45 -122,41 -228,106 -329,179 -24,17 -129,99 -137,114z"/>
   <path class="fil1" d="M3951 5278l49 -17c-9,-40 -30,-89 -45,-159 -13,-58 -21,-118 -26,-179 -4,-65 -5,-131 -1,-196 1,-26 20,-175 16,-182 -10,17 -29,143 -33,171 -17,131 -18,261 1,391 6,43 22,137 39,171z"/>
   <path class="fil1" d="M2795 4371c14,9 27,21 40,31l149 -147c11,-9 24,-19 35,-27 69,-52 146,-98 227,-135 21,-9 167,-67 171,-71 -57,-2 -286,98 -348,134 -55,31 -103,61 -148,96 -30,23 -113,92 -126,119z"/>
   <path class="fil1" d="M4310 4946l54 5c2,-139 -20,-274 -57,-395 -17,-56 -109,-293 -137,-315 1,15 50,124 59,152 40,120 67,216 79,345 8,75 4,134 2,208z"/>
   <path class="fil1" d="M3431 5180l52 -2c5,-24 2,-74 4,-103 6,-90 26,-194 52,-278 30,-96 53,-151 94,-238 10,-21 32,-56 37,-76l-46 71c-14,25 -30,50 -42,77 -25,54 -48,102 -71,162 -34,89 -86,281 -80,387z"/>
   <path class="fil1" d="M5102 4404c-116,-144 -273,-249 -454,-322 -43,-17 -155,-59 -198,-66 6,7 -2,1 9,8l79 30c83,33 174,78 246,126l107 77c56,46 126,118 169,179 10,-5 39,-25 42,-32z"/>
   <path class="fil1" d="M3804 2863c17,28 44,56 76,115 67,124 111,256 134,395 7,38 2,29 21,29 2,-120 -62,-338 -119,-453 -25,-51 -62,-105 -69,-120 -9,3 -16,10 -23,15 -3,2 -6,4 -10,8 -10,9 -3,-1 -10,11z"/>
   <path class="fil1" d="M4385 3689l89 -153c75,-114 124,-175 221,-266 45,-43 137,-105 140,-108 -4,-11 -21,-39 -29,-44 -50,35 -94,74 -134,115 -132,139 -190,242 -273,416 -5,10 -19,32 -14,40z"/>
   <path class="fil1" d="M5105 5063l53 -11c-6,-80 -112,-277 -158,-348l-136 -180c-6,-7 -9,-9 -15,-16 -6,-8 -7,-11 -15,-17 -14,-14 -19,-19 -30,-32 -10,-10 -22,-28 -35,-31l105 134c91,124 213,347 231,501z"/>
   <path class="fil1" d="M3304 4664l48 20c8,-13 40,-92 74,-147 55,-90 127,-172 201,-244 26,-25 24,-27 57,-55 12,-10 16,-15 28,-27 12,-12 27,-13 18,-28 -23,4 -206,171 -241,212 -39,46 -62,68 -102,124 -25,36 -66,98 -83,145z"/>
   <path class="fil1" d="M4887 4063c-21,-8 -46,-21 -57,-13 79,21 251,119 317,167 87,63 147,124 219,201 9,12 19,27 28,34 13,-10 34,-21 41,-34 -40,-44 -84,-91 -131,-128 -126,-101 -263,-173 -417,-227z"/>
   <path class="fil1" d="M2810 3535l-89 31c5,3 1,1 10,5 3,1 8,2 11,3l69 21 10 87c1,-1 1,-1 2,-2l46 -68 91 25 -55 -75c8,-24 40,-56 51,-80l-87 30c-18,-12 -41,-52 -60,-71 -1,2 0,-5 -2,7l1 34c0,17 1,35 2,53z"/>
   <path class="fil1" d="M4442 4378c10,17 20,31 32,48 57,86 107,192 143,290 15,42 23,93 38,135l51 -11c-8,-62 -76,-206 -104,-256 -30,-54 -103,-173 -143,-214 -9,2 -7,2 -17,8z"/>
   <path class="fil1" d="M3402 3161l28 20c70,46 121,95 178,153 81,84 96,121 163,213l11 -12c-55,-89 -70,-137 -153,-232 -15,-16 -29,-35 -44,-51 -8,-9 -16,-15 -25,-23 -8,-9 -14,-17 -23,-26 -16,-15 -35,-30 -53,-45 -14,-12 -40,-34 -55,-41l-27 44z"/>
   <path class="fil1" d="M2943 4417c11,8 33,25 45,30 9,-23 63,-81 79,-99 77,-83 208,-169 313,-221l-9 -19c-38,12 -93,43 -126,60 -88,46 -144,92 -216,153 -17,15 -78,76 -86,96z"/>
   <path class="fil1" d="M3318 4244c14,14 27,34 45,43l64 -59c77,-66 192,-124 288,-164 18,-8 42,-16 59,-25 -4,-3 -3,-4 -16,-2l-113 34c-80,27 -160,58 -231,103 -25,15 -84,52 -96,70z"/>
   <path class="fil1" d="M2735 3151c82,-2 166,13 240,33l188 66c11,3 6,3 13,-1 6,-14 4,-11 -11,-18 -8,-4 -17,-8 -26,-13 -110,-54 -269,-114 -391,-117l-13 50z"/>
   <path class="fil1" d="M4183 4790l45 -23c-87,-188 -101,-289 -98,-504 -1,1 -1,1 -2,3 0,2 -1,2 -1,3 -2,5 -2,2 -4,10 -12,53 -9,216 -3,268 9,89 31,170 63,243z"/>
   <path class="fil1" d="M3978 2441l69 200 53 215c1,-1 1,-3 1,-2 0,0 1,-2 1,-3 4,-23 -1,16 1,-5 0,-3 -1,-12 -1,-15 -8,-71 -13,-126 -26,-198 -7,-39 -34,-183 -49,-208l-49 16z"/>
   <path class="fil1" d="M4159 2342l-72 -6c7,11 43,42 54,51l-30 71c21,-10 51,-32 70,-37l55 49 -16 -73 65 -40c-18,-9 -52,-5 -76,-10 -3,-22 -8,-56 -18,-73 -7,19 -20,54 -32,68z"/>
   <path class="fil1" d="M4690 2694c-11,4 -21,12 -31,18 -14,8 -19,10 -30,21 0,0 -1,1 -2,2l74 3c7,22 11,56 22,73l27 -69 75 3 -29 -25c-11,-10 -19,-14 -27,-24l26 -69c-22,8 -45,30 -65,37 -19,-12 -40,-35 -59,-45l19 75z"/>
   <path class="fil1" d="M4876 4965l-69 -24c10,24 30,41 40,64 -14,17 -33,40 -45,60l74 -21c4,9 37,58 43,61l2 -75 72 -21 -70 -27 1 -76 -48 59z"/>
   <path class="fil1" d="M3126 3674c-1,17 3,40 10,53 177,-24 230,-15 407,19 -3,-8 1,-3 -6,-7 -17,-11 -166,-48 -182,-51 -77,-16 -149,-21 -229,-14z"/>
   <path class="fil1" d="M4695 3745c171,-34 237,-41 407,-18l12 -53c-166,-10 -253,14 -400,60 -16,5 -17,4 -19,11z"/>
   <path class="fil1" d="M5018 3303c35,-8 103,-31 164,-44 55,-12 124,-24 183,-27l-8 -53c-40,2 -141,37 -180,51 -28,10 -57,21 -82,32 -14,6 -26,11 -39,18 -19,9 -30,12 -38,23z"/>
   <path class="fil1" d="M2590 3826l13 52 164 -42c55,-11 124,-23 181,-24 -3,-11 9,1 -4,-5 -17,-8 -161,-3 -176,-2 -63,4 -119,15 -178,21z"/>
   <path class="fil1" d="M5354 3528l-63 -20c6,18 25,36 33,54 -7,16 -29,35 -37,52l62 -17c14,18 24,39 38,52l2 -64 60 -18c-14,-12 -43,-15 -59,-26l1 -62c-8,7 -33,40 -37,49z"/>
   <path class="fil1" d="M3021 2840l-55 -25 28 54 -41 45 61 -9 28 52c0,-1 1,-3 1,-2l9 -59 59 -11 -54 -28 7 -60 -43 43z"/>
   <path class="fil1" d="M2834 4143l-52 -24c7,21 22,35 27,57 -9,8 -12,10 -20,20 -6,8 -13,18 -19,21l59 -10c10,15 20,39 32,51l7 -60c10,-1 19,-3 29,-5l27 -8 -49 -23c-7,-21 9,-46 0,-62 -9,12 -26,35 -41,43z"/>
   <path class="fil1" d="M3117 4614c-9,11 -17,21 -26,33 -18,25 -33,46 -51,72 -18,28 -80,123 -89,156l106 46c9,-35 49,-112 66,-144 49,-89 104,-174 167,-251 161,-189 278,-285 497,-442 15,-11 8,-1 10,-14 -23,-11 -259,147 -309,187 -109,82 -296,256 -371,357z"/>
   <path class="fil1" d="M4137 5257l55 -24c-19,-4 -59,-12 -66,-28 -3,-9 -3,-42 -5,-57 -8,8 -30,45 -34,57l-69 -14c10,17 30,36 43,51 -8,17 -31,51 -33,62l58 -26c20,4 27,33 51,47 -1,-17 -9,-55 0,-68z"/>
   <path class="fil1" d="M2906 3284l-47 -2c7,12 23,23 35,28l-15 49c14,-7 28,-19 41,-25 11,7 27,23 38,27l-12 -46 40 -26 -47 -4c-7,-11 -10,-31 -15,-46l-18 45z"/>
   <path class="fil1" d="M2750 4434l-43 -2c8,13 25,20 34,31l-14 42 40 -25c8,9 25,23 35,28l-12 -46c9,-4 32,-17 37,-26l-45 -1 -13 -44c-4,8 -6,13 -8,20 -4,10 -5,14 -11,23z"/>
   <path class="fil1" d="M2990 3416l39 20 -7 45 33 -31 41 21 -19 -41c13,-16 23,-21 31,-32l-45 5 -19 -41c-3,13 -5,38 -12,43 -7,6 -30,3 -42,11z"/>
   <path class="fil1" d="M5423 3169l-44 -8 14 16c5,6 10,11 14,17l-20 40 43 -18 29 34 -4 -48 40 -16c-11,-7 -25,-6 -37,-11 -1,0 -2,-1 -3,-1 -5,-2 -10,-36 -12,-44 -5,12 -14,27 -20,39z"/>
   <path class="fil1" d="M3762 2747l-38 19c2,1 2,1 7,3l35 7 6 42c5,-4 0,2 7,-8l14 -29 44 7 -13 -18c-6,-6 -10,-10 -15,-15l19 -38 -42 18 -29 -32 5 44z"/>
   <path class="fil1" d="M3586 4947l-36 18c10,6 27,6 41,7 2,9 3,12 4,20l6 20c1,0 1,1 2,2l16 -37 43 4 -29 -27c2,-18 11,-24 16,-42l-36 19 -33 -28 6 44z"/>
   <path class="fil1" d="M4507 2559l-39 -20 18 43 -32 26 44 -4 17 39c7,-16 3,-23 12,-40 0,-1 1,-2 1,-2l37 -5c-4,-10 -26,-18 -34,-21l7 -43c-8,4 -25,21 -31,27z"/>
   <path class="fil1" d="M5071 4459c6,8 20,16 31,25l-10 37c8,-3 24,-15 30,-23 14,5 24,15 36,21l-12 -38c12,-9 21,-16 29,-25l-38 0 -15 -37c-21,43 9,37 -51,40z"/>
   <path class="fil1" d="M4692 4892l-37 -15 19 35c-7,8 -18,24 -26,30l41 -6 18 34 7 -40c31,-8 18,-2 35,-10 1,0 2,-1 3,-2l-35 -14 3 -40c-9,8 -20,20 -28,28z"/>
   <path class="fil1" d="M4174 2550l-38 -8c9,16 12,17 23,28l-19 35c11,-1 24,-8 34,-12 17,14 15,20 28,28l-2 -37 36 -16 -38 -11 -2 -37 -22 30z"/>
   <path class="fil1" d="M4368 5040c17,3 29,6 15,-3l-29 -23c2,-15 11,-28 17,-42l-38 20c-17,-9 -21,-21 -34,-28l8 45c-14,5 -28,12 -37,21l43 5 2 9 7 33c19,-35 11,-41 46,-37z"/>
   <path class="fil1" d="M5178 3418l-36 -6 24 27 -17 32 33 -13c8,9 19,18 26,26l-3 -38 33 -14 -37 -10 -3 -33c-9,4 -14,21 -20,29z"/>
   <path class="fil1" d="M3285 4719l-30 7 29 15 -1 34c10,-10 13,-11 19,-24l36 11 -18 -31c10,-8 17,-16 21,-26l-31 7c-8,-7 -7,-10 -14,-19l-7 -8 -4 34z"/>
   <path class="fil1" d="M3237 2969c-10,12 -17,17 -24,29 9,-1 17,-2 26,-5 36,-9 26,7 42,32l3 -39c8,-10 26,-7 42,-15 -10,-9 -28,-13 -40,-17l5 -46c-22,22 -11,11 -38,31l-33 -14c5,16 23,32 17,44z"/>
   <path class="fil1" d="M4218 4814l-32 -1c4,4 2,3 6,7 1,1 5,4 6,5 7,6 5,2 12,10l-9 32c11,-6 18,-12 28,-18 10,6 17,13 27,18l-8 -31 27 -21 -34 -2c-4,-13 -5,-21 -13,-30l-10 31z"/>
   <path class="fil1" d="M4854 3081l-26 15c8,5 16,4 27,6 7,11 5,18 9,30l13 -25 33 2 -20 -20 9 -31 -26 13c-9,-7 -14,-15 -24,-19l5 29z"/>
   <path class="fil1" d="M3756 2570l-30 3c3,6 16,11 24,18l-6 29c11,-6 12,-10 26,-17l26 14 -11 -29c8,-7 15,-13 22,-21l-32 2 -10 -29 -9 30z"/>
   <polygon class="fil1" points="4481,2744 4450,2731 4462,2758 4446,2780 4472,2779 4484,2806 4492,2777 4522,2772 4497,2755 4501,2726 "/>
   <path class="fil1" d="M2651 3687c-1,1 -3,0 -3,1l-26 6 24 15 -4 30 22 -19 27 13 -12 -28c10,-9 15,-11 20,-21l-29 3c-4,-9 -6,-17 -14,-24l-5 24z"/>
   <path class="fil1" d="M3142 4370l-25 1c2,3 15,14 18,17l-7 23c10,-4 12,-7 22,-11 10,7 9,9 20,13l-6 -26 21 -13 -26 -2 -7 -24 -10 22z"/>
   <path class="fil1" d="M5165 3697l-24 -6c3,7 9,16 12,21 -5,8 -9,12 -13,21l24 -7c4,8 8,14 15,20 2,-29 -4,-24 24,-31l-22 -10 -1 -26c-2,4 -9,12 -15,18z"/>
   <path class="fil1" d="M5273 4005l-25 -8 12 25c-7,6 -10,8 -16,16l26 -4 11 22c7,-35 1,-19 26,-31l-19 -11 1 -26c-4,6 -12,12 -16,17z"/>
   <path class="fil1" d="M5276 3330l-22 -6 12 23 -14 18 25 -6c6,11 3,11 14,18l1 -22 22 -8 -20 -9 -1 -26c-5,6 -12,13 -17,18z"/>
   <path class="fil1" d="M2706 4126l-22 -9c4,10 6,13 11,23l-14 19 25 -6c2,4 2,6 4,9l10 10c1,-26 -1,-24 24,-29l-22 -10 1 -24 -17 17z"/>
   <path class="fil1" d="M4333 3583l19 -3c8,-11 24,-42 29,-56 -8,1 -5,0 -12,-5 1,-10 4,-7 4,-22 -4,3 -3,1 -7,8l-14 31c-8,16 -13,30 -19,47z"/>
   <path class="fil1" d="M5071 4244l-21 -8 10 22 -14 16 21 -3 12 18c4,-9 1,-15 6,-21 5,-5 11,-2 19,-7l-17 -8 -1 -24c-2,3 -11,11 -15,15z"/>
   <path class="fil1" d="M5419 3760l-22 -8 10 23 -15 13 25 -2c6,20 -3,4 10,17l2 -21 21 -4 -18 -11 1 -22c-8,5 -7,2 -14,15z"/>
   <path class="fil1" d="M4170 4974l-20 -7 8 18 -12 18 21 -3c3,5 6,11 11,18l4 -19 16 -10c0,-1 -1,-2 -2,-2l-12 -6 2 -22c-5,7 -10,9 -16,15z"/>
   <path class="fil1" d="M2868 4509l-16 -8 7 18 -12 15 20 -1 7 16 4 -16 17 -6c-1,-2 -2,-4 -3,-3 -3,6 2,2 -10,-9l2 -16c-8,3 -5,5 -16,10z"/>
   <path class="fil1" d="M4352 3580l-19 3 -18 41c-5,16 -3,7 1,14 12,-4 30,-45 36,-58z"/>
   <path class="fil1" d="M4384 3517c5,-5 1,0 7,-8 1,-1 5,-7 6,-9 7,-10 7,-10 11,-23 -25,0 -32,16 -24,40z"/>
   <path class="fil1" d="M5299 4232c12,11 44,14 62,17l8 65c8,-7 12,-15 18,-26l18 -28 63 12c-4,-7 -35,-43 -42,-47l32 -60c-21,5 -42,21 -65,24 -9,-16 -27,-35 -41,-46l6 63 -59 26z"/>
   <path class="fil0 str0" d="M3337 879l2659 -835c224,-70 464,56 535,280l1282 4085c70,223 -56,464 -279,534l-1543 484 -1673 0 -1260 -4013c-70,-224 55,-465 279,-535z"/>
   <path class="fil0 str0" d="M9037 1868l2025 1916c170,161 178,432 17,602l-985 1041 -4695 0c-50,-145 -20,-313 93,-432l2943 -3110c161,-171 432,-178 602,-17z"/>
   <path class="fil2" d="M7075 4757c89,55 334,2 455,-11l-47 -25c-108,-42 -433,-145 -408,36z"/>
   <path class="fil2" d="M8996 4612c81,43 434,129 463,19 27,-102 -130,-70 -195,-60 -82,11 -188,22 -268,41z"/>
   <path class="fil2" d="M7610 4367c-29,-41 -288,-361 -384,-258 -70,75 91,129 143,152 71,32 170,85 241,106z"/>
   <path class="fil2" d="M8583 4038c39,-27 355,-287 256,-381 -74,-71 -128,82 -152,137 -34,77 -80,165 -104,244z"/>
   <path class="fil2" d="M8273 3971c6,-91 8,-179 10,-268 3,-106 32,-194 -92,-188 -53,66 -33,140 -6,236 19,66 53,175 88,220z"/>
   <path class="fil2" d="M7900 4056c-25,-78 -77,-153 -113,-227 -28,-55 -90,-199 -160,-134 -103,97 238,346 273,361z"/>
   <path class="fil2" d="M7646 5075c-71,31 -144,78 -216,118 -44,26 -217,103 -143,176 91,88 333,-236 359,-294z"/>
   <path class="fil2" d="M9355 5198c11,-109 -58,-120 -153,-143 -88,-22 -176,-33 -269,-36 19,25 -1,5 25,25l79 44c130,73 227,158 318,110z"/>
   <path class="fil2" d="M8909 4309c65,-21 164,-81 220,-113 46,-26 201,-85 132,-160 -91,-100 -328,216 -352,273z"/>
   <path class="fil2" d="M8931 5679c16,-50 12,-78 -18,-120l-225 -280c19,118 81,439 243,400z"/>
   <path class="fil2" d="M8107 4203c-1,-92 -16,-283 -57,-340 -187,-11 34,297 57,340z"/>
   <path class="fil2" d="M8191 5540c52,-73 15,-238 6,-335 -31,36 -164,352 -6,335z"/>
   <path class="fil2" d="M8455 5164c1,45 27,438 125,327 63,-72 -105,-284 -125,-327z"/>
   <path class="fil2" d="M8383 4183c28,-40 135,-277 76,-333 -114,-107 -82,279 -76,333z"/>
   <path class="fil2" d="M7886 4333c-20,-45 -198,-290 -268,-220 -59,59 65,109 102,130 56,31 106,73 166,90z"/>
   <path class="fil2" d="M8619 4293c57,-32 102,-68 154,-105 28,-21 145,-88 91,-140 -74,-71 -220,180 -245,245z"/>
   <path class="fil2" d="M8773 4537c95,7 409,-38 329,-129 -50,-58 -275,102 -329,129z"/>
   <path class="fil2" d="M7976 5107c-51,36 -83,77 -134,125 -23,22 -142,97 -87,151 79,76 206,-211 221,-276z"/>
   <path class="fil2" d="M8792 4773c32,32 107,52 154,72 46,18 139,75 180,30 44,-49 -39,-84 -105,-94 -80,-12 -147,-9 -229,-8z"/>
   <path class="fil2" d="M7762 4589c-42,-22 -292,-143 -329,-111 -131,115 269,119 329,111z"/>
   <path class="fil2" d="M7772 4860c-69,4 -399,55 -310,149 47,50 291,-128 310,-149z"/>
   <path class="fil2" d="M8667 5038c17,34 195,284 267,217 28,-26 13,-55 -21,-84l-246 -133z"/>
   <path class="fil2" d="M8473 3635c34,-39 58,-106 76,-165 23,-77 41,-146 -49,-152 -45,62 -35,220 -27,317z"/>
   <path class="fil2" d="M7140 4453l78 -4c-30,-21 -249,-116 -279,-113 -102,9 -32,134 201,117z"/>
   <path class="fil2" d="M7205 3767c-17,77 43,89 96,121 52,31 107,68 159,91 -20,-52 -178,-271 -255,-212z"/>
   <path class="fil2" d="M9294 4336c50,0 392,-34 304,-129 -45,-48 -267,102 -304,129z"/>
   <path class="fil2" d="M8301 4916c-6,50 -60,367 41,310 74,-42 -8,-264 -41,-310z"/>
   <path class="fil2" d="M8470 4559c47,-12 336,-94 273,-165 -49,-55 -201,77 -241,122 -3,3 -11,12 -13,15 -14,17 -6,7 -19,28z"/>
   <path class="fil2" d="M8998 3891c14,-7 283,-174 228,-232 -8,-4 -2,-16 -43,-10 -67,9 -165,189 -185,242z"/>
   <path class="fil2" d="M7915 3678c-6,-57 -32,-392 -121,-297 -36,38 12,125 29,159l92 138z"/>
   <path class="fil2" d="M8609 5130c20,-72 -28,-100 -74,-141 -42,-38 -85,-80 -128,-111 10,51 43,116 68,158 32,52 51,104 134,94z"/>
   <path class="fil2" d="M7249 5049c-68,-2 -382,44 -293,131 41,40 260,-99 293,-131z"/>
   <path class="fil2" d="M8154 4490c-14,-73 -112,-336 -189,-256 -39,40 49,117 69,136 56,53 80,87 120,120z"/>
   <path class="fil2" d="M8776 4924c24,-114 -193,-142 -289,-151 33,30 87,66 131,93 48,30 83,81 158,58z"/>
   <path class="fil2" d="M8089 4832c-32,11 -322,127 -255,190 62,59 234,-140 255,-190z"/>
   <path class="fil2" d="M8253 4458c21,-85 50,-243 20,-314 -88,-7 -83,51 -69,137 10,63 34,127 49,177z"/>
   <path class="fil2" d="M8063 5193c80,15 75,-25 89,-104 11,-60 25,-121 33,-181 -39,27 -73,87 -96,131 -28,54 -57,95 -26,154z"/>
   <path class="fil2" d="M8066 4588c-67,-45 -191,-184 -284,-163 -13,81 43,95 105,119 51,20 124,43 179,44z"/>
   <path class="fil2" d="M9343 4841c30,20 282,120 320,77 88,-98 -264,-84 -320,-77z"/>
   <path class="fil2" d="M8043 4696c-58,-6 -374,-52 -319,52 29,57 280,-30 319,-52z"/>
   <path class="fil2" d="M8380 4479l111 -133c40,-65 69,-106 19,-158 -64,9 -67,55 -84,120 -15,57 -35,114 -46,171z"/>
   <path class="fil2" d="M8510 4677l191 37c61,2 147,0 120,-77 -61,-37 -234,25 -311,40z"/>
   <path class="fil3" d="M5673 2685c41,-24 877,-630 932,-675 22,-18 2,-66 -34,-55 -32,10 -78,57 -99,75 -101,82 -779,629 -799,655z"/>
   <path class="fil3" d="M4284 3871c29,7 93,-58 120,-80 82,-67 777,-628 798,-654 -50,28 -657,473 -756,545 -41,30 -82,60 -124,90 -14,11 -52,35 -59,46 -11,17 -3,46 21,53z"/>
   <path class="fil3" d="M5167 2712c-22,-29 -607,-596 -657,-644l-163 -159c-19,-17 -50,-16 -60,12 -11,32 74,93 98,113 94,82 762,669 782,678z"/>
   <path class="fil3" d="M6187 4209c-2,-8 -12,-29 -46,-90l-220 -394c-96,-173 -194,-364 -297,-531 2,25 109,232 129,273l328 676c36,75 48,95 56,100 29,21 55,-9 50,-34z"/>
   <path class="fil3" d="M5362 2624l-121 -1143c-1,-11 -2,-23 -5,-35 -10,-45 -66,-51 -67,5 -1,30 10,69 12,85 9,53 16,102 26,155 13,79 144,901 155,933z"/>
   <path class="fil3" d="M4689 1629c2,4 4,9 7,14l107 193c49,87 98,175 147,262 95,172 193,362 296,527 -1,-20 -21,-49 -30,-68l-229 -471c-43,-91 -87,-180 -131,-270l-97 -200c-4,-8 -7,-15 -10,-20 -24,-39 -78,-15 -60,33z"/>
   <path class="fil3" d="M5732 2782c29,-3 901,-251 997,-279 26,-8 92,-18 120,-39 30,-22 5,-68 -25,-60l-945 325c-40,14 -113,35 -147,53z"/>
   <path class="fil3" d="M5395 3272c-10,14 -5,4 -10,21 -16,56 -48,221 -64,264l-45 176c-3,13 -5,23 -8,36 -26,115 -64,248 -87,354l-35 141c-13,60 -40,125 5,135 38,9 43,-30 45,-49l174 -935c7,-35 24,-112 25,-143z"/>
   <path class="fil3" d="M5515 3231c-3,28 10,114 14,151 5,49 12,98 16,149 9,99 22,197 32,296l47 445c4,35 1,130 38,138 66,15 34,-90 28,-123l-124 -754c-8,-52 -41,-274 -51,-302z"/>
   <path class="fil3" d="M5687 3095c25,32 609,596 667,653l169 165c21,18 53,18 62,-11 10,-33 -74,-91 -98,-112 -38,-33 -76,-66 -114,-99 -77,-67 -151,-132 -228,-199 -152,-131 -312,-267 -458,-397z"/>
   <path class="fil3" d="M5115 2932c-22,-4 -53,-6 -77,-7l-222 -17c-268,-25 -556,-38 -823,-64 -96,-10 -82,67 -15,68l833 16c53,1 101,2 153,3 27,1 50,1 75,1 23,1 53,4 76,0z"/>
   <path class="fil3" d="M5592 2599c23,-22 62,-90 83,-121 28,-40 56,-80 83,-122 54,-84 108,-160 163,-244l245 -363c14,-21 26,-41 40,-61 9,-12 16,-21 19,-29 12,-31 -31,-60 -57,-38 -12,11 -22,36 -53,87l-226 382c-47,84 -100,168 -149,252 -25,43 -49,83 -74,127l-74 130z"/>
   <path class="fil3" d="M5788 2893c18,7 129,14 147,14 130,6 295,24 433,33l508 40c20,1 57,11 68,-21 19,-57 -76,-48 -122,-49 -49,-1 -98,-1 -147,-2l-587 -12c-29,0 -275,-8 -300,-3z"/>
   <path class="fil3" d="M4288 3280c-48,13 -96,27 -145,41 -32,8 -126,24 -133,56 -7,28 18,46 42,42l808 -279c51,-17 264,-87 294,-103l-866 243z"/>
   <path class="fil3" d="M5280 3224l-170 249c-56,83 -109,163 -164,247l-250 369c-19,30 -83,101 -26,121 30,11 46,-24 57,-44l259 -438c50,-85 100,-167 149,-252l145 -252z"/>
   <path class="fil3" d="M5114 2815c-23,-15 -47,-23 -72,-34l-342 -156c-45,-20 -90,-39 -135,-61l-409 -186c-58,-26 -115,-65 -130,-16 -10,35 28,46 48,54l348 134c122,43 287,112 413,160l279 105z"/>
   <path class="fil3" d="M5476 2558c13,-20 15,-49 20,-73l19 -70c14,-47 20,-95 33,-142l70 -283c6,-25 14,-46 19,-70 6,-26 11,-46 16,-72 11,-47 26,-93 36,-141l51 -213c4,-17 23,-60 -19,-69 -45,-9 -50,60 -60,120l-53 288c-17,77 -35,210 -53,287l-79 438z"/>
   <path class="fil3" d="M5753 3007l960 438c54,23 118,69 133,16 12,-42 -55,-55 -113,-78l-980 -376z"/>
   <path class="fil3" d="M5325 2665c-28,-109 -106,-355 -143,-473 -25,-79 -49,-160 -73,-239 -10,-34 -58,-224 -85,-231 -18,-4 -37,12 -35,30 0,3 312,869 336,913z"/>
   <path class="fil3" d="M5158 2769c-24,-24 -346,-232 -404,-270 -68,-45 -133,-88 -201,-133 -35,-23 -67,-44 -102,-67 -21,-14 -87,-74 -102,-22 -9,32 69,65 91,78 71,41 689,407 718,414z"/>
   <path class="fil3" d="M5696 2841c95,-5 374,-42 487,-55l368 -43c26,-2 109,-4 117,-29 18,-58 -71,-32 -98,-27 -42,7 -84,14 -126,21 -69,13 -716,121 -748,133z"/>
   <path class="fil3" d="M5460 3191c-8,34 -6,90 -9,129 -2,44 -4,82 -6,126l-13 250c-3,44 -4,82 -7,128l-12 251c-1,14 -5,43 -1,65 6,40 52,32 54,-3 3,-125 -1,-913 -6,-946z"/>
   <path class="fil3" d="M6451 2294c-262,151 -532,304 -791,459 37,-9 194,-96 241,-119 81,-41 162,-81 243,-123l364 -183c17,-12 24,-32 4,-49 -18,-15 -42,4 -61,15z"/>
   <path class="fil3" d="M5168 2977c-30,-2 -672,75 -729,82 -50,7 -224,15 -233,44 -18,58 76,30 102,26 40,-7 81,-15 122,-22l493 -86c41,-7 82,-14 122,-21 33,-5 93,-13 123,-23z"/>
   <path class="fil3" d="M5517 2620c20,-30 36,-78 50,-112l307 -724c7,-16 18,-48 -15,-56 -34,-7 -48,59 -59,94 -29,87 -99,264 -122,341l-60 170c-10,24 -100,268 -101,287z"/>
   <path class="fil3" d="M5622 3094c26,45 448,602 526,707 25,35 45,73 79,85 55,-29 5,-66 -24,-100l-581 -692z"/>
   <path class="fil3" d="M4734 3790c57,-67 524,-622 540,-652l-600 640c-17,18 -85,76 -30,92 29,9 71,-57 90,-80z"/>
   <path class="fil3" d="M5252 2722c-25,-45 -465,-626 -544,-731 -9,-13 -27,-41 -37,-50 -15,-14 -43,-11 -49,11 -8,28 123,166 148,196 157,189 330,387 482,574z"/>
   <path class="fil3" d="M5356 3197l-98 226c-31,75 -62,147 -94,222l-140 333c-8,17 -16,37 -24,55 -27,56 33,87 57,12l291 -817c2,-5 5,-13 5,-16 3,-13 2,-2 3,-15z"/>
   <path class="fil3" d="M5543 3132c7,29 27,89 37,123l222 732c8,27 22,104 51,107 57,6 19,-71 7,-101l-274 -746 -43 -115z"/>
   <path class="fil3" d="M5573 2707l621 -662c20,-21 92,-82 36,-100 -28,-9 -74,61 -91,81l-566 681z"/>
   <path class="fil3" d="M5127 2873c-13,-8 -4,-4 -18,-8 -3,-1 -9,-2 -13,-3l-552 -131c-20,-4 -36,-11 -57,-16l-174 -40c-40,-8 -97,-38 -107,3 -11,42 43,38 96,49l766 138c24,4 32,8 59,8z"/>
   <path class="fil3" d="M5228 3054c-221,109 -446,228 -666,336 -46,22 -166,73 -204,108 -21,19 7,52 27,44 50,-20 159,-90 204,-116l639 -372z"/>
   <path class="fil3" d="M5699 3036c22,21 73,51 100,68 33,22 66,44 99,66 75,49 495,333 586,384 32,18 56,-21 26,-47 -17,-15 -42,-27 -55,-34 -201,-112 -440,-254 -644,-374 -17,-10 -35,-21 -53,-31 -11,-6 -18,-11 -27,-16l-21 -12c-13,-5 -3,-1 -11,-4z"/>
   <path class="fil3" d="M5741 2941c11,7 2,3 14,7l307 72c12,4 17,7 28,9 21,5 38,8 59,13 22,4 35,9 57,15l233 54c42,15 76,16 116,28 23,6 101,40 113,0 13,-43 -56,-42 -96,-50 -41,-9 -78,-13 -118,-21l-713 -127z"/>
   <path class="fil3" d="M5414 2609l49 -901c1,-18 6,-49 -18,-57 -50,-17 -38,76 -38,100l4 732c0,29 -3,101 3,126z"/>
   <path class="fil0 str0" d="M6422 429l2619 955c220,80 335,326 255,546l-1275 3497 -2878 0 -479 -174c-220,-80 -334,-326 -254,-547l1466 -4022c80,-221 326,-335 546,-255z"/>
   <path class="fil4" d="M7065 3902c9,-160 200,-394 335,-504 201,-162 358,-95 431,-210 118,-183 -176,-264 -475,100 -95,115 -226,292 -257,483 -19,-26 -7,3 -14,-34 -10,-48 14,-236 26,-280 116,-441 533,-673 956,-780 89,-23 204,-18 272,-76 156,-133 -50,-385 -616,-82 -154,83 -273,197 -370,325 -150,198 -263,491 -277,759 -4,58 0,112 4,170 3,63 -10,67 -15,129z"/>
   <path class="fil4" d="M6795 3850c-35,-247 -265,-585 -478,-737 -283,-201 -764,-225 -952,-40 -62,61 -71,172 9,209 108,50 387,-143 812,-53 353,75 515,315 609,621z"/>
   <path class="fil4" d="M6904 3823c-3,-404 -47,-1092 -251,-1447 -43,-75 -200,-296 -331,-190 -188,153 189,329 376,693 164,320 202,546 206,944z"/>
   <path class="fil4" d="M6784 3959c-112,-59 -145,-102 -298,-146 -471,-136 -939,186 -951,339 -6,78 47,112 124,84 90,-32 120,-177 385,-297 299,-135 473,-77 740,20z"/>
   <path class="fil4" d="M6722 3489c-51,-190 -242,-590 -371,-730 -173,-186 -518,-123 29,331 62,52 135,123 184,177 101,111 81,106 146,204 1,3 4,7 6,9 1,2 3,6 6,9z"/>
   <path class="fil4" d="M7049 4016c136,57 234,17 518,198 80,50 141,103 204,157 28,24 155,176 219,71 88,-144 -234,-298 -345,-346 -109,-48 -479,-139 -596,-80z"/>
   <path class="fil4" d="M7021 3372c67,-211 62,-313 204,-549 141,-234 348,-379 245,-477 -159,-151 -497,598 -449,1026z"/>
   <path class="fil4" d="M7256 3818c146,-58 263,-60 388,25 104,70 133,213 311,185 63,-84 60,-134 -9,-207 -36,-38 -129,-96 -200,-120 -91,-30 -198,-33 -289,-5 -72,21 -157,63 -201,122z"/>
   <path class="fil4" d="M7297 3682c167,-103 266,-177 534,-171 312,8 518,172 508,-60 -128,-116 -424,-82 -599,-34 -157,44 -382,179 -443,265z"/>
   <path class="fil4" d="M6827 4020c-153,-38 -321,13 -431,84 -343,219 -217,490 -47,246 227,-325 206,-217 478,-330z"/>
   <path class="fil4" d="M6640 3713c-44,-80 -187,-173 -307,-216 -110,-38 -374,-76 -410,43 -28,92 58,130 139,110 69,-17 105,-49 195,-59 171,-19 281,54 383,122z"/>
   <path class="fil4" d="M7647 3966c0,-60 -13,-67 -74,-79 -107,-22 -273,-10 -367,34 93,2 145,-3 237,14 84,16 127,55 204,31z"/>
   <path class="fil4" d="M6240 3347c-62,63 141,93 359,258 -42,-93 -305,-312 -359,-258z"/>
   <path class="fil4" d="M6955 3314c14,-163 -7,-210 45,-397 6,-19 15,-44 14,-64 0,-44 -5,-36 -24,-57 -53,14 -46,26 -57,94 -7,49 -11,101 -12,151 -1,76 36,252 34,273z"/>
   <path class="fil4" d="M7264 3637c135,-166 338,-205 361,-244 84,-144 -219,-20 -361,244z"/>
   <path class="fil4" d="M6719 3873c-27,-56 -242,-260 -367,-227 0,67 7,65 68,84 227,71 219,107 299,143z"/>
   <path class="fil4" d="M6609 2997c-22,73 81,172 138,314 17,40 24,86 41,119 5,-112 -73,-377 -125,-424 -27,-25 -38,-14 -54,-9z"/>
   <path class="fil4" d="M7212 3378c3,-2 7,-10 8,-8 1,3 7,-6 8,-7 18,-23 5,-5 19,-25 131,-194 267,-259 213,-311 -61,-57 -230,255 -248,351z"/>
   <polygon class="fil0" points="0,5471 12531,5471 12531,5785 0,5785 "/>
   <path class="fil4" d="M6795 3850c-35,-247 -265,-585 -478,-737 -283,-201 -764,-225 -952,-40 -62,61 -71,172 9,209 108,50 387,-143 812,-53 353,75 515,315 609,621z"/>
   <path class="fil4" d="M6904 3823c-3,-404 -47,-1092 -251,-1447 -43,-75 -200,-296 -331,-190 -188,153 189,329 376,693 164,320 202,546 206,944z"/>
   <path class="fil4" d="M6784 3959c-112,-59 -145,-102 -298,-146 -471,-136 -939,186 -951,339 -6,78 47,112 124,84 90,-32 120,-177 385,-297 299,-135 473,-77 740,20z"/>
   <path class="fil4" d="M6722 3489c-51,-190 -242,-590 -371,-730 -173,-186 -518,-123 29,331 62,52 135,123 184,177 101,111 81,106 146,204 1,3 4,7 6,9 1,2 3,6 6,9z"/>
   <path class="fil4" d="M7049 4016c136,57 234,17 518,198 80,50 141,103 204,157 28,24 155,176 219,71 88,-144 -234,-298 -345,-346 -109,-48 -479,-139 -596,-80z"/>
   <path class="fil4" d="M7021 3372c67,-211 62,-313 204,-549 141,-234 348,-379 245,-477 -159,-151 -497,598 -449,1026z"/>
   <path class="fil4" d="M7256 3818c146,-58 263,-60 388,25 104,70 133,213 311,185 63,-84 60,-134 -9,-207 -36,-38 -129,-96 -200,-120 -91,-30 -198,-33 -289,-5 -72,21 -157,63 -201,122z"/>
   <path class="fil4" d="M7297 3682c167,-103 266,-177 534,-171 312,8 518,172 508,-60 -128,-116 -424,-82 -599,-34 -157,44 -382,179 -443,265z"/>
   <path class="fil4" d="M6827 4020c-153,-38 -321,13 -431,84 -343,219 -217,490 -47,246 227,-325 206,-217 478,-330z"/>
   <path class="fil4" d="M6640 3713c-44,-80 -187,-173 -307,-216 -110,-38 -374,-76 -410,43 -28,92 58,130 139,110 69,-17 105,-49 195,-59 171,-19 281,54 383,122z"/>
   <path class="fil4" d="M7647 3966c0,-60 -13,-67 -74,-79 -107,-22 -273,-10 -367,34 93,2 145,-3 237,14 84,16 127,55 204,31z"/>
   <path class="fil4" d="M6240 3347c-62,63 141,93 359,258 -42,-93 -305,-312 -359,-258z"/>
   <path class="fil4" d="M6955 3314c14,-163 -7,-210 45,-397 6,-19 15,-44 14,-64 0,-44 -5,-36 -24,-57 -53,14 -46,26 -57,94 -7,49 -11,101 -12,151 -1,76 36,252 34,273z"/>
   <path class="fil4" d="M7264 3637c135,-166 338,-205 361,-244 84,-144 -219,-20 -361,244z"/>
   <path class="fil4" d="M6719 3873c-27,-56 -242,-260 -367,-227 0,67 7,65 68,84 227,71 219,107 299,143z"/>
   <path class="fil4" d="M6609 2997c-22,73 81,172 138,314 17,40 24,86 41,119 5,-112 -73,-377 -125,-424 -27,-25 -38,-14 -54,-9z"/>
   <path class="fil4" d="M7212 3378c3,-2 7,-10 8,-8 1,3 7,-6 8,-7 18,-23 5,-5 19,-25 131,-194 267,-259 213,-311 -61,-57 -230,255 -248,351z"/>
  </g>
 </g>
</svg>
