<?xml version="1.0" encoding="UTF-8" standalone="no"?>
<svg
   xmlns:dc="http://purl.org/dc/elements/1.1/"
   xmlns:cc="http://creativecommons.org/ns#"
   xmlns:rdf="http://www.w3.org/1999/02/22-rdf-syntax-ns#"
   xmlns:svg="http://www.w3.org/2000/svg"
   xmlns="http://www.w3.org/2000/svg"
   xmlns:sodipodi="http://sodipodi.sourceforge.net/DTD/sodipodi-0.dtd"
   xmlns:inkscape="http://www.inkscape.org/namespaces/inkscape"
   sodipodi:docname="2.svg"
   inkscape:version="1.0 (4035a4fb49, 2020-05-01)"
   id="svg8"
   version="1.1"
   viewBox="0 0 125.30211 74.408539"
   height="74.408539mm"
   width="125.30211mm">
  <defs
     id="defs2">
    <style
       type="text/css"
       id="style1496">
   <![CDATA[
    .str0 {stroke:#FEFEFE;stroke-width:50}
    .fil2 {fill:#FEFEFE}
    .fil3 {fill:#FFF212}
    .fil4 {fill:#ED3237}
    .fil1 {fill:#00AFEF}
    .fil0 {fill:#2F3686}
   ]]>
  </style>
  </defs>
  <sodipodi:namedview
     fit-margin-bottom="0"
     fit-margin-right="0"
     fit-margin-left="0"
     fit-margin-top="0"
     inkscape:window-maximized="0"
     inkscape:window-y="0"
     inkscape:window-x="160"
     inkscape:window-height="1030"
     inkscape:window-width="1424"
     showgrid="false"
     inkscape:document-rotation="0"
     inkscape:current-layer="layer1"
     inkscape:document-units="mm"
     inkscape:cy="136.64464"
     inkscape:cx="211.37526"
     inkscape:zoom="0.98994949"
     inkscape:pageshadow="2"
     inkscape:pageopacity="0.0"
     borderopacity="1.0"
     bordercolor="#666666"
     pagecolor="#ffffff"
     id="base" />
  <metadata
     id="metadata5">
    <rdf:RDF>
      <cc:Work
         rdf:about="">
        <dc:format>image/svg+xml</dc:format>
        <dc:type
           rdf:resource="http://purl.org/dc/dcmitype/StillImage" />
        <dc:title></dc:title>
      </cc:Work>
    </rdf:RDF>
  </metadata>
  <g
     transform="translate(-22.607927,-50.727407)"
     id="layer1"
     inkscape:groupmode="layer"
     inkscape:label="Layer 1">
    <g
       transform="matrix(0.00999937,0,0,0.00999937,22.607927,50.730608)"
       id="Layer_x0020_1"
       style="clip-rule:evenodd;fill-rule:evenodd;image-rendering:optimizeQuality;shape-rendering:geometricPrecision;text-rendering:geometricPrecision">
  <metadata
   id="CorelCorpID_0Corel-Layer" />

  <g
   id="_912501632">
   <path
   id="path1501"
   d="M 1495,2411 3848,917 c 198,-126 463,-67 588,131 l 2296,3614 c 126,198 67,463 -131,588 l -278,177 H 2906 L 1364,3000 c -126,-198 -67,-463 131,-589 z"
   class="fil0 str0" />

   <path
   id="path1503"
   d="m 2430,4010 64,119 125,-65 c 41,-22 91,-42 136,-59 97,-35 194,-63 301,-85 207,-42 418,-53 630,-43 20,1 79,10 90,2 -3,-15 -50,-16 -77,-20 -443,-62 -860,-36 -1269,151 z"
   class="fil1" />

   <path
   id="path1505"
   d="m 4462,3879 c 6,4 -1,1 8,3 l 30,-1 c 90,-7 199,-8 289,-4 103,4 205,14 305,31 95,16 185,37 273,64 120,37 151,59 248,95 l 51,-122 -61,-23 c -65,-21 -139,-39 -205,-53 -256,-52 -535,-55 -794,-20 -26,3 -50,7 -76,11 -29,4 -65,4 -68,19 z"
   class="fil1" />

   <path
   id="path1507"
   d="m 3777,2376 c 9,18 23,39 34,59 190,333 267,733 270,1117 0,18 -5,32 9,36 13,-18 14,-238 14,-276 0,-264 -39,-545 -128,-787 -16,-43 -73,-191 -95,-213 -14,6 -98,56 -104,64 z"
   class="fil1" />

   <path
   id="path1509"
   d="m 4158,3312 3,156 c 1,22 2,43 3,65 3,37 -2,52 13,55 5,-8 7,-152 8,-176 11,-175 34,-328 75,-498 23,-96 57,-197 94,-285 29,-69 58,-127 94,-191 11,-21 26,-41 36,-62 -11,-13 -99,-61 -107,-64 -9,27 -34,72 -47,102 -15,35 -31,72 -44,109 -90,258 -128,507 -128,789 z"
   class="fil1" />

   <path
   id="path1511"
   d="m 4373,3497 c 0,15 -3,12 -4,22 7,5 4,6 12,5 l 3,-7 c -8,-24 -1,-40 24,-40 10,-9 57,-90 70,-111 62,-96 125,-181 198,-265 44,-50 87,-100 135,-143 36,-33 60,-58 100,-89 60,-47 93,-75 161,-117 15,-9 45,-25 57,-35 -10,-31 -52,-77 -61,-106 -24,11 -89,64 -113,84 -45,36 -114,100 -153,143 l -48,53 c -95,105 -175,221 -248,343 -19,33 -131,234 -133,263 z"
   class="fil1" />

   <path
   id="path1513"
   d="m 3171,2613 c -12,17 -58,88 -62,104 11,9 97,60 130,85 84,67 158,123 232,200 169,175 291,349 409,568 l 29,55 c 6,10 2,10 12,12 5,-6 4,-1 3,-10 -1,-2 -5,-12 -6,-15 l -38,-88 c -54,-117 -103,-217 -170,-327 -88,-142 -143,-212 -247,-331 -60,-69 -243,-235 -292,-253 z"
   class="fil1" />

   <path
   id="path1515"
   d="m 2862,2924 -35,116 78,27 c 185,62 327,146 482,259 115,84 264,221 360,328 9,10 14,19 24,28 3,3 66,81 51,40 l -287,-346 c -123,-125 -474,-412 -673,-452 z"
   class="fil1" />

   <path
   id="path1517"
   d="m 4447,5375 c 17,8 91,14 115,13 15,-420 -110,-781 -301,-1134 -19,-34 -10,-25 -22,-27 -4,10 39,101 46,118 88,215 153,461 170,696 12,164 -1,189 -8,334 z"
   class="fil1" />

   <path
   id="path1519"
   d="m 3656,5382 c 23,3 87,-8 115,-10 -7,-143 -20,-168 -9,-331 8,-104 23,-207 45,-303 36,-156 88,-313 151,-458 10,-24 26,-49 20,-60 -13,5 -61,104 -67,116 -175,346 -257,641 -255,1046 z"
   class="fil1" />

   <path
   id="path1521"
   d="m 5280,3089 -48,-111 c -25,7 -99,52 -124,68 -42,26 -79,51 -117,78 -79,55 -104,83 -161,128 -11,9 -14,13 -25,23 l -73,69 c -17,17 -32,35 -49,49 -21,18 -29,34 -47,51 -12,12 -13,16 -23,26 -34,36 -78,92 -108,131 -29,37 -55,74 -84,112 -11,15 -16,44 25,-7 75,-94 242,-251 347,-331 171,-132 280,-196 471,-277 2,-1 5,-3 7,-4 1,0 4,-2 5,-2 z"
   class="fil1" />

   <path
   id="path1523"
   d="m 5028,4635 c 20,28 39,59 57,89 l 74,145 c 8,15 15,37 23,50 l 105,-45 c -8,-25 -43,-81 -57,-104 -21,-34 -42,-67 -64,-96 -12,-17 -21,-30 -34,-46 -10,-14 -25,-33 -35,-45 l -55,-63 c -75,-94 -232,-221 -314,-278 -46,-33 -95,-63 -146,-94 -19,-12 -141,-84 -154,-78 3,8 120,84 136,96 33,24 103,76 133,104 53,48 100,85 152,144 68,74 122,138 179,221 z"
   class="fil1" />

   <path
   id="path1525"
   d="m 4016,5168 c 19,-4 72,-20 84,-30 -20,-77 -35,-95 -54,-200 -27,-155 -28,-317 -11,-474 3,-29 34,-208 30,-216 -6,4 -6,6 -10,20 -71,262 -112,516 -63,790 7,36 19,77 24,110 z"
   class="fil1" />

   <path
   id="path1527"
   d="m 4260,3603 c 9,-5 30,-95 35,-111 72,-243 170,-447 338,-633 11,-13 27,-26 36,-38 -10,-14 -51,-55 -65,-60 -7,13 -21,27 -32,41 -131,170 -210,344 -265,556 -9,35 -55,226 -47,245 z"
   class="fil1" />

   <path
   id="path1529"
   d="m 3588,2831 c 9,14 24,26 35,39 6,6 12,10 18,17 162,173 289,464 344,699 1,4 3,11 4,14 1,5 1,5 2,8 3,6 1,2 5,6 l 2,-5 c 4,-25 -42,-221 -48,-242 -21,-79 -44,-152 -74,-224 -52,-126 -137,-280 -227,-373 -16,16 -51,43 -61,61 z"
   class="fil1" />

   <path
   id="path1531"
   d="m 3339,4887 85,23 c 23,-134 114,-309 186,-419 41,-63 85,-118 128,-170 l 71,-79 c 15,-15 68,-62 74,-77 -14,-2 -22,12 -44,30 -42,34 -131,115 -164,152 l -76,85 c -13,16 -24,28 -36,44 -83,115 -186,266 -224,411 z"
   class="fil1" />

   <path
   id="path1533"
   d="m 4813,4910 86,-22 c -31,-136 -169,-347 -258,-454 l -116,-125 c -13,-13 -26,-23 -39,-37 l -85,-75 c -11,-10 -32,-32 -46,-33 4,11 63,66 72,76 29,34 78,86 104,119 91,121 133,174 204,325 25,53 70,165 78,226 z"
   class="fil1" />

   <path
   id="path1535"
   d="m 4436,3800 c 12,2 63,-28 86,-39 192,-91 397,-158 615,-159 35,0 98,8 125,5 l 9,-87 c -181,-1 -321,30 -472,86 -68,26 -129,55 -191,88 l -133,76 c -11,8 -36,18 -39,30 z"
   class="fil1" />

   <path
   id="path1537"
   d="m 2975,3606 c 15,4 97,-4 123,-4 42,0 83,2 123,7 178,21 380,89 537,173 19,10 33,22 44,17 l -39,-28 c -42,-25 -89,-55 -132,-77 -237,-118 -375,-167 -663,-174 z"
   class="fil1" />

   <path
   id="path1539"
   d="m 2912,4093 c 6,21 36,52 46,75 l 81,-50 c 28,-17 55,-32 85,-46 182,-86 387,-128 590,-135 15,-1 49,1 59,-6 -1,-1 -2,-2 -2,-2 l -116,-8 c -125,-2 -241,6 -362,31 -71,14 -138,33 -203,58 -58,22 -167,80 -178,83 z"
   class="fil1" />

   <path
   id="path1541"
   d="m 4472,3941 c 2,5 -2,9 22,10 202,7 443,60 618,151 75,39 99,58 164,103 11,-10 47,-58 52,-72 -27,-14 -53,-31 -83,-46 -247,-130 -494,-150 -773,-146 z"
   class="fil1" />

   <path
   id="path1543"
   d="m 3580,4873 71,9 c 6,-118 64,-281 110,-372 50,-98 104,-191 172,-277 8,-11 9,-7 10,-20 -40,19 -188,233 -221,289 -31,52 -61,113 -85,173 -17,42 -56,151 -57,198 z"
   class="fil1" />

   <path
   id="path1545"
   d="m 3564,2712 c 4,-1 10,-1 14,0 9,0 19,0 28,1 20,0 40,1 59,1 -15,-22 -67,-48 -83,-71 l 37,-100 c -23,8 -68,47 -93,58 -24,-15 -72,-59 -87,-66 l 29,105 c -16,16 -59,40 -79,54 -9,7 -6,3 -9,11 l 106,3 c 2,9 31,101 33,105 6,-19 29,-98 45,-101 z"
   class="fil1" />

   <path
   id="path1547"
   d="m 4227,3584 c 9,-10 13,-84 16,-105 4,-36 9,-70 16,-106 12,-66 27,-132 47,-193 31,-93 63,-166 113,-246 17,-27 34,-47 50,-71 0,-1 -1,-3 -1,-2 -1,0 -2,-2 -2,-2 l -39,-30 c -71,114 -111,185 -147,328 -34,132 -52,280 -53,427 z"
   class="fil1" />

   <path
   id="path1549"
   d="m 3118,3468 c 219,1 433,116 602,234 20,14 53,43 71,51 -8,-19 -121,-104 -136,-115 -135,-101 -355,-218 -535,-225 z"
   class="fil1" />

   <path
   id="path1551"
   d="m 4446,3752 141,-97 c 154,-96 336,-184 532,-188 l -1,-53 c -46,-4 -163,31 -206,45 -122,41 -228,106 -329,179 -24,17 -129,99 -137,114 z"
   class="fil1" />

   <path
   id="path1553"
   d="m 3951,5278 49,-17 c -9,-40 -30,-89 -45,-159 -13,-58 -21,-118 -26,-179 -4,-65 -5,-131 -1,-196 1,-26 20,-175 16,-182 -10,17 -29,143 -33,171 -17,131 -18,261 1,391 6,43 22,137 39,171 z"
   class="fil1" />

   <path
   id="path1555"
   d="m 2795,4371 c 14,9 27,21 40,31 l 149,-147 c 11,-9 24,-19 35,-27 69,-52 146,-98 227,-135 21,-9 167,-67 171,-71 -57,-2 -286,98 -348,134 -55,31 -103,61 -148,96 -30,23 -113,92 -126,119 z"
   class="fil1" />

   <path
   id="path1557"
   d="m 4310,4946 54,5 c 2,-139 -20,-274 -57,-395 -17,-56 -109,-293 -137,-315 1,15 50,124 59,152 40,120 67,216 79,345 8,75 4,134 2,208 z"
   class="fil1" />

   <path
   id="path1559"
   d="m 3431,5180 52,-2 c 5,-24 2,-74 4,-103 6,-90 26,-194 52,-278 30,-96 53,-151 94,-238 10,-21 32,-56 37,-76 l -46,71 c -14,25 -30,50 -42,77 -25,54 -48,102 -71,162 -34,89 -86,281 -80,387 z"
   class="fil1" />

   <path
   id="path1561"
   d="m 5102,4404 c -116,-144 -273,-249 -454,-322 -43,-17 -155,-59 -198,-66 6,7 -2,1 9,8 l 79,30 c 83,33 174,78 246,126 l 107,77 c 56,46 126,118 169,179 10,-5 39,-25 42,-32 z"
   class="fil1" />

   <path
   id="path1563"
   d="m 3804,2863 c 17,28 44,56 76,115 67,124 111,256 134,395 7,38 2,29 21,29 2,-120 -62,-338 -119,-453 -25,-51 -62,-105 -69,-120 -9,3 -16,10 -23,15 -3,2 -6,4 -10,8 -10,9 -3,-1 -10,11 z"
   class="fil1" />

   <path
   id="path1565"
   d="m 4385,3689 89,-153 c 75,-114 124,-175 221,-266 45,-43 137,-105 140,-108 -4,-11 -21,-39 -29,-44 -50,35 -94,74 -134,115 -132,139 -190,242 -273,416 -5,10 -19,32 -14,40 z"
   class="fil1" />

   <path
   id="path1567"
   d="m 5105,5063 53,-11 c -6,-80 -112,-277 -158,-348 l -136,-180 c -6,-7 -9,-9 -15,-16 -6,-8 -7,-11 -15,-17 -14,-14 -19,-19 -30,-32 -10,-10 -22,-28 -35,-31 l 105,134 c 91,124 213,347 231,501 z"
   class="fil1" />

   <path
   id="path1569"
   d="m 3304,4664 48,20 c 8,-13 40,-92 74,-147 55,-90 127,-172 201,-244 26,-25 24,-27 57,-55 12,-10 16,-15 28,-27 12,-12 27,-13 18,-28 -23,4 -206,171 -241,212 -39,46 -62,68 -102,124 -25,36 -66,98 -83,145 z"
   class="fil1" />

   <path
   id="path1571"
   d="m 4887,4063 c -21,-8 -46,-21 -57,-13 79,21 251,119 317,167 87,63 147,124 219,201 9,12 19,27 28,34 13,-10 34,-21 41,-34 -40,-44 -84,-91 -131,-128 -126,-101 -263,-173 -417,-227 z"
   class="fil1" />

   <path
   id="path1573"
   d="m 2810,3535 -89,31 c 5,3 1,1 10,5 3,1 8,2 11,3 l 69,21 10,87 c 1,-1 1,-1 2,-2 l 46,-68 91,25 -55,-75 c 8,-24 40,-56 51,-80 l -87,30 c -18,-12 -41,-52 -60,-71 -1,2 0,-5 -2,7 l 1,34 c 0,17 1,35 2,53 z"
   class="fil1" />

   <path
   id="path1575"
   d="m 4442,4378 c 10,17 20,31 32,48 57,86 107,192 143,290 15,42 23,93 38,135 l 51,-11 c -8,-62 -76,-206 -104,-256 -30,-54 -103,-173 -143,-214 -9,2 -7,2 -17,8 z"
   class="fil1" />

   <path
   id="path1577"
   d="m 3402,3161 28,20 c 70,46 121,95 178,153 81,84 96,121 163,213 l 11,-12 c -55,-89 -70,-137 -153,-232 -15,-16 -29,-35 -44,-51 -8,-9 -16,-15 -25,-23 -8,-9 -14,-17 -23,-26 -16,-15 -35,-30 -53,-45 -14,-12 -40,-34 -55,-41 z"
   class="fil1" />

   <path
   id="path1579"
   d="m 2943,4417 c 11,8 33,25 45,30 9,-23 63,-81 79,-99 77,-83 208,-169 313,-221 l -9,-19 c -38,12 -93,43 -126,60 -88,46 -144,92 -216,153 -17,15 -78,76 -86,96 z"
   class="fil1" />

   <path
   id="path1581"
   d="m 3318,4244 c 14,14 27,34 45,43 l 64,-59 c 77,-66 192,-124 288,-164 18,-8 42,-16 59,-25 -4,-3 -3,-4 -16,-2 l -113,34 c -80,27 -160,58 -231,103 -25,15 -84,52 -96,70 z"
   class="fil1" />

   <path
   id="path1583"
   d="m 2735,3151 c 82,-2 166,13 240,33 l 188,66 c 11,3 6,3 13,-1 6,-14 4,-11 -11,-18 -8,-4 -17,-8 -26,-13 -110,-54 -269,-114 -391,-117 z"
   class="fil1" />

   <path
   id="path1585"
   d="m 4183,4790 45,-23 c -87,-188 -101,-289 -98,-504 -1,1 -1,1 -2,3 0,2 -1,2 -1,3 -2,5 -2,2 -4,10 -12,53 -9,216 -3,268 9,89 31,170 63,243 z"
   class="fil1" />

   <path
   id="path1587"
   d="m 3978,2441 69,200 53,215 c 1,-1 1,-3 1,-2 0,0 1,-2 1,-3 4,-23 -1,16 1,-5 0,-3 -1,-12 -1,-15 -8,-71 -13,-126 -26,-198 -7,-39 -34,-183 -49,-208 z"
   class="fil1" />

   <path
   id="path1589"
   d="m 4159,2342 -72,-6 c 7,11 43,42 54,51 l -30,71 c 21,-10 51,-32 70,-37 l 55,49 -16,-73 65,-40 c -18,-9 -52,-5 -76,-10 -3,-22 -8,-56 -18,-73 -7,19 -20,54 -32,68 z"
   class="fil1" />

   <path
   id="path1591"
   d="m 4690,2694 c -11,4 -21,12 -31,18 -14,8 -19,10 -30,21 0,0 -1,1 -2,2 l 74,3 c 7,22 11,56 22,73 l 27,-69 75,3 -29,-25 c -11,-10 -19,-14 -27,-24 l 26,-69 c -22,8 -45,30 -65,37 -19,-12 -40,-35 -59,-45 z"
   class="fil1" />

   <path
   id="path1593"
   d="m 4876,4965 -69,-24 c 10,24 30,41 40,64 -14,17 -33,40 -45,60 l 74,-21 c 4,9 37,58 43,61 l 2,-75 72,-21 -70,-27 1,-76 z"
   class="fil1" />

   <path
   id="path1595"
   d="m 3126,3674 c -1,17 3,40 10,53 177,-24 230,-15 407,19 -3,-8 1,-3 -6,-7 -17,-11 -166,-48 -182,-51 -77,-16 -149,-21 -229,-14 z"
   class="fil1" />

   <path
   id="path1597"
   d="m 4695,3745 c 171,-34 237,-41 407,-18 l 12,-53 c -166,-10 -253,14 -400,60 -16,5 -17,4 -19,11 z"
   class="fil1" />

   <path
   id="path1599"
   d="m 5018,3303 c 35,-8 103,-31 164,-44 55,-12 124,-24 183,-27 l -8,-53 c -40,2 -141,37 -180,51 -28,10 -57,21 -82,32 -14,6 -26,11 -39,18 -19,9 -30,12 -38,23 z"
   class="fil1" />

   <path
   id="path1601"
   d="m 2590,3826 13,52 164,-42 c 55,-11 124,-23 181,-24 -3,-11 9,1 -4,-5 -17,-8 -161,-3 -176,-2 -63,4 -119,15 -178,21 z"
   class="fil1" />

   <path
   id="path1603"
   d="m 5354,3528 -63,-20 c 6,18 25,36 33,54 -7,16 -29,35 -37,52 l 62,-17 c 14,18 24,39 38,52 l 2,-64 60,-18 c -14,-12 -43,-15 -59,-26 l 1,-62 c -8,7 -33,40 -37,49 z"
   class="fil1" />

   <path
   id="path1605"
   d="m 3021,2840 -55,-25 28,54 -41,45 61,-9 28,52 c 0,-1 1,-3 1,-2 l 9,-59 59,-11 -54,-28 7,-60 z"
   class="fil1" />

   <path
   id="path1607"
   d="m 2834,4143 -52,-24 c 7,21 22,35 27,57 -9,8 -12,10 -20,20 -6,8 -13,18 -19,21 l 59,-10 c 10,15 20,39 32,51 l 7,-60 c 10,-1 19,-3 29,-5 l 27,-8 -49,-23 c -7,-21 9,-46 0,-62 -9,12 -26,35 -41,43 z"
   class="fil1" />

   <path
   id="path1609"
   d="m 3117,4614 c -9,11 -17,21 -26,33 -18,25 -33,46 -51,72 -18,28 -80,123 -89,156 l 106,46 c 9,-35 49,-112 66,-144 49,-89 104,-174 167,-251 161,-189 278,-285 497,-442 15,-11 8,-1 10,-14 -23,-11 -259,147 -309,187 -109,82 -296,256 -371,357 z"
   class="fil1" />

   <path
   id="path1611"
   d="m 4137,5257 55,-24 c -19,-4 -59,-12 -66,-28 -3,-9 -3,-42 -5,-57 -8,8 -30,45 -34,57 l -69,-14 c 10,17 30,36 43,51 -8,17 -31,51 -33,62 l 58,-26 c 20,4 27,33 51,47 -1,-17 -9,-55 0,-68 z"
   class="fil1" />

   <path
   id="path1613"
   d="m 2906,3284 -47,-2 c 7,12 23,23 35,28 l -15,49 c 14,-7 28,-19 41,-25 11,7 27,23 38,27 l -12,-46 40,-26 -47,-4 c -7,-11 -10,-31 -15,-46 z"
   class="fil1" />

   <path
   id="path1615"
   d="m 2750,4434 -43,-2 c 8,13 25,20 34,31 l -14,42 40,-25 c 8,9 25,23 35,28 l -12,-46 c 9,-4 32,-17 37,-26 l -45,-1 -13,-44 c -4,8 -6,13 -8,20 -4,10 -5,14 -11,23 z"
   class="fil1" />

   <path
   id="path1617"
   d="m 2990,3416 39,20 -7,45 33,-31 41,21 -19,-41 c 13,-16 23,-21 31,-32 l -45,5 -19,-41 c -3,13 -5,38 -12,43 -7,6 -30,3 -42,11 z"
   class="fil1" />

   <path
   id="path1619"
   d="m 5423,3169 -44,-8 14,16 c 5,6 10,11 14,17 l -20,40 43,-18 29,34 -4,-48 40,-16 c -11,-7 -25,-6 -37,-11 -1,0 -2,-1 -3,-1 -5,-2 -10,-36 -12,-44 -5,12 -14,27 -20,39 z"
   class="fil1" />

   <path
   id="path1621"
   d="m 3762,2747 -38,19 c 2,1 2,1 7,3 l 35,7 6,42 c 5,-4 0,2 7,-8 l 14,-29 44,7 -13,-18 c -6,-6 -10,-10 -15,-15 l 19,-38 -42,18 -29,-32 z"
   class="fil1" />

   <path
   id="path1623"
   d="m 3586,4947 -36,18 c 10,6 27,6 41,7 2,9 3,12 4,20 l 6,20 c 1,0 1,1 2,2 l 16,-37 43,4 -29,-27 c 2,-18 11,-24 16,-42 l -36,19 -33,-28 z"
   class="fil1" />

   <path
   id="path1625"
   d="m 4507,2559 -39,-20 18,43 -32,26 44,-4 17,39 c 7,-16 3,-23 12,-40 0,-1 1,-2 1,-2 l 37,-5 c -4,-10 -26,-18 -34,-21 l 7,-43 c -8,4 -25,21 -31,27 z"
   class="fil1" />

   <path
   id="path1627"
   d="m 5071,4459 c 6,8 20,16 31,25 l -10,37 c 8,-3 24,-15 30,-23 14,5 24,15 36,21 l -12,-38 c 12,-9 21,-16 29,-25 h -38 l -15,-37 c -21,43 9,37 -51,40 z"
   class="fil1" />

   <path
   id="path1629"
   d="m 4692,4892 -37,-15 19,35 c -7,8 -18,24 -26,30 l 41,-6 18,34 7,-40 c 31,-8 18,-2 35,-10 1,0 2,-1 3,-2 l -35,-14 3,-40 c -9,8 -20,20 -28,28 z"
   class="fil1" />

   <path
   id="path1631"
   d="m 4174,2550 -38,-8 c 9,16 12,17 23,28 l -19,35 c 11,-1 24,-8 34,-12 17,14 15,20 28,28 l -2,-37 36,-16 -38,-11 -2,-37 z"
   class="fil1" />

   <path
   id="path1633"
   d="m 4368,5040 c 17,3 29,6 15,-3 l -29,-23 c 2,-15 11,-28 17,-42 l -38,20 c -17,-9 -21,-21 -34,-28 l 8,45 c -14,5 -28,12 -37,21 l 43,5 2,9 7,33 c 19,-35 11,-41 46,-37 z"
   class="fil1" />

   <path
   id="path1635"
   d="m 5178,3418 -36,-6 24,27 -17,32 33,-13 c 8,9 19,18 26,26 l -3,-38 33,-14 -37,-10 -3,-33 c -9,4 -14,21 -20,29 z"
   class="fil1" />

   <path
   id="path1637"
   d="m 3285,4719 -30,7 29,15 -1,34 c 10,-10 13,-11 19,-24 l 36,11 -18,-31 c 10,-8 17,-16 21,-26 l -31,7 c -8,-7 -7,-10 -14,-19 l -7,-8 z"
   class="fil1" />

   <path
   id="path1639"
   d="m 3237,2969 c -10,12 -17,17 -24,29 9,-1 17,-2 26,-5 36,-9 26,7 42,32 l 3,-39 c 8,-10 26,-7 42,-15 -10,-9 -28,-13 -40,-17 l 5,-46 c -22,22 -11,11 -38,31 l -33,-14 c 5,16 23,32 17,44 z"
   class="fil1" />

   <path
   id="path1641"
   d="m 4218,4814 -32,-1 c 4,4 2,3 6,7 1,1 5,4 6,5 7,6 5,2 12,10 l -9,32 c 11,-6 18,-12 28,-18 10,6 17,13 27,18 l -8,-31 27,-21 -34,-2 c -4,-13 -5,-21 -13,-30 z"
   class="fil1" />

   <path
   id="path1643"
   d="m 4854,3081 -26,15 c 8,5 16,4 27,6 7,11 5,18 9,30 l 13,-25 33,2 -20,-20 9,-31 -26,13 c -9,-7 -14,-15 -24,-19 z"
   class="fil1" />

   <path
   id="path1645"
   d="m 3756,2570 -30,3 c 3,6 16,11 24,18 l -6,29 c 11,-6 12,-10 26,-17 l 26,14 -11,-29 c 8,-7 15,-13 22,-21 l -32,2 -10,-29 z"
   class="fil1" />

   <polygon
   id="polygon1647"
   points="4492,2777 4522,2772 4497,2755 4501,2726 4481,2744 4450,2731 4462,2758 4446,2780 4472,2779 4484,2806 "
   class="fil1" />

   <path
   id="path1649"
   d="m 2651,3687 c -1,1 -3,0 -3,1 l -26,6 24,15 -4,30 22,-19 27,13 -12,-28 c 10,-9 15,-11 20,-21 l -29,3 c -4,-9 -6,-17 -14,-24 z"
   class="fil1" />

   <path
   id="path1651"
   d="m 3142,4370 -25,1 c 2,3 15,14 18,17 l -7,23 c 10,-4 12,-7 22,-11 10,7 9,9 20,13 l -6,-26 21,-13 -26,-2 -7,-24 z"
   class="fil1" />

   <path
   id="path1653"
   d="m 5165,3697 -24,-6 c 3,7 9,16 12,21 -5,8 -9,12 -13,21 l 24,-7 c 4,8 8,14 15,20 2,-29 -4,-24 24,-31 l -22,-10 -1,-26 c -2,4 -9,12 -15,18 z"
   class="fil1" />

   <path
   id="path1655"
   d="m 5273,4005 -25,-8 12,25 c -7,6 -10,8 -16,16 l 26,-4 11,22 c 7,-35 1,-19 26,-31 l -19,-11 1,-26 c -4,6 -12,12 -16,17 z"
   class="fil1" />

   <path
   id="path1657"
   d="m 5276,3330 -22,-6 12,23 -14,18 25,-6 c 6,11 3,11 14,18 l 1,-22 22,-8 -20,-9 -1,-26 c -5,6 -12,13 -17,18 z"
   class="fil1" />

   <path
   id="path1659"
   d="m 2706,4126 -22,-9 c 4,10 6,13 11,23 l -14,19 25,-6 c 2,4 2,6 4,9 l 10,10 c 1,-26 -1,-24 24,-29 l -22,-10 1,-24 z"
   class="fil1" />

   <path
   id="path1661"
   d="m 4333,3583 19,-3 c 8,-11 24,-42 29,-56 -8,1 -5,0 -12,-5 1,-10 4,-7 4,-22 -4,3 -3,1 -7,8 l -14,31 c -8,16 -13,30 -19,47 z"
   class="fil1" />

   <path
   id="path1663"
   d="m 5071,4244 -21,-8 10,22 -14,16 21,-3 12,18 c 4,-9 1,-15 6,-21 5,-5 11,-2 19,-7 l -17,-8 -1,-24 c -2,3 -11,11 -15,15 z"
   class="fil1" />

   <path
   id="path1665"
   d="m 5419,3760 -22,-8 10,23 -15,13 25,-2 c 6,20 -3,4 10,17 l 2,-21 21,-4 -18,-11 1,-22 c -8,5 -7,2 -14,15 z"
   class="fil1" />

   <path
   id="path1667"
   d="m 4170,4974 -20,-7 8,18 -12,18 21,-3 c 3,5 6,11 11,18 l 4,-19 16,-10 c 0,-1 -1,-2 -2,-2 l -12,-6 2,-22 c -5,7 -10,9 -16,15 z"
   class="fil1" />

   <path
   id="path1669"
   d="m 2868,4509 -16,-8 7,18 -12,15 20,-1 7,16 4,-16 17,-6 c -1,-2 -2,-4 -3,-3 -3,6 2,2 -10,-9 l 2,-16 c -8,3 -5,5 -16,10 z"
   class="fil1" />

   <path
   id="path1671"
   d="m 4352,3580 -19,3 -18,41 c -5,16 -3,7 1,14 12,-4 30,-45 36,-58 z"
   class="fil1" />

   <path
   id="path1673"
   d="m 4384,3517 c 5,-5 1,0 7,-8 1,-1 5,-7 6,-9 7,-10 7,-10 11,-23 -25,0 -32,16 -24,40 z"
   class="fil1" />

   <path
   id="path1675"
   d="m 5299,4232 c 12,11 44,14 62,17 l 8,65 c 8,-7 12,-15 18,-26 l 18,-28 63,12 c -4,-7 -35,-43 -42,-47 l 32,-60 c -21,5 -42,21 -65,24 -9,-16 -27,-35 -41,-46 l 6,63 z"
   class="fil1" />

   <path
   id="path1677"
   d="M 3337,879 5996,44 c 224,-70 464,56 535,280 l 1282,4085 c 70,223 -56,464 -279,534 L 5991,5427 H 4318 L 3058,1414 c -70,-224 55,-465 279,-535 z"
   class="fil0 str0" />

   <path
   id="path1679"
   d="m 9037,1868 2025,1916 c 170,161 178,432 17,602 l -985,1041 H 5399 c -50,-145 -20,-313 93,-432 L 8435,1885 c 161,-171 432,-178 602,-17 z"
   class="fil0 str0" />

   <path
   id="path1681"
   d="m 7075,4757 c 89,55 334,2 455,-11 l -47,-25 c -108,-42 -433,-145 -408,36 z"
   class="fil2" />

   <path
   id="path1683"
   d="m 8996,4612 c 81,43 434,129 463,19 27,-102 -130,-70 -195,-60 -82,11 -188,22 -268,41 z"
   class="fil2" />

   <path
   id="path1685"
   d="m 7610,4367 c -29,-41 -288,-361 -384,-258 -70,75 91,129 143,152 71,32 170,85 241,106 z"
   class="fil2" />

   <path
   id="path1687"
   d="m 8583,4038 c 39,-27 355,-287 256,-381 -74,-71 -128,82 -152,137 -34,77 -80,165 -104,244 z"
   class="fil2" />

   <path
   id="path1689"
   d="m 8273,3971 c 6,-91 8,-179 10,-268 3,-106 32,-194 -92,-188 -53,66 -33,140 -6,236 19,66 53,175 88,220 z"
   class="fil2" />

   <path
   id="path1691"
   d="m 7900,4056 c -25,-78 -77,-153 -113,-227 -28,-55 -90,-199 -160,-134 -103,97 238,346 273,361 z"
   class="fil2" />

   <path
   id="path1693"
   d="m 7646,5075 c -71,31 -144,78 -216,118 -44,26 -217,103 -143,176 91,88 333,-236 359,-294 z"
   class="fil2" />

   <path
   id="path1695"
   d="m 9355,5198 c 11,-109 -58,-120 -153,-143 -88,-22 -176,-33 -269,-36 19,25 -1,5 25,25 l 79,44 c 130,73 227,158 318,110 z"
   class="fil2" />

   <path
   id="path1697"
   d="m 8909,4309 c 65,-21 164,-81 220,-113 46,-26 201,-85 132,-160 -91,-100 -328,216 -352,273 z"
   class="fil2" />

   <path
   id="path1699"
   d="m 8931,5679 c 16,-50 12,-78 -18,-120 l -225,-280 c 19,118 81,439 243,400 z"
   class="fil2" />

   <path
   id="path1701"
   d="m 8107,4203 c -1,-92 -16,-283 -57,-340 -187,-11 34,297 57,340 z"
   class="fil2" />

   <path
   id="path1703"
   d="m 8191,5540 c 52,-73 15,-238 6,-335 -31,36 -164,352 -6,335 z"
   class="fil2" />

   <path
   id="path1705"
   d="m 8455,5164 c 1,45 27,438 125,327 63,-72 -105,-284 -125,-327 z"
   class="fil2" />

   <path
   id="path1707"
   d="m 8383,4183 c 28,-40 135,-277 76,-333 -114,-107 -82,279 -76,333 z"
   class="fil2" />

   <path
   id="path1709"
   d="m 7886,4333 c -20,-45 -198,-290 -268,-220 -59,59 65,109 102,130 56,31 106,73 166,90 z"
   class="fil2" />

   <path
   id="path1711"
   d="m 8619,4293 c 57,-32 102,-68 154,-105 28,-21 145,-88 91,-140 -74,-71 -220,180 -245,245 z"
   class="fil2" />

   <path
   id="path1713"
   d="m 8773,4537 c 95,7 409,-38 329,-129 -50,-58 -275,102 -329,129 z"
   class="fil2" />

   <path
   id="path1715"
   d="m 7976,5107 c -51,36 -83,77 -134,125 -23,22 -142,97 -87,151 79,76 206,-211 221,-276 z"
   class="fil2" />

   <path
   id="path1717"
   d="m 8792,4773 c 32,32 107,52 154,72 46,18 139,75 180,30 44,-49 -39,-84 -105,-94 -80,-12 -147,-9 -229,-8 z"
   class="fil2" />

   <path
   id="path1719"
   d="m 7762,4589 c -42,-22 -292,-143 -329,-111 -131,115 269,119 329,111 z"
   class="fil2" />

   <path
   id="path1721"
   d="m 7772,4860 c -69,4 -399,55 -310,149 47,50 291,-128 310,-149 z"
   class="fil2" />

   <path
   id="path1723"
   d="m 8667,5038 c 17,34 195,284 267,217 28,-26 13,-55 -21,-84 z"
   class="fil2" />

   <path
   id="path1725"
   d="m 8473,3635 c 34,-39 58,-106 76,-165 23,-77 41,-146 -49,-152 -45,62 -35,220 -27,317 z"
   class="fil2" />

   <path
   id="path1727"
   d="m 7140,4453 78,-4 c -30,-21 -249,-116 -279,-113 -102,9 -32,134 201,117 z"
   class="fil2" />

   <path
   id="path1729"
   d="m 7205,3767 c -17,77 43,89 96,121 52,31 107,68 159,91 -20,-52 -178,-271 -255,-212 z"
   class="fil2" />

   <path
   id="path1731"
   d="m 9294,4336 c 50,0 392,-34 304,-129 -45,-48 -267,102 -304,129 z"
   class="fil2" />

   <path
   id="path1733"
   d="m 8301,4916 c -6,50 -60,367 41,310 74,-42 -8,-264 -41,-310 z"
   class="fil2" />

   <path
   id="path1735"
   d="m 8470,4559 c 47,-12 336,-94 273,-165 -49,-55 -201,77 -241,122 -3,3 -11,12 -13,15 -14,17 -6,7 -19,28 z"
   class="fil2" />

   <path
   id="path1737"
   d="m 8998,3891 c 14,-7 283,-174 228,-232 -8,-4 -2,-16 -43,-10 -67,9 -165,189 -185,242 z"
   class="fil2" />

   <path
   id="path1739"
   d="m 7915,3678 c -6,-57 -32,-392 -121,-297 -36,38 12,125 29,159 z"
   class="fil2" />

   <path
   id="path1741"
   d="m 8609,5130 c 20,-72 -28,-100 -74,-141 -42,-38 -85,-80 -128,-111 10,51 43,116 68,158 32,52 51,104 134,94 z"
   class="fil2" />

   <path
   id="path1743"
   d="m 7249,5049 c -68,-2 -382,44 -293,131 41,40 260,-99 293,-131 z"
   class="fil2" />

   <path
   id="path1745"
   d="m 8154,4490 c -14,-73 -112,-336 -189,-256 -39,40 49,117 69,136 56,53 80,87 120,120 z"
   class="fil2" />

   <path
   id="path1747"
   d="m 8776,4924 c 24,-114 -193,-142 -289,-151 33,30 87,66 131,93 48,30 83,81 158,58 z"
   class="fil2" />

   <path
   id="path1749"
   d="m 8089,4832 c -32,11 -322,127 -255,190 62,59 234,-140 255,-190 z"
   class="fil2" />

   <path
   id="path1751"
   d="m 8253,4458 c 21,-85 50,-243 20,-314 -88,-7 -83,51 -69,137 10,63 34,127 49,177 z"
   class="fil2" />

   <path
   id="path1753"
   d="m 8063,5193 c 80,15 75,-25 89,-104 11,-60 25,-121 33,-181 -39,27 -73,87 -96,131 -28,54 -57,95 -26,154 z"
   class="fil2" />

   <path
   id="path1755"
   d="m 8066,4588 c -67,-45 -191,-184 -284,-163 -13,81 43,95 105,119 51,20 124,43 179,44 z"
   class="fil2" />

   <path
   id="path1757"
   d="m 9343,4841 c 30,20 282,120 320,77 88,-98 -264,-84 -320,-77 z"
   class="fil2" />

   <path
   id="path1759"
   d="m 8043,4696 c -58,-6 -374,-52 -319,52 29,57 280,-30 319,-52 z"
   class="fil2" />

   <path
   id="path1761"
   d="m 8380,4479 111,-133 c 40,-65 69,-106 19,-158 -64,9 -67,55 -84,120 -15,57 -35,114 -46,171 z"
   class="fil2" />

   <path
   id="path1763"
   d="m 8510,4677 191,37 c 61,2 147,0 120,-77 -61,-37 -234,25 -311,40 z"
   class="fil2" />

   <path
   id="path1765"
   d="m 5673,2685 c 41,-24 877,-630 932,-675 22,-18 2,-66 -34,-55 -32,10 -78,57 -99,75 -101,82 -779,629 -799,655 z"
   class="fil3" />

   <path
   id="path1767"
   d="m 4284,3871 c 29,7 93,-58 120,-80 82,-67 777,-628 798,-654 -50,28 -657,473 -756,545 -41,30 -82,60 -124,90 -14,11 -52,35 -59,46 -11,17 -3,46 21,53 z"
   class="fil3" />

   <path
   id="path1769"
   d="m 5167,2712 c -22,-29 -607,-596 -657,-644 l -163,-159 c -19,-17 -50,-16 -60,12 -11,32 74,93 98,113 94,82 762,669 782,678 z"
   class="fil3" />

   <path
   id="path1771"
   d="m 6187,4209 c -2,-8 -12,-29 -46,-90 l -220,-394 c -96,-173 -194,-364 -297,-531 2,25 109,232 129,273 l 328,676 c 36,75 48,95 56,100 29,21 55,-9 50,-34 z"
   class="fil3" />

   <path
   id="path1773"
   d="M 5362,2624 5241,1481 c -1,-11 -2,-23 -5,-35 -10,-45 -66,-51 -67,5 -1,30 10,69 12,85 9,53 16,102 26,155 13,79 144,901 155,933 z"
   class="fil3" />

   <path
   id="path1775"
   d="m 4689,1629 c 2,4 4,9 7,14 l 107,193 c 49,87 98,175 147,262 95,172 193,362 296,527 -1,-20 -21,-49 -30,-68 l -229,-471 c -43,-91 -87,-180 -131,-270 l -97,-200 c -4,-8 -7,-15 -10,-20 -24,-39 -78,-15 -60,33 z"
   class="fil3" />

   <path
   id="path1777"
   d="m 5732,2782 c 29,-3 901,-251 997,-279 26,-8 92,-18 120,-39 30,-22 5,-68 -25,-60 l -945,325 c -40,14 -113,35 -147,53 z"
   class="fil3" />

   <path
   id="path1779"
   d="m 5395,3272 c -10,14 -5,4 -10,21 -16,56 -48,221 -64,264 l -45,176 c -3,13 -5,23 -8,36 -26,115 -64,248 -87,354 l -35,141 c -13,60 -40,125 5,135 38,9 43,-30 45,-49 l 174,-935 c 7,-35 24,-112 25,-143 z"
   class="fil3" />

   <path
   id="path1781"
   d="m 5515,3231 c -3,28 10,114 14,151 5,49 12,98 16,149 9,99 22,197 32,296 l 47,445 c 4,35 1,130 38,138 66,15 34,-90 28,-123 l -124,-754 c -8,-52 -41,-274 -51,-302 z"
   class="fil3" />

   <path
   id="path1783"
   d="m 5687,3095 c 25,32 609,596 667,653 l 169,165 c 21,18 53,18 62,-11 10,-33 -74,-91 -98,-112 -38,-33 -76,-66 -114,-99 -77,-67 -151,-132 -228,-199 -152,-131 -312,-267 -458,-397 z"
   class="fil3" />

   <path
   id="path1785"
   d="m 5115,2932 c -22,-4 -53,-6 -77,-7 l -222,-17 c -268,-25 -556,-38 -823,-64 -96,-10 -82,67 -15,68 l 833,16 c 53,1 101,2 153,3 27,1 50,1 75,1 23,1 53,4 76,0 z"
   class="fil3" />

   <path
   id="path1787"
   d="m 5592,2599 c 23,-22 62,-90 83,-121 28,-40 56,-80 83,-122 54,-84 108,-160 163,-244 l 245,-363 c 14,-21 26,-41 40,-61 9,-12 16,-21 19,-29 12,-31 -31,-60 -57,-38 -12,11 -22,36 -53,87 l -226,382 c -47,84 -100,168 -149,252 -25,43 -49,83 -74,127 z"
   class="fil3" />

   <path
   id="path1789"
   d="m 5788,2893 c 18,7 129,14 147,14 130,6 295,24 433,33 l 508,40 c 20,1 57,11 68,-21 19,-57 -76,-48 -122,-49 -49,-1 -98,-1 -147,-2 l -587,-12 c -29,0 -275,-8 -300,-3 z"
   class="fil3" />

   <path
   id="path1791"
   d="m 4288,3280 c -48,13 -96,27 -145,41 -32,8 -126,24 -133,56 -7,28 18,46 42,42 l 808,-279 c 51,-17 264,-87 294,-103 z"
   class="fil3" />

   <path
   id="path1793"
   d="m 5280,3224 -170,249 c -56,83 -109,163 -164,247 l -250,369 c -19,30 -83,101 -26,121 30,11 46,-24 57,-44 l 259,-438 c 50,-85 100,-167 149,-252 z"
   class="fil3" />

   <path
   id="path1795"
   d="m 5114,2815 c -23,-15 -47,-23 -72,-34 l -342,-156 c -45,-20 -90,-39 -135,-61 l -409,-186 c -58,-26 -115,-65 -130,-16 -10,35 28,46 48,54 l 348,134 c 122,43 287,112 413,160 z"
   class="fil3" />

   <path
   id="path1797"
   d="m 5476,2558 c 13,-20 15,-49 20,-73 l 19,-70 c 14,-47 20,-95 33,-142 l 70,-283 c 6,-25 14,-46 19,-70 6,-26 11,-46 16,-72 11,-47 26,-93 36,-141 l 51,-213 c 4,-17 23,-60 -19,-69 -45,-9 -50,60 -60,120 l -53,288 c -17,77 -35,210 -53,287 z"
   class="fil3" />

   <path
   id="path1799"
   d="m 5753,3007 960,438 c 54,23 118,69 133,16 12,-42 -55,-55 -113,-78 z"
   class="fil3" />

   <path
   id="path1801"
   d="m 5325,2665 c -28,-109 -106,-355 -143,-473 -25,-79 -49,-160 -73,-239 -10,-34 -58,-224 -85,-231 -18,-4 -37,12 -35,30 0,3 312,869 336,913 z"
   class="fil3" />

   <path
   id="path1803"
   d="m 5158,2769 c -24,-24 -346,-232 -404,-270 -68,-45 -133,-88 -201,-133 -35,-23 -67,-44 -102,-67 -21,-14 -87,-74 -102,-22 -9,32 69,65 91,78 71,41 689,407 718,414 z"
   class="fil3" />

   <path
   id="path1805"
   d="m 5696,2841 c 95,-5 374,-42 487,-55 l 368,-43 c 26,-2 109,-4 117,-29 18,-58 -71,-32 -98,-27 -42,7 -84,14 -126,21 -69,13 -716,121 -748,133 z"
   class="fil3" />

   <path
   id="path1807"
   d="m 5460,3191 c -8,34 -6,90 -9,129 -2,44 -4,82 -6,126 l -13,250 c -3,44 -4,82 -7,128 l -12,251 c -1,14 -5,43 -1,65 6,40 52,32 54,-3 3,-125 -1,-913 -6,-946 z"
   class="fil3" />

   <path
   id="path1809"
   d="m 6451,2294 c -262,151 -532,304 -791,459 37,-9 194,-96 241,-119 81,-41 162,-81 243,-123 l 364,-183 c 17,-12 24,-32 4,-49 -18,-15 -42,4 -61,15 z"
   class="fil3" />

   <path
   id="path1811"
   d="m 5168,2977 c -30,-2 -672,75 -729,82 -50,7 -224,15 -233,44 -18,58 76,30 102,26 40,-7 81,-15 122,-22 l 493,-86 c 41,-7 82,-14 122,-21 33,-5 93,-13 123,-23 z"
   class="fil3" />

   <path
   id="path1813"
   d="m 5517,2620 c 20,-30 36,-78 50,-112 l 307,-724 c 7,-16 18,-48 -15,-56 -34,-7 -48,59 -59,94 -29,87 -99,264 -122,341 l -60,170 c -10,24 -100,268 -101,287 z"
   class="fil3" />

   <path
   id="path1815"
   d="m 5622,3094 c 26,45 448,602 526,707 25,35 45,73 79,85 55,-29 5,-66 -24,-100 z"
   class="fil3" />

   <path
   id="path1817"
   d="m 4734,3790 c 57,-67 524,-622 540,-652 l -600,640 c -17,18 -85,76 -30,92 29,9 71,-57 90,-80 z"
   class="fil3" />

   <path
   id="path1819"
   d="m 5252,2722 c -25,-45 -465,-626 -544,-731 -9,-13 -27,-41 -37,-50 -15,-14 -43,-11 -49,11 -8,28 123,166 148,196 157,189 330,387 482,574 z"
   class="fil3" />

   <path
   id="path1821"
   d="m 5356,3197 -98,226 c -31,75 -62,147 -94,222 l -140,333 c -8,17 -16,37 -24,55 -27,56 33,87 57,12 l 291,-817 c 2,-5 5,-13 5,-16 3,-13 2,-2 3,-15 z"
   class="fil3" />

   <path
   id="path1823"
   d="m 5543,3132 c 7,29 27,89 37,123 l 222,732 c 8,27 22,104 51,107 57,6 19,-71 7,-101 l -274,-746 z"
   class="fil3" />

   <path
   id="path1825"
   d="m 5573,2707 621,-662 c 20,-21 92,-82 36,-100 -28,-9 -74,61 -91,81 z"
   class="fil3" />

   <path
   id="path1827"
   d="m 5127,2873 c -13,-8 -4,-4 -18,-8 -3,-1 -9,-2 -13,-3 l -552,-131 c -20,-4 -36,-11 -57,-16 l -174,-40 c -40,-8 -97,-38 -107,3 -11,42 43,38 96,49 l 766,138 c 24,4 32,8 59,8 z"
   class="fil3" />

   <path
   id="path1829"
   d="m 5228,3054 c -221,109 -446,228 -666,336 -46,22 -166,73 -204,108 -21,19 7,52 27,44 50,-20 159,-90 204,-116 z"
   class="fil3" />

   <path
   id="path1831"
   d="m 5699,3036 c 22,21 73,51 100,68 33,22 66,44 99,66 75,49 495,333 586,384 32,18 56,-21 26,-47 -17,-15 -42,-27 -55,-34 -201,-112 -440,-254 -644,-374 -17,-10 -35,-21 -53,-31 -11,-6 -18,-11 -27,-16 l -21,-12 c -13,-5 -3,-1 -11,-4 z"
   class="fil3" />

   <path
   id="path1833"
   d="m 5741,2941 c 11,7 2,3 14,7 l 307,72 c 12,4 17,7 28,9 21,5 38,8 59,13 22,4 35,9 57,15 l 233,54 c 42,15 76,16 116,28 23,6 101,40 113,0 13,-43 -56,-42 -96,-50 -41,-9 -78,-13 -118,-21 z"
   class="fil3" />

   <path
   id="path1835"
   d="m 5414,2609 49,-901 c 1,-18 6,-49 -18,-57 -50,-17 -38,76 -38,100 l 4,732 c 0,29 -3,101 3,126 z"
   class="fil3" />

   <path
   id="path1837"
   d="m 6422,429 2619,955 c 220,80 335,326 255,546 L 8021,5427 H 5143 l -479,-174 c -220,-80 -334,-326 -254,-547 L 5876,684 c 80,-221 326,-335 546,-255 z"
   class="fil0 str0" />

   <path
   id="path1839"
   d="m 7065,3902 c 9,-160 200,-394 335,-504 201,-162 358,-95 431,-210 118,-183 -176,-264 -475,100 -95,115 -226,292 -257,483 -19,-26 -7,3 -14,-34 -10,-48 14,-236 26,-280 116,-441 533,-673 956,-780 89,-23 204,-18 272,-76 156,-133 -50,-385 -616,-82 -154,83 -273,197 -370,325 -150,198 -263,491 -277,759 -4,58 0,112 4,170 3,63 -10,67 -15,129 z"
   class="fil4" />

   <path
   id="path1841"
   d="m 6795,3850 c -35,-247 -265,-585 -478,-737 -283,-201 -764,-225 -952,-40 -62,61 -71,172 9,209 108,50 387,-143 812,-53 353,75 515,315 609,621 z"
   class="fil4" />

   <path
   id="path1843"
   d="m 6904,3823 c -3,-404 -47,-1092 -251,-1447 -43,-75 -200,-296 -331,-190 -188,153 189,329 376,693 164,320 202,546 206,944 z"
   class="fil4" />

   <path
   id="path1845"
   d="m 6784,3959 c -112,-59 -145,-102 -298,-146 -471,-136 -939,186 -951,339 -6,78 47,112 124,84 90,-32 120,-177 385,-297 299,-135 473,-77 740,20 z"
   class="fil4" />

   <path
   id="path1847"
   d="m 6722,3489 c -51,-190 -242,-590 -371,-730 -173,-186 -518,-123 29,331 62,52 135,123 184,177 101,111 81,106 146,204 1,3 4,7 6,9 1,2 3,6 6,9 z"
   class="fil4" />

   <path
   id="path1849"
   d="m 7049,4016 c 136,57 234,17 518,198 80,50 141,103 204,157 28,24 155,176 219,71 88,-144 -234,-298 -345,-346 -109,-48 -479,-139 -596,-80 z"
   class="fil4" />

   <path
   id="path1851"
   d="m 7021,3372 c 67,-211 62,-313 204,-549 141,-234 348,-379 245,-477 -159,-151 -497,598 -449,1026 z"
   class="fil4" />

   <path
   id="path1853"
   d="m 7256,3818 c 146,-58 263,-60 388,25 104,70 133,213 311,185 63,-84 60,-134 -9,-207 -36,-38 -129,-96 -200,-120 -91,-30 -198,-33 -289,-5 -72,21 -157,63 -201,122 z"
   class="fil4" />

   <path
   id="path1855"
   d="m 7297,3682 c 167,-103 266,-177 534,-171 312,8 518,172 508,-60 -128,-116 -424,-82 -599,-34 -157,44 -382,179 -443,265 z"
   class="fil4" />

   <path
   id="path1857"
   d="m 6827,4020 c -153,-38 -321,13 -431,84 -343,219 -217,490 -47,246 227,-325 206,-217 478,-330 z"
   class="fil4" />

   <path
   id="path1859"
   d="m 6640,3713 c -44,-80 -187,-173 -307,-216 -110,-38 -374,-76 -410,43 -28,92 58,130 139,110 69,-17 105,-49 195,-59 171,-19 281,54 383,122 z"
   class="fil4" />

   <path
   id="path1861"
   d="m 7647,3966 c 0,-60 -13,-67 -74,-79 -107,-22 -273,-10 -367,34 93,2 145,-3 237,14 84,16 127,55 204,31 z"
   class="fil4" />

   <path
   id="path1863"
   d="m 6240,3347 c -62,63 141,93 359,258 -42,-93 -305,-312 -359,-258 z"
   class="fil4" />

   <path
   id="path1865"
   d="m 6955,3314 c 14,-163 -7,-210 45,-397 6,-19 15,-44 14,-64 0,-44 -5,-36 -24,-57 -53,14 -46,26 -57,94 -7,49 -11,101 -12,151 -1,76 36,252 34,273 z"
   class="fil4" />

   <path
   id="path1867"
   d="m 7264,3637 c 135,-166 338,-205 361,-244 84,-144 -219,-20 -361,244 z"
   class="fil4" />

   <path
   id="path1869"
   d="m 6719,3873 c -27,-56 -242,-260 -367,-227 0,67 7,65 68,84 227,71 219,107 299,143 z"
   class="fil4" />

   <path
   id="path1871"
   d="m 6609,2997 c -22,73 81,172 138,314 17,40 24,86 41,119 5,-112 -73,-377 -125,-424 -27,-25 -38,-14 -54,-9 z"
   class="fil4" />

   <path
   id="path1873"
   d="m 7212,3378 c 3,-2 7,-10 8,-8 1,3 7,-6 8,-7 18,-23 5,-5 19,-25 131,-194 267,-259 213,-311 -61,-57 -230,255 -248,351 z"
   class="fil4" />

   <path
   sodipodi:nodetypes="ccccccccccccccccccccccccccccccccccccccccccccccccccscscsccscsssccssssccssccccccccccccccccccccccccccccccccc"
   id="path1875"
   d="M 2308.52,7441 V 6109 h -339 v 499 h -435 v -499 h -340 v 1332 h 340 v -534 h 435 v 534 z m 1438,0 -529,-1332 h -270 l -533,1332 h 366 l 70,-194 h 463 l 64,194 z m -525,-464 h -278 l 140,-455 z m 1753,464 V 6109 h -325 l 14,838 -520,-838 h -291 v 1332 h 325 l -14,-809 516,809 z m 1440,0 -529,-1332 h -270 l -533,1332 h 365 l 70,-194 h 463 l 64,194 z m -525,-464 h -278 l 140,-455 z m 1611,60 c 0,-154 -74,-261 -220,-309 100,-58 154,-154 154,-270 0,-104 -44,-210 -126,-275 -96,-78 -263,-74 -379,-74 h -409 v 1332 h 421 c 164,0 311,2 437,-116 80,-76 122,-178 122,-288 z m -391,-527 c 0,88 -68,106 -144,106 h -120 v -208 h 120 c 76,0 144,12 144,102 z m 65,505 c 0,98 -85,126 -169,126 h -160 v -242 h 160 c 84,0 169,14 169,116 z m 1587.96,426 v -230 h -406 V 6109 h -247 v 1332 z m 403,0 V 6109 h -247 v 1332 z m 1344,-1332 h -258 l -359,1012 -359,-1012 h -260 l 519,1332 h 202 z m 827,1332 v -230 h -470 v -316 h 450 v -231 h -450 v -324 h 470 v -231 h -717 v 1332 z"
   class="fil0" />

   <polygon
   id="polygon1877"
   points="12531,5785 0,5785 0,5471 12531,5471 "
   class="fil0" />

   <path
   id="path1879"
   d="m 6795,3850 c -35,-247 -265,-585 -478,-737 -283,-201 -764,-225 -952,-40 -62,61 -71,172 9,209 108,50 387,-143 812,-53 353,75 515,315 609,621 z"
   class="fil4" />

   <path
   id="path1881"
   d="m 6904,3823 c -3,-404 -47,-1092 -251,-1447 -43,-75 -200,-296 -331,-190 -188,153 189,329 376,693 164,320 202,546 206,944 z"
   class="fil4" />

   <path
   id="path1883"
   d="m 6784,3959 c -112,-59 -145,-102 -298,-146 -471,-136 -939,186 -951,339 -6,78 47,112 124,84 90,-32 120,-177 385,-297 299,-135 473,-77 740,20 z"
   class="fil4" />

   <path
   id="path1885"
   d="m 6722,3489 c -51,-190 -242,-590 -371,-730 -173,-186 -518,-123 29,331 62,52 135,123 184,177 101,111 81,106 146,204 1,3 4,7 6,9 1,2 3,6 6,9 z"
   class="fil4" />

   <path
   id="path1887"
   d="m 7049,4016 c 136,57 234,17 518,198 80,50 141,103 204,157 28,24 155,176 219,71 88,-144 -234,-298 -345,-346 -109,-48 -479,-139 -596,-80 z"
   class="fil4" />

   <path
   id="path1889"
   d="m 7021,3372 c 67,-211 62,-313 204,-549 141,-234 348,-379 245,-477 -159,-151 -497,598 -449,1026 z"
   class="fil4" />

   <path
   id="path1891"
   d="m 7256,3818 c 146,-58 263,-60 388,25 104,70 133,213 311,185 63,-84 60,-134 -9,-207 -36,-38 -129,-96 -200,-120 -91,-30 -198,-33 -289,-5 -72,21 -157,63 -201,122 z"
   class="fil4" />

   <path
   id="path1893"
   d="m 7297,3682 c 167,-103 266,-177 534,-171 312,8 518,172 508,-60 -128,-116 -424,-82 -599,-34 -157,44 -382,179 -443,265 z"
   class="fil4" />

   <path
   id="path1895"
   d="m 6827,4020 c -153,-38 -321,13 -431,84 -343,219 -217,490 -47,246 227,-325 206,-217 478,-330 z"
   class="fil4" />

   <path
   id="path1897"
   d="m 6640,3713 c -44,-80 -187,-173 -307,-216 -110,-38 -374,-76 -410,43 -28,92 58,130 139,110 69,-17 105,-49 195,-59 171,-19 281,54 383,122 z"
   class="fil4" />

   <path
   id="path1899"
   d="m 7647,3966 c 0,-60 -13,-67 -74,-79 -107,-22 -273,-10 -367,34 93,2 145,-3 237,14 84,16 127,55 204,31 z"
   class="fil4" />

   <path
   id="path1901"
   d="m 6240,3347 c -62,63 141,93 359,258 -42,-93 -305,-312 -359,-258 z"
   class="fil4" />

   <path
   id="path1903"
   d="m 6955,3314 c 14,-163 -7,-210 45,-397 6,-19 15,-44 14,-64 0,-44 -5,-36 -24,-57 -53,14 -46,26 -57,94 -7,49 -11,101 -12,151 -1,76 36,252 34,273 z"
   class="fil4" />

   <path
   id="path1905"
   d="m 7264,3637 c 135,-166 338,-205 361,-244 84,-144 -219,-20 -361,244 z"
   class="fil4" />

   <path
   id="path1907"
   d="m 6719,3873 c -27,-56 -242,-260 -367,-227 0,67 7,65 68,84 227,71 219,107 299,143 z"
   class="fil4" />

   <path
   id="path1909"
   d="m 6609,2997 c -22,73 81,172 138,314 17,40 24,86 41,119 5,-112 -73,-377 -125,-424 -27,-25 -38,-14 -54,-9 z"
   class="fil4" />

   <path
   id="path1911"
   d="m 7212,3378 c 3,-2 7,-10 8,-8 1,3 7,-6 8,-7 18,-23 5,-5 19,-25 131,-194 267,-259 213,-311 -61,-57 -230,255 -248,351 z"
   class="fil4" />

  </g>

 </g>
  </g>
</svg>
