<?xml version="1.0" encoding="UTF-8" standalone="no"?>
<svg
   xmlns:dc="http://purl.org/dc/elements/1.1/"
   xmlns:cc="http://creativecommons.org/ns#"
   xmlns:rdf="http://www.w3.org/1999/02/22-rdf-syntax-ns#"
   xmlns:svg="http://www.w3.org/2000/svg"
   xmlns="http://www.w3.org/2000/svg"
   xmlns:sodipodi="http://sodipodi.sourceforge.net/DTD/sodipodi-0.dtd"
   xmlns:inkscape="http://www.inkscape.org/namespaces/inkscape"
   sodipodi:docname="3.svg"
   inkscape:version="1.0 (4035a4fb49, 2020-05-01)"
   id="svg8"
   version="1.1"
   viewBox="0 0 125.34286 73.755493"
   height="73.755493mm"
   width="125.34286mm">
  <defs
     id="defs2">
    <style
       type="text/css"
       id="style1496">
   <![CDATA[
    .str0 {stroke:#FEFEFE;stroke-width:50}
    .fil2 {fill:#FEFEFE}
    .fil3 {fill:#FFF212}
    .fil4 {fill:#ED3237}
    .fil1 {fill:#00AFEF}
    .fil0 {fill:#2F3686}
   ]]>
  </style>
    <style
       type="text/css"
       id="style3175">
   <![CDATA[
    .fil0 {fill:#201E1E}
   ]]>
  </style>
  </defs>
  <sodipodi:namedview
     fit-margin-bottom="0"
     fit-margin-right="0"
     fit-margin-left="0"
     fit-margin-top="0"
     inkscape:window-maximized="0"
     inkscape:window-y="0"
     inkscape:window-x="160"
     inkscape:window-height="1030"
     inkscape:window-width="1424"
     showgrid="false"
     inkscape:document-rotation="0"
     inkscape:current-layer="_912499552"
     inkscape:document-units="mm"
     inkscape:cy="215.07934"
     inkscape:cx="234.38417"
     inkscape:zoom="1.4"
     inkscape:pageshadow="2"
     inkscape:pageopacity="0.0"
     borderopacity="1.0"
     bordercolor="#666666"
     pagecolor="#ffffff"
     id="base" />
  <metadata
     id="metadata5">
    <rdf:RDF>
      <cc:Work
         rdf:about="">
        <dc:format>image/svg+xml</dc:format>
        <dc:type
           rdf:resource="http://purl.org/dc/dcmitype/StillImage" />
        <dc:title></dc:title>
      </cc:Work>
    </rdf:RDF>
  </metadata>
  <g
     transform="translate(-6.4413973,-55.543705)"
     id="layer1"
     inkscape:groupmode="layer"
     inkscape:label="Layer 1">
    <g
       transform="matrix(0.00999943,0,0,0.00999943,6.4413973,55.543384)"
       id="g3210"
       style="clip-rule:evenodd;fill-rule:evenodd;image-rendering:optimizeQuality;shape-rendering:geometricPrecision;text-rendering:geometricPrecision">
      <g
         id="Layer_x0020_1">
  <metadata
   id="CorelCorpID_0Corel-Layer" />

  <g
   id="_912499552">
   <path
   sodipodi:nodetypes="ccccccccccccccccccccccccccccccccccccccccccccccccccscscsccscsssccssssccssccccccccccccccccccccccccccccccccc"
   class="fil0"
   d="M 2309.5181,7376 V 6043 h -339 v 500 h -436 v -500 h -339 v 1333 h 339 v -534 h 436 v 534 z m 1438,0 -529,-1333 h -270 l -533,1333 h 366 l 69,-194 h 464 l 64,194 z m -525,-464 h -278 l 140,-455 z m 1754,464 V 6043 h -326 l 14,839 -519,-839 h -292 v 1333 h 326 l -14,-809 515,809 z m 1440,0 -529,-1333 h -270 l -533,1333 h 365 l 70,-194 h 464 l 63,194 z m -525,-464 h -278 l 140,-455 z m 1612,60 c 0,-154 -74,-262 -220,-310 100,-57 154,-153 154,-269 0,-104 -44,-210 -126,-276 -96,-78 -264,-74 -380,-74 h -409 v 1333 h 421 c 164,0 312,2 438,-116 80,-76 122,-178 122,-288 z m -392,-527 c 0,88 -68,106 -144,106 h -120 v -208 h 120 c 76,0 144,12 144,102 z m 66,505 c 0,98 -86,126 -170,126 h -160 v -242 h 160 c 84,0 170,14 170,116 z m 1587.9638,426 v -230 h -405 V 6043 h -248 v 1333 z m 404,0 V 6043 h -248 V 7376 Z M 10513.482,6043 h -258 l -359.0001,1013 -360,-1013 h -259 l 519,1333 h 202 z m 827,1333 v -230 h -469 v -316 h 449 v -231 h -449 v -324 h 469 v -232 h -717 v 1333 z"
   id="path3188" />
<path
   class="fil0"
   d="m 3036,1417 -1517,964 c -89,56 -147,144 -169,240 -21,96 -6,200 51,289 l 1530,2409 h 1330 l -236,-751 c -2,102 5,204 23,304 19,105 34,123 53,200 -12,11 -64,26 -84,30 -4,-33 -17,-74 -23,-110 -32,-178 -26,-349 2,-518 l -62,-198 c -52,127 -94,262 -125,396 -22,96 -38,199 -45,303 -12,163 1,188 9,332 -28,2 -93,13 -116,9 -2,-404 81,-700 255,-1046 2,-3 6,-13 12,-24 l -14,-47 c -57,77 -103,159 -148,245 -46,91 -104,254 -110,372 l -71,-9 c 2,-47 40,-156 57,-198 24,-60 54,-121 85,-173 26,-43 122,-184 182,-252 l -25,-78 c -14,19 -56,57 -69,70 l -71,79 c -44,52 -88,107 -129,170 -71,110 -163,286 -185,419 l -86,-22 c 38,-146 141,-297 224,-412 12,-16 23,-28 37,-44 l 75,-85 c 34,-37 122,-118 164,-153 19,-15 28,-27 38,-29 l -120,-384 c -158,-84 -358,-151 -535,-172 -41,-5 -82,-8 -124,-8 -26,0 -108,8 -123,5 l -7,-86 c 288,6 426,55 663,174 40,19 82,45 120,69 l -16,-50 c -5,-4 -10,-8 -15,-11 -168,-118 -383,-233 -602,-235 l 2,-54 c 180,6 400,124 536,225 7,6 42,31 74,58 l -29,-93 c -93,-97 -216,-206 -314,-278 -155,-112 -297,-196 -482,-259 l -78,-27 35,-115 c 200,39 550,327 673,451 l 152,183 -66,-211 c -4,-4 -9,-8 -13,-13 -57,-58 -108,-107 -178,-153 l -28,-20 27,-44 c 16,6 41,29 56,41 18,15 36,29 52,45 9,8 15,17 24,25 9,9 16,14 25,24 l 7,9 -60,-194 c -20,-22 -41,-44 -62,-66 -74,-77 -148,-132 -231,-200 -33,-25 -120,-75 -131,-85 5,-15 50,-87 62,-104 49,18 232,184 292,254 l 10,10 -54,-171 -39,-1 c 3,-8 0,-3 9,-10 6,-5 14,-9 22,-15 z m -166,3026 -17,-8 7,18 -12,15 20,-1 7,16 4,-16 17,-6 c -1,-2 -2,-4 -3,-3 -3,6 2,2 -10,-9 l 3,-16 c -9,3 -6,5 -16,10 z m -163,-384 -22,-8 c 4,10 6,13 10,22 l -13,20 25,-6 c 2,4 2,6 4,9 l 10,10 c 1,-26 -1,-25 25,-29 l -23,-10 1,-25 z m 437,245 -26,1 c 2,3 15,14 18,17 l -7,23 c 10,-4 12,-7 22,-11 10,7 10,9 20,13 l -6,-26 21,-13 -26,-3 -7,-23 z m -492,-683 c -1,0 -3,0 -3,1 l -26,6 23,15 -3,29 22,-19 27,14 -12,-28 c 10,-9 15,-11 20,-22 l -29,4 c -4,-9 -6,-18 -14,-24 z m 586,-718 c -10,11 -17,16 -24,28 10,-1 17,-2 26,-4 37,-9 26,7 42,31 l 3,-38 c 9,-11 26,-8 42,-16 -10,-9 -28,-13 -40,-17 l 5,-46 c -22,22 -10,12 -38,32 l -33,-14 c 6,16 23,31 17,44 z m 49,1750 -31,7 29,15 -1,34 c 10,-10 13,-11 19,-24 l 36,11 -17,-31 c 10,-8 16,-16 20,-26 l -30,7 c -9,-7 -8,-10 -15,-19 l -7,-8 z m 301,228 -36,19 c 9,5 26,5 40,7 3,8 3,11 5,19 l 6,20 c 0,0 1,1 1,2 l 16,-37 43,4 -28,-27 c 1,-17 10,-24 15,-42 l -35,19 -34,-27 z m -597,-1532 39,21 -7,44 34,-30 40,21 -19,-41 c 13,-16 23,-22 31,-32 l -45,4 -19,-40 c -3,13 -5,37 -12,43 -7,6 -30,3 -42,10 z m -240,1019 -43,-2 c 8,13 25,20 34,31 l -14,42 40,-25 c 8,9 25,23 35,28 l -12,-46 c 9,-4 32,-17 37,-26 l -45,-1 -13,-44 c -4,8 -6,13 -8,20 -4,10 -5,14 -11,23 z m 156,-1151 -47,-1 c 7,11 23,23 35,28 l -15,49 c 14,-7 28,-20 41,-26 11,7 27,24 39,28 l -12,-46 39,-27 -47,-3 c -7,-11 -10,-31 -15,-46 z m 1231,1974 55,-23 c -18,-5 -58,-13 -65,-29 -4,-9 -4,-42 -6,-56 -8,7 -30,44 -33,57 l -70,-15 c 11,17 31,36 44,51 -8,17 -32,51 -34,62 l 58,-26 c 21,5 27,33 51,47 -1,-17 -8,-54 0,-68 z M 3118,4548 c -9,11 -17,21 -26,33 -18,25 -33,46 -50,72 -19,28 -81,123 -90,156 l 106,46 c 9,-35 49,-112 66,-144 49,-89 104,-174 167,-251 162,-189 278,-285 497,-443 15,-11 9,0 11,-13 -24,-11 -260,147 -310,187 -108,82 -295,256 -371,357 z m -283,-471 -52,-24 c 7,21 22,35 27,57 -9,8 -12,10 -20,20 -6,8 -13,18 -19,21 l 59,-10 c 10,15 20,39 32,51 l 7,-60 c 10,-1 19,-3 29,-5 l 27,-8 -49,-23 c -7,-21 9,-46 0,-62 -9,12 -26,35 -41,43 z m 187,-1303 -55,-25 28,54 -41,45 61,-10 28,52 c 0,0 1,-3 1,-2 l 9,-58 60,-11 -55,-29 7,-60 z m -431,986 13,52 164,-42 c 55,-11 124,-23 182,-25 -4,-10 8,1 -5,-5 -17,-7 -161,-2 -176,-1 -63,4 -119,14 -178,21 z m 536,-152 c -1,17 4,40 11,53 177,-24 230,-16 406,18 -2,-8 2,-2 -6,-7 -16,-10 -166,-47 -182,-51 -76,-15 -149,-20 -229,-13 z m -391,-524 c 82,-1 166,14 240,34 l 188,66 c 11,2 6,2 13,-2 6,-13 4,-10 -11,-18 -8,-4 -17,-8 -26,-12 -110,-54 -269,-115 -391,-118 z m 583,1094 c 14,14 27,34 45,43 l 64,-59 c 78,-66 192,-124 288,-164 18,-8 42,-16 59,-26 -3,-2 -2,-4 -15,-1 l -113,34 c -81,27 -161,58 -232,102 -25,16 -84,53 -96,71 z m -375,173 c 11,8 33,25 45,30 9,-23 63,-81 79,-99 77,-83 208,-170 313,-221 l -9,-19 c -38,12 -93,43 -126,60 -87,46 -144,92 -216,153 -17,15 -78,76 -86,96 z m -133,-883 -89,31 c 5,4 1,2 10,6 3,1 8,2 11,3 l 69,20 10,88 c 1,-1 1,-2 2,-2 l 46,-68 91,24 -55,-74 c 8,-24 40,-56 51,-81 l -87,31 c -18,-12 -41,-52 -60,-72 -1,3 0,-5 -2,8 l 1,33 c 0,18 1,36 2,53 z m 495,1131 47,19 c 8,-13 40,-92 74,-147 55,-90 127,-172 202,-244 25,-25 23,-27 56,-55 12,-10 16,-16 28,-27 13,-12 28,-13 18,-28 -22,3 -206,171 -241,212 -39,46 -62,68 -102,124 -25,36 -65,98 -82,146 z m 126,515 53,-1 c 4,-25 2,-75 4,-104 6,-90 25,-194 52,-278 30,-96 53,-151 93,-238 10,-21 33,-56 37,-76 l -46,71 c -14,25 -29,50 -42,77 -25,54 -48,102 -71,162 -34,89 -86,281 -80,387 z m -636,-809 c 14,9 27,21 40,31 l 149,-147 c 12,-9 24,-19 35,-27 69,-52 147,-98 228,-135 20,-10 166,-67 171,-72 -58,-1 -287,99 -349,134 -55,32 -103,62 -148,97 -30,23 -113,92 -126,119 z m 1156,907 50,-17 c -9,-40 -31,-88 -46,-158 -12,-59 -21,-119 -25,-180 -5,-64 -6,-131 -2,-196 2,-26 20,-175 16,-182 -10,17 -28,143 -32,171 -17,131 -19,261 0,392 7,43 23,136 39,170 z M 2913,4027 c 6,21 36,52 46,75 l 81,-50 c 28,-17 55,-32 85,-46 182,-86 388,-128 590,-136 15,0 50,2 59,-5 0,-1 -2,-3 -2,-2 l -116,-8 c -125,-2 -241,6 -362,30 -71,15 -138,34 -203,59 -58,22 -167,79 -178,83 z m -482,-83 63,118 125,-65 c 42,-21 92,-41 137,-58 97,-36 194,-63 301,-85 207,-42 419,-53 630,-43 20,1 79,10 90,1 -2,-14 -50,-16 -76,-19 -444,-62 -861,-37 -1270,151 z m 2187,706 c 108,301 92,58 -14,-132 -14,-26 -100,-180 14,132 z m -166,266 c -2,-3 -3,-7 -4,-10 -15,-46 -22,-95 -19,-144 11,52 6,96 23,154 z"
   id="path3180" />

   <path
   class="fil0"
   d="m 6439,322 -7,-3 v 0 l -6,-2 v 0 l -5,-2 -6,-2 -6,-1 -5,-2 -6,-1 -6,-2 -5,-1 v 0 l -6,-1 v 0 l -5,-2 v 0 l -6,-1 -6,-1 -5,-1 v 0 l -6,-1 v 0 l -6,-1 -5,-1 h -6 v 0 l -6,-1 -5,-1 h -6 v 0 h -6 v -1 h -5 v 0 h -6 v 0 h -5 v 0 l -6,-1 v 0 h -6 v 0 h -5 -6 -6 l -5,1 h -6 v 0 h -5 -6 l -6,1 h -5 l -6,1 v 0 l -5,1 h -6 l -5,1 v 0 l -6,1 -5,1 -6,1 -5,1 -5,1 v 0 l -6,1 -5,1 -6,1 -5,2 -5,1 -6,2 -5,1 -5,2 v 0 l -6,1 -5,2 -5,2 -5,2 -6,2 -5,2 -5,2 -5,2 -5,2 -5,2 -5,2 -5,2 -5,3 -5,2 -5,3 -5,2 -5,3 -5,3 v 0 l -5,3 v 0 l -5,2 v 0 l -5,3 -5,3 -4,3 -5,3 v 0 l -5,3 v 0 l -5,4 v 0 l -4,3 v 0 l -5,3 v 0 l -4,3 -5,4 -4,3 -5,4 -4,3 v 0 l -5,4 v 0 l -4,4 v 0 l -4,3 -4,4 v 0 l -5,4 v 0 l -4,4 v 0 l -4,4 v 0 l -4,4 v 0 l -4,4 v 0 l -4,4 v 0 l -4,4 v 0 l -4,4 -4,5 v 0 l -3,4 v 0 l -4,4 v 0 l -4,5 v 0 l -3,4 v 0 l -4,5 v 0 l -3,4 -4,5 -3,4 -4,5 v 0 l -3,5 v 0 l -3,5 -3,5 v 0 l -4,4 v 0 l -3,5 -3,5 v 0 l -3,5 v 0 l -3,5 -2,6 -3,5 -3,5 -3,5 v 0 l -2,6 -3,5 -2,5 -3,6 -2,5 -2,6 -3,5 -2,6 -2,6 -3,7 -369,1013 c 0,-16 -3,-32 -19,-38 -50,-17 -38,76 -38,100 v 94 l -99,272 -67,-637 c -2,-10 -2,-23 -5,-34 -10,-45 -66,-51 -67,5 -1,30 10,69 12,85 9,52 16,102 25,155 7,40 44,267 80,488 l -58,159 c -18,-56 -34,-108 -46,-146 -25,-79 -49,-160 -73,-239 -11,-34 -58,-224 -85,-231 -18,-4 -37,12 -35,30 0,2 127,356 225,623 l -37,102 -190,-391 c -43,-91 -88,-180 -131,-270 l -97,-200 c -4,-8 -7,-15 -10,-20 -24,-39 -79,-15 -60,33 1,4 3,8 6,14 l 108,193 c 49,87 98,175 146,262 72,129 145,268 220,400 l -26,73 c -143,-192 -379,-506 -435,-580 -9,-12 -28,-41 -38,-50 -14,-14 -42,-11 -48,12 -8,27 122,165 147,195 119,143 248,292 369,437 l -26,71 c -152,-151 -561,-548 -603,-588 l -163,-159 c -19,-17 -50,-16 -59,12 -11,32 73,93 97,113 79,68 556,487 725,631 l -20,54 c -105,-70 -292,-191 -335,-220 -68,-44 -133,-88 -201,-133 -35,-22 -68,-44 -102,-67 -21,-14 -88,-74 -102,-21 -9,32 69,65 90,77 58,33 473,279 646,375 l -22,60 c -7,-3 -14,-6 -21,-9 l -342,-156 c -45,-20 -90,-39 -135,-61 l -410,-186 c -58,-26 -115,-65 -129,-16 -11,35 28,46 47,54 l 348,134 c 123,43 287,112 414,160 l 226,86 -20,54 -497,-118 c -20,-5 -37,-12 -57,-16 l -175,-40 c -40,-9 -96,-39 -107,2 -11,42 43,38 97,50 l 736,132 -24,63 -198,-15 c -269,-25 -557,-38 -823,-64 -97,-9 -83,67 -15,68 l 833,16 c 53,1 101,2 153,4 17,0 32,0 47,0 l -23,63 c -203,23 -511,60 -549,65 -51,6 -225,14 -234,44 -17,58 76,30 102,25 41,-7 81,-14 123,-21 l 493,-87 59,-10 -30,83 -665,187 c -48,13 -96,27 -144,40 -32,9 -127,25 -134,56 -6,28 18,46 42,42 l 809,-278 c 16,-6 48,-16 86,-29 l -38,104 c -116,59 -232,118 -347,174 -45,22 -165,74 -204,109 -20,18 7,51 28,43 49,-20 159,-89 204,-115 l 307,-180 -53,146 c -171,124 -347,254 -397,290 -42,30 -83,60 -124,90 -14,10 -52,35 -60,46 -11,17 -3,46 22,52 28,8 93,-57 120,-79 41,-34 232,-188 417,-339 l -100,274 -47,51 c -17,19 -86,77 -30,93 8,3 18,-2 28,-9 l -303,831 c -44,121 -34,250 16,358 51,109 143,199 265,243 l 251,92 H 4351 L 3102,1340 v 0 l -2,-6 c -32,-101 -19,-206 26,-293 45,-87 124,-156 224,-188 h 1 L 6011,18 c 101,-32 205,-20 293,26 87,45 157,124 188,225 l 26,81 z"
   id="path3182" />

   <path
   class="fil0"
   d="M 11037,3748 9268,2074 8085,5319 h 43 c 18,-79 57,-162 72,-180 5,50 16,116 20,180 h 264 c -19,-90 -25,-198 -26,-221 13,29 93,133 126,221 h 1495 l 973,-1028 c 72,-77 107,-176 104,-274 -3,-99 -43,-196 -119,-269 z m -2524,863 191,37 c 62,2 147,0 120,-77 -61,-37 -233,25 -311,40 z m 834,164 c 29,20 281,120 320,77 88,-98 -264,-84 -320,-77 z m -568,83 c 24,-114 -193,-142 -289,-151 33,30 87,66 131,93 48,31 84,81 158,58 z m -167,206 c 20,-71 -28,-100 -74,-141 -42,-38 -84,-80 -128,-110 10,50 43,115 68,157 32,52 51,104 134,94 z m 389,-1239 c 14,-8 283,-175 228,-233 -7,-3 -1,-15 -43,-9 -67,9 -165,189 -185,242 z m -527,668 c 46,-12 336,-94 272,-165 -49,-55 -201,77 -241,122 -3,3 -11,12 -13,15 -13,17 -6,7 -18,28 z m -170,357 c -6,51 -60,367 42,310 74,-41 -9,-263 -42,-310 z m 993,-580 c 50,0 392,-34 304,-129 -45,-49 -267,102 -304,129 z m -627,702 c 17,34 196,285 268,217 27,-26 13,-55 -21,-83 z m 125,-265 c 32,32 107,52 154,72 46,18 139,75 180,30 44,-48 -38,-84 -104,-94 -81,-12 -148,-9 -230,-8 z m -19,-236 c 96,7 409,-38 330,-129 -51,-58 -276,102 -330,129 z m -154,-244 c 57,-32 102,-68 154,-106 29,-20 145,-88 91,-140 -74,-71 -220,180 -245,246 z m 290,16 c 65,-21 164,-82 220,-113 46,-26 201,-85 133,-160 -91,-100 -329,216 -353,273 z m 446,890 c 11,-110 -58,-121 -153,-144 -87,-22 -176,-32 -269,-35 19,24 -1,5 25,24 l 79,44 c 131,74 228,159 318,111 z M 8586,3972 c 39,-28 355,-287 257,-381 -75,-72 -129,82 -153,137 -34,76 -80,165 -104,244 z m 414,574 c 81,43 433,129 462,19 27,-102 -130,-70 -195,-60 -81,11 -187,22 -267,41 z"
   id="path3184" />

   <path
   class="fil0"
   d="M 9030,1356 6418,404 h -1 l -7,-2 c -99,-36 -204,-29 -293,13 -89,41 -162,116 -198,215 l -1,1 -1466,4024 c -37,99 -29,204 13,293 41,90 117,163 216,199 l 471,172 H 7994 L 9259,1848 c 36,-99 28,-204 -13,-293 -42,-89 -117,-162 -216,-199 z M 7067,3836 c 9,-159 200,-394 335,-504 201,-162 358,-95 432,-210 117,-183 -177,-265 -476,100 -95,115 -226,292 -257,483 -19,-26 -7,3 -14,-34 -10,-48 14,-236 26,-280 116,-441 534,-673 957,-781 88,-22 204,-17 272,-75 155,-133 -51,-385 -617,-82 -153,82 -273,197 -370,325 -150,198 -263,491 -277,759 -4,58 0,112 4,170 3,63 -10,68 -15,129 z m -270,-52 c -35,-247 -265,-585 -478,-737 -283,-201 -764,-225 -952,-40 -62,61 -72,172 8,209 109,50 388,-143 813,-53 353,75 515,315 609,621 z m 109,-27 c -3,-404 -48,-1092 -251,-1447 -43,-76 -200,-297 -331,-190 -188,153 189,329 376,693 163,320 202,546 206,944 z m -121,136 c -111,-59 -144,-101 -298,-146 -471,-135 -939,186 -951,340 -6,77 47,112 125,84 89,-32 120,-178 385,-298 299,-135 473,-77 739,20 z m -61,-470 c -51,-189 -242,-590 -372,-730 -172,-187 -518,-123 30,331 62,52 135,123 184,177 101,111 81,106 145,205 2,2 5,6 6,8 2,2 4,6 7,9 z m 327,528 c 136,56 234,16 518,197 80,51 141,103 204,157 28,24 155,177 219,72 88,-144 -234,-299 -345,-347 -109,-47 -479,-139 -596,-79 z m -28,-645 c 67,-211 62,-313 204,-550 141,-234 348,-378 245,-476 -159,-152 -497,598 -449,1026 z m 235,447 c 146,-59 263,-61 388,24 104,71 134,213 311,186 63,-85 60,-135 -8,-207 -37,-39 -129,-97 -201,-121 -91,-30 -198,-32 -289,-5 -72,21 -157,63 -201,123 z m 41,-137 c 167,-103 266,-177 535,-170 311,7 518,171 507,-61 -127,-116 -424,-82 -599,-34 -157,44 -382,179 -443,265 z m -470,338 c -153,-37 -321,14 -431,84 -344,219 -217,491 -47,247 226,-326 206,-218 478,-331 z m -187,-306 c -44,-81 -187,-174 -307,-216 -110,-39 -374,-76 -410,43 -28,91 57,129 139,109 69,-17 105,-49 195,-59 171,-19 281,54 383,123 z m 1008,252 c -1,-60 -14,-67 -75,-79 -107,-22 -273,-9 -367,34 93,2 145,-3 237,15 85,16 127,55 205,30 z M 6242,3281 c -63,63 140,93 359,258 -42,-93 -305,-312 -359,-258 z m 715,-33 c 14,-163 -8,-210 45,-397 6,-19 15,-44 14,-64 0,-44 -5,-37 -24,-57 -53,14 -46,26 -57,93 -8,50 -11,102 -12,152 -1,76 36,252 34,273 z m 309,324 c 135,-167 339,-206 361,-245 84,-144 -219,-20 -361,245 z m -545,235 c -27,-56 -243,-260 -367,-227 0,67 7,65 68,84 227,72 219,107 299,143 z m -110,-876 c -23,73 81,172 138,314 17,41 24,86 41,119 5,-112 -74,-377 -125,-424 -27,-25 -38,-14 -54,-9 z m 603,381 c 3,-2 7,-10 8,-8 1,3 7,-5 8,-7 19,-23 5,-4 19,-25 131,-194 267,-259 213,-311 -61,-57 -230,255 -248,351 z"
   id="path3186" />

   
   <polygon
   class="fil0"
   points="0,5405 12535,5405 12535,5720 0,5720 "
   id="polygon3190" />

  <path
   id="path3212"
   d="M 2309.5181,7376 V 6043 h -339 v 500 h -436 v -500 h -339 v 1333 h 339 v -534 h 436 v 534 z m 1438,0 -529,-1333 h -270 l -533,1333 h 366 l 69,-194 h 464 l 64,194 z m -525,-464 h -278 l 140,-455 z m 1754,464 V 6043 h -326 l 14,839 -519,-839 h -292 v 1333 h 326 l -14,-809 515,809 z m 1440,0 -529,-1333 h -270 l -533,1333 h 365 l 70,-194 h 464 l 63,194 z m -525,-464 h -278 l 140,-455 z m 1612,60 c 0,-154 -74,-262 -220,-310 100,-57 154,-153 154,-269 0,-104 -44,-210 -126,-276 -96,-78 -264,-74 -380,-74 h -409 v 1333 h 421 c 164,0 312,2 438,-116 80,-76 122,-178 122,-288 z m -392,-527 c 0,88 -68,106 -144,106 h -120 v -208 h 120 c 76,0 144,12 144,102 z m 66,505 c 0,98 -86,126 -170,126 h -160 v -242 h 160 c 84,0 170,14 170,116 z m 1587.9638,426 v -230 h -405 V 6043 h -248 v 1333 z m 404,0 V 6043 h -248 V 7376 Z M 10513.482,6043 h -258 l -359.0001,1013 -360,-1013 h -259 l 519,1333 h 202 z m 827,1333 v -230 h -469 v -316 h 449 v -231 h -449 v -324 h 469 v -232 h -717 v 1333 z"
   class="fil0"
   sodipodi:nodetypes="ccccccccccccccccccccccccccccccccccccccccccccccccccscscsccscsssccssssccssccccccccccccccccccccccccccccccccc" />
</g>

 </g>
    </g>
  </g>
</svg>
