<?xml version="1.0" encoding="UTF-8"?>
<!DOCTYPE svg PUBLIC "-//W3C//DTD SVG 1.1//EN" "http://www.w3.org/Graphics/SVG/1.1/DTD/svg11.dtd">
<!-- Creator: CorelDRAW X7 -->
<svg xmlns="http://www.w3.org/2000/svg" xml:space="preserve" width="12.5355cm" height="7.37558cm" version="1.1" style="shape-rendering:geometricPrecision; text-rendering:geometricPrecision; image-rendering:optimizeQuality; fill-rule:evenodd; clip-rule:evenodd"
viewBox="0 0 12535 7376"
 xmlns:xlink="http://www.w3.org/1999/xlink">
 <defs>
  <style type="text/css">
   <![CDATA[
    .fil0 {fill:#201E1E}
   ]]>
  </style>
 </defs>
 <g id="Layer_x0020_1">
  <metadata id="CorelCorpID_0Corel-Layer"/>
  <g id="_912499552">
   <path class="fil0" d="M3036 1417l-1517 964c-89,56 -147,144 -169,240 -21,96 -6,200 51,289l1530 2409 1330 0 -236 -751c-2,102 5,204 23,304 19,105 34,123 53,200 -12,11 -64,26 -84,30 -4,-33 -17,-74 -23,-110 -32,-178 -26,-349 2,-518l-62 -198c-52,127 -94,262 -125,396 -22,96 -38,199 -45,303 -12,163 1,188 9,332 -28,2 -93,13 -116,9 -2,-404 81,-700 255,-1046 2,-3 6,-13 12,-24l-14 -47c-57,77 -103,159 -148,245 -46,91 -104,254 -110,372l-71 -9c2,-47 40,-156 57,-198 24,-60 54,-121 85,-173 26,-43 122,-184 182,-252l-25 -78c-14,19 -56,57 -69,70l-71 79c-44,52 -88,107 -129,170 -71,110 -163,286 -185,419l-86 -22c38,-146 141,-297 224,-412 12,-16 23,-28 37,-44l75 -85c34,-37 122,-118 164,-153 19,-15 28,-27 38,-29l-120 -384c-158,-84 -358,-151 -535,-172 -41,-5 -82,-8 -124,-8 -26,0 -108,8 -123,5l-7 -86c288,6 426,55 663,174 40,19 82,45 120,69l-16 -50c-5,-4 -10,-8 -15,-11 -168,-118 -383,-233 -602,-235l2 -54c180,6 400,124 536,225 7,6 42,31 74,58l-29 -93c-93,-97 -216,-206 -314,-278 -155,-112 -297,-196 -482,-259l-78 -27 35 -115c200,39 550,327 673,451l152 183 -66 -211c-4,-4 -9,-8 -13,-13 -57,-58 -108,-107 -178,-153l-28 -20 27 -44c16,6 41,29 56,41 18,15 36,29 52,45 9,8 15,17 24,25 9,9 16,14 25,24l7 9 -60 -194c-20,-22 -41,-44 -62,-66 -74,-77 -148,-132 -231,-200 -33,-25 -120,-75 -131,-85 5,-15 50,-87 62,-104 49,18 232,184 292,254l10 10 -54 -171 -39 -1c3,-8 0,-3 9,-10 6,-5 14,-9 22,-15l-376 -1196zm-166 3026l-17 -8 7 18 -12 15 20 -1 7 16 4 -16 17 -6c-1,-2 -2,-4 -3,-3 -3,6 2,2 -10,-9l3 -16c-9,3 -6,5 -16,10zm-163 -384l-22 -8c4,10 6,13 10,22l-13 20 25 -6c2,4 2,6 4,9l10 10c1,-26 -1,-25 25,-29l-23 -10 1 -25 -17 17zm437 245l-26 1c2,3 15,14 18,17l-7 23c10,-4 12,-7 22,-11 10,7 10,9 20,13l-6 -26 21 -13 -26 -3 -7 -23 -9 22zm-492 -683c-1,0 -3,0 -3,1l-26 6 23 15 -3 29 22 -19 27 14 -12 -28c10,-9 15,-11 20,-22l-29 4c-4,-9 -6,-18 -14,-24l-5 24zm586 -718c-10,11 -17,16 -24,28 10,-1 17,-2 26,-4 37,-9 26,7 42,31l3 -38c9,-11 26,-8 42,-16 -10,-9 -28,-13 -40,-17l5 -46c-22,22 -10,12 -38,32l-33 -14c6,16 23,31 17,44zm49 1750l-31 7 29 15 -1 34c10,-10 13,-11 19,-24l36 11 -17 -31c10,-8 16,-16 20,-26l-30 7c-9,-7 -8,-10 -15,-19l-7 -8 -3 34zm301 228l-36 19c9,5 26,5 40,7 3,8 3,11 5,19l6 20c0,0 1,1 1,2l16 -37 43 4 -28 -27c1,-17 10,-24 15,-42l-35 19 -34 -27 7 43zm-597 -1532l39 21 -7 44 34 -30 40 21 -19 -41c13,-16 23,-22 31,-32l-45 4 -19 -40c-3,13 -5,37 -12,43 -7,6 -30,3 -42,10zm-240 1019l-43 -2c8,13 25,20 34,31l-14 42 40 -25c8,9 25,23 35,28l-12 -46c9,-4 32,-17 37,-26l-45 -1 -13 -44c-4,8 -6,13 -8,20 -4,10 -5,14 -11,23zm156 -1151l-47 -1c7,11 23,23 35,28l-15 49c14,-7 28,-20 41,-26 11,7 27,24 39,28l-12 -46 39 -27 -47 -3c-7,-11 -10,-31 -15,-46l-18 44zm1231 1974l55 -23c-18,-5 -58,-13 -65,-29 -4,-9 -4,-42 -6,-56 -8,7 -30,44 -33,57l-70 -15c11,17 31,36 44,51 -8,17 -32,51 -34,62l58 -26c21,5 27,33 51,47 -1,-17 -8,-54 0,-68zm-1020 -643c-9,11 -17,21 -26,33 -18,25 -33,46 -50,72 -19,28 -81,123 -90,156l106 46c9,-35 49,-112 66,-144 49,-89 104,-174 167,-251 162,-189 278,-285 497,-443 15,-11 9,0 11,-13 -24,-11 -260,147 -310,187 -108,82 -295,256 -371,357zm-283 -471l-52 -24c7,21 22,35 27,57 -9,8 -12,10 -20,20 -6,8 -13,18 -19,21l59 -10c10,15 20,39 32,51l7 -60c10,-1 19,-3 29,-5l27 -8 -49 -23c-7,-21 9,-46 0,-62 -9,12 -26,35 -41,43zm187 -1303l-55 -25 28 54 -41 45 61 -10 28 52c0,0 1,-3 1,-2l9 -58 60 -11 -55 -29 7 -60 -43 44zm-431 986l13 52 164 -42c55,-11 124,-23 182,-25 -4,-10 8,1 -5,-5 -17,-7 -161,-2 -176,-1 -63,4 -119,14 -178,21zm536 -152c-1,17 4,40 11,53 177,-24 230,-16 406,18 -2,-8 2,-2 -6,-7 -16,-10 -166,-47 -182,-51 -76,-15 -149,-20 -229,-13zm-391 -524c82,-1 166,14 240,34l188 66c11,2 6,2 13,-2 6,-13 4,-10 -11,-18 -8,-4 -17,-8 -26,-12 -110,-54 -269,-115 -391,-118l-13 50zm583 1094c14,14 27,34 45,43l64 -59c78,-66 192,-124 288,-164 18,-8 42,-16 59,-26 -3,-2 -2,-4 -15,-1l-113 34c-81,27 -161,58 -232,102 -25,16 -84,53 -96,71zm-375 173c11,8 33,25 45,30 9,-23 63,-81 79,-99 77,-83 208,-170 313,-221l-9 -19c-38,12 -93,43 -126,60 -87,46 -144,92 -216,153 -17,15 -78,76 -86,96zm-133 -883l-89 31c5,4 1,2 10,6 3,1 8,2 11,3l69 20 10 88c1,-1 1,-2 2,-2l46 -68 91 24 -55 -74c8,-24 40,-56 51,-81l-87 31c-18,-12 -41,-52 -60,-72 -1,3 0,-5 -2,8l1 33c0,18 1,36 2,53zm495 1131l47 19c8,-13 40,-92 74,-147 55,-90 127,-172 202,-244 25,-25 23,-27 56,-55 12,-10 16,-16 28,-27 13,-12 28,-13 18,-28 -22,3 -206,171 -241,212 -39,46 -62,68 -102,124 -25,36 -65,98 -82,146zm126 515l53 -1c4,-25 2,-75 4,-104 6,-90 25,-194 52,-278 30,-96 53,-151 93,-238 10,-21 33,-56 37,-76l-46 71c-14,25 -29,50 -42,77 -25,54 -48,102 -71,162 -34,89 -86,281 -80,387zm-636 -809c14,9 27,21 40,31l149 -147c12,-9 24,-19 35,-27 69,-52 147,-98 228,-135 20,-10 166,-67 171,-72 -58,-1 -287,99 -349,134 -55,32 -103,62 -148,97 -30,23 -113,92 -126,119zm1156 907l50 -17c-9,-40 -31,-88 -46,-158 -12,-59 -21,-119 -25,-180 -5,-64 -6,-131 -2,-196 2,-26 20,-175 16,-182 -10,17 -28,143 -32,171 -17,131 -19,261 0,392 7,43 23,136 39,170zm-1039 -1185c6,21 36,52 46,75l81 -50c28,-17 55,-32 85,-46 182,-86 388,-128 590,-136 15,0 50,2 59,-5 0,-1 -2,-3 -2,-2l-116 -8c-125,-2 -241,6 -362,30 -71,15 -138,34 -203,59 -58,22 -167,79 -178,83zm-482 -83l63 118 125 -65c42,-21 92,-41 137,-58 97,-36 194,-63 301,-85 207,-42 419,-53 630,-43 20,1 79,10 90,1 -2,-14 -50,-16 -76,-19 -444,-62 -861,-37 -1270,151zm2187 706c108,301 92,58 -14,-132 -14,-26 -100,-180 14,132zm-166 266c-2,-3 -3,-7 -4,-10 -15,-46 -22,-95 -19,-144 11,52 6,96 23,154z"/>
   <path class="fil0" d="M6439 322l-7 -3 0 0 -6 -2 0 0 -5 -2 -6 -2 -6 -1 -5 -2 -6 -1 -6 -2 -5 -1 0 0 -6 -1 0 0 -5 -2 0 0 -6 -1 -6 -1 -5 -1 0 0 -6 -1 0 0 -6 -1 -5 -1 -6 0 0 0 -6 -1 -5 -1 -6 0 0 0 -6 0 0 -1 -5 0 0 0 -6 0 0 0 -5 0 0 0 -6 -1 0 0 -6 0 0 0 -5 0 -6 0 -6 0 -5 1 -6 0 0 0 -5 0 -6 0 -6 1 -5 0 -6 1 0 0 -5 1 -6 0 -5 1 0 0 -6 1 -5 1 -6 1 -5 1 -5 1 0 0 -6 1 -5 1 -6 1 -5 2 -5 1 -6 2 -5 1 -5 2 0 0 -6 1 -5 2 -5 2 -5 2 -6 2 -5 2 -5 2 -5 2 -5 2 -5 2 -5 2 -5 2 -5 3 -5 2 -5 3 -5 2 -5 3 -5 3 0 0 -5 3 0 0 -5 2 0 0 -5 3 -5 3 -4 3 -5 3 0 0 -5 3 0 0 -5 4 0 0 -4 3 0 0 -5 3 0 0 -4 3 -5 4 -4 3 -5 4 -4 3 0 0 -5 4 0 0 -4 4 0 0 -4 3 -4 4 0 0 -5 4 0 0 -4 4 0 0 -4 4 0 0 -4 4 0 0 -4 4 0 0 -4 4 0 0 -4 4 0 0 -4 4 -4 5 0 0 -3 4 0 0 -4 4 0 0 -4 5 0 0 -3 4 0 0 -4 5 0 0 -3 4 -4 5 -3 4 -4 5 0 0 -3 5 0 0 -3 5 -3 5 0 0 -4 4 0 0 -3 5 -3 5 0 0 -3 5 0 0 -3 5 -2 6 -3 5 -3 5 -3 5 0 0 -2 6 -3 5 -2 5 -3 6 -2 5 -2 6 -3 5 -2 6 -2 6 -3 7 -369 1013c0,-16 -3,-32 -19,-38 -50,-17 -38,76 -38,100l0 94 -99 272 -67 -637c-2,-10 -2,-23 -5,-34 -10,-45 -66,-51 -67,5 -1,30 10,69 12,85 9,52 16,102 25,155 7,40 44,267 80,488l-58 159c-18,-56 -34,-108 -46,-146 -25,-79 -49,-160 -73,-239 -11,-34 -58,-224 -85,-231 -18,-4 -37,12 -35,30 0,2 127,356 225,623l-37 102 -190 -391c-43,-91 -88,-180 -131,-270l-97 -200c-4,-8 -7,-15 -10,-20 -24,-39 -79,-15 -60,33 1,4 3,8 6,14l108 193c49,87 98,175 146,262 72,129 145,268 220,400l-26 73c-143,-192 -379,-506 -435,-580 -9,-12 -28,-41 -38,-50 -14,-14 -42,-11 -48,12 -8,27 122,165 147,195 119,143 248,292 369,437l-26 71c-152,-151 -561,-548 -603,-588l-163 -159c-19,-17 -50,-16 -59,12 -11,32 73,93 97,113 79,68 556,487 725,631l-20 54c-105,-70 -292,-191 -335,-220 -68,-44 -133,-88 -201,-133 -35,-22 -68,-44 -102,-67 -21,-14 -88,-74 -102,-21 -9,32 69,65 90,77 58,33 473,279 646,375l-22 60c-7,-3 -14,-6 -21,-9l-342 -156c-45,-20 -90,-39 -135,-61l-410 -186c-58,-26 -115,-65 -129,-16 -11,35 28,46 47,54l348 134c123,43 287,112 414,160l226 86 -20 54 -497 -118c-20,-5 -37,-12 -57,-16l-175 -40c-40,-9 -96,-39 -107,2 -11,42 43,38 97,50l736 132 -24 63 -198 -15c-269,-25 -557,-38 -823,-64 -97,-9 -83,67 -15,68l833 16c53,1 101,2 153,4 17,0 32,0 47,0l-23 63c-203,23 -511,60 -549,65 -51,6 -225,14 -234,44 -17,58 76,30 102,25 41,-7 81,-14 123,-21l493 -87 59 -10 -30 83 -665 187c-48,13 -96,27 -144,40 -32,9 -127,25 -134,56 -6,28 18,46 42,42l809 -278c16,-6 48,-16 86,-29l-38 104c-116,59 -232,118 -347,174 -45,22 -165,74 -204,109 -20,18 7,51 28,43 49,-20 159,-89 204,-115l307 -180 -53 146c-171,124 -347,254 -397,290 -42,30 -83,60 -124,90 -14,10 -52,35 -60,46 -11,17 -3,46 22,52 28,8 93,-57 120,-79 41,-34 232,-188 417,-339l-100 274 -47 51c-17,19 -86,77 -30,93 8,3 18,-2 28,-9l-303 831c-44,121 -34,250 16,358 51,109 143,199 265,243l251 92 -552 0 -1249 -3979 0 0 -2 -6c-32,-101 -19,-206 26,-293 45,-87 124,-156 224,-188l1 0 2660 -835c101,-32 205,-20 293,26 87,45 157,124 188,225l26 81 -79 -28z"/>
   <path class="fil0" d="M11037 3748l-1769 -1674 -1183 3245 43 0c18,-79 57,-162 72,-180 5,50 16,116 20,180l264 0c-19,-90 -25,-198 -26,-221 13,29 93,133 126,221l1495 0 973 -1028c72,-77 107,-176 104,-274 -3,-99 -43,-196 -119,-269zm-2524 863l191 37c62,2 147,0 120,-77 -61,-37 -233,25 -311,40zm834 164c29,20 281,120 320,77 88,-98 -264,-84 -320,-77zm-568 83c24,-114 -193,-142 -289,-151 33,30 87,66 131,93 48,31 84,81 158,58zm-167 206c20,-71 -28,-100 -74,-141 -42,-38 -84,-80 -128,-110 10,50 43,115 68,157 32,52 51,104 134,94zm389 -1239c14,-8 283,-175 228,-233 -7,-3 -1,-15 -43,-9 -67,9 -165,189 -185,242zm-527 668c46,-12 336,-94 272,-165 -49,-55 -201,77 -241,122 -3,3 -11,12 -13,15 -13,17 -6,7 -18,28zm-170 357c-6,51 -60,367 42,310 74,-41 -9,-263 -42,-310zm993 -580c50,0 392,-34 304,-129 -45,-49 -267,102 -304,129zm-627 702c17,34 196,285 268,217 27,-26 13,-55 -21,-83l-247 -134zm125 -265c32,32 107,52 154,72 46,18 139,75 180,30 44,-48 -38,-84 -104,-94 -81,-12 -148,-9 -230,-8zm-19 -236c96,7 409,-38 330,-129 -51,-58 -276,102 -330,129zm-154 -244c57,-32 102,-68 154,-106 29,-20 145,-88 91,-140 -74,-71 -220,180 -245,246zm290 16c65,-21 164,-82 220,-113 46,-26 201,-85 133,-160 -91,-100 -329,216 -353,273zm446 890c11,-110 -58,-121 -153,-144 -87,-22 -176,-32 -269,-35 19,24 -1,5 25,24l79 44c131,74 228,159 318,111zm-772 -1161c39,-28 355,-287 257,-381 -75,-72 -129,82 -153,137 -34,76 -80,165 -104,244zm414 574c81,43 433,129 462,19 27,-102 -130,-70 -195,-60 -81,11 -187,22 -267,41z"/>
   <path class="fil0" d="M9030 1356l-2612 -952 -1 0 -7 -2c-99,-36 -204,-29 -293,13 -89,41 -162,116 -198,215l-1 1 -1466 4024c-37,99 -29,204 13,293 41,90 117,163 216,199l471 172 2842 0 1265 -3471c36,-99 28,-204 -13,-293 -42,-89 -117,-162 -216,-199zm-1963 2480c9,-159 200,-394 335,-504 201,-162 358,-95 432,-210 117,-183 -177,-265 -476,100 -95,115 -226,292 -257,483 -19,-26 -7,3 -14,-34 -10,-48 14,-236 26,-280 116,-441 534,-673 957,-781 88,-22 204,-17 272,-75 155,-133 -51,-385 -617,-82 -153,82 -273,197 -370,325 -150,198 -263,491 -277,759 -4,58 0,112 4,170 3,63 -10,68 -15,129zm-270 -52c-35,-247 -265,-585 -478,-737 -283,-201 -764,-225 -952,-40 -62,61 -72,172 8,209 109,50 388,-143 813,-53 353,75 515,315 609,621zm109 -27c-3,-404 -48,-1092 -251,-1447 -43,-76 -200,-297 -331,-190 -188,153 189,329 376,693 163,320 202,546 206,944zm-121 136c-111,-59 -144,-101 -298,-146 -471,-135 -939,186 -951,340 -6,77 47,112 125,84 89,-32 120,-178 385,-298 299,-135 473,-77 739,20zm-61 -470c-51,-189 -242,-590 -372,-730 -172,-187 -518,-123 30,331 62,52 135,123 184,177 101,111 81,106 145,205 2,2 5,6 6,8 2,2 4,6 7,9zm327 528c136,56 234,16 518,197 80,51 141,103 204,157 28,24 155,177 219,72 88,-144 -234,-299 -345,-347 -109,-47 -479,-139 -596,-79zm-28 -645c67,-211 62,-313 204,-550 141,-234 348,-378 245,-476 -159,-152 -497,598 -449,1026zm235 447c146,-59 263,-61 388,24 104,71 134,213 311,186 63,-85 60,-135 -8,-207 -37,-39 -129,-97 -201,-121 -91,-30 -198,-32 -289,-5 -72,21 -157,63 -201,123zm41 -137c167,-103 266,-177 535,-170 311,7 518,171 507,-61 -127,-116 -424,-82 -599,-34 -157,44 -382,179 -443,265zm-470 338c-153,-37 -321,14 -431,84 -344,219 -217,491 -47,247 226,-326 206,-218 478,-331zm-187 -306c-44,-81 -187,-174 -307,-216 -110,-39 -374,-76 -410,43 -28,91 57,129 139,109 69,-17 105,-49 195,-59 171,-19 281,54 383,123zm1008 252c-1,-60 -14,-67 -75,-79 -107,-22 -273,-9 -367,34 93,2 145,-3 237,15 85,16 127,55 205,30zm-1408 -619c-63,63 140,93 359,258 -42,-93 -305,-312 -359,-258zm715 -33c14,-163 -8,-210 45,-397 6,-19 15,-44 14,-64 0,-44 -5,-37 -24,-57 -53,14 -46,26 -57,93 -8,50 -11,102 -12,152 -1,76 36,252 34,273zm309 324c135,-167 339,-206 361,-245 84,-144 -219,-20 -361,245zm-545 235c-27,-56 -243,-260 -367,-227 0,67 7,65 68,84 227,72 219,107 299,143zm-110 -876c-23,73 81,172 138,314 17,41 24,86 41,119 5,-112 -74,-377 -125,-424 -27,-25 -38,-14 -54,-9zm603 381c3,-2 7,-10 8,-8 1,3 7,-5 8,-7 19,-23 5,-4 19,-25 131,-194 267,-259 213,-311 -61,-57 -230,255 -248,351z"/>
   <path class="fil0" d="M1992 7376l0 -1333 -339 0 0 500 -436 0 0 -500 -339 0 0 1333 339 0 0 -534 436 0 0 534 339 0zm1438 0l-529 -1333 -270 0 -533 1333 366 0 69 -194 464 0 64 194 369 0zm-525 -464l-278 0 140 -455 138 455zm1754 464l0 -1333 -326 0 14 839 -519 -839 -292 0 0 1333 326 0 -14 -809 515 809 296 0zm1440 0l-529 -1333 -270 0 -533 1333 365 0 70 -194 464 0 63 194 370 0zm-525 -464l-278 0 140 -455 138 455zm1612 60c0,-154 -74,-262 -220,-310 100,-57 154,-153 154,-269 0,-104 -44,-210 -126,-276 -96,-78 -264,-74 -380,-74l-409 0 0 1333 421 0c164,0 312,2 438,-116 80,-76 122,-178 122,-288zm-392 -527c0,88 -68,106 -144,106l-120 0 0 -208 120 0c76,0 144,12 144,102zm66 505c0,98 -86,126 -170,126l-160 0 0 -242 160 0c84,0 170,14 170,116zm837 426l0 -1333 -340 0 0 1333 340 0zm1386 0l0 -230 -405 0 0 -1103 -248 0 0 1333 653 0zm404 0l0 -1333 -248 0 0 1333 248 0zm1344 -1333l-258 0 -359 1013 -360 -1013 -259 0 519 1333 202 0 515 -1333zm827 1333l0 -230 -469 0 0 -316 449 0 0 -231 -449 0 0 -324 469 0 0 -232 -717 0 0 1333 717 0z"/>
   <polygon class="fil0" points="0,5405 12535,5405 12535,5720 0,5720 "/>
  </g>
 </g>
</svg>
