<?xml version="1.0" encoding="UTF-8"?>
<!DOCTYPE svg PUBLIC "-//W3C//DTD SVG 1.1//EN" "http://www.w3.org/Graphics/SVG/1.1/DTD/svg11.dtd">
<!-- Creator: CorelDRAW X7 -->
<svg xmlns="http://www.w3.org/2000/svg" xml:space="preserve" width="13.7078cm" height="8.96805cm" version="1.1" style="shape-rendering:geometricPrecision; text-rendering:geometricPrecision; image-rendering:optimizeQuality; fill-rule:evenodd; clip-rule:evenodd"
viewBox="0 0 13708 8968"
 xmlns:xlink="http://www.w3.org/1999/xlink">
 <defs>
  <style type="text/css">
   <![CDATA[
    .str0 {stroke:#373435;stroke-width:20}
    .fil1 {fill:#FEFEFE}
    .fil0 {fill:#201E1E}
   ]]>
  </style>
 </defs>
 <g id="Layer_x0020_1">
  <metadata id="CorelCorpID_0Corel-Layer"/>
  <polygon class="fil0 str0" points="10,10 13698,10 13698,8958 10,8958 "/>
  <g id="_913823760">
   <path class="fil1" d="M3622 2213l-1517 964c-89,56 -147,144 -169,240 -21,96 -6,200 51,289l1530 2409 1330 0 -235 -751c-3,102 4,204 22,304 19,105 34,123 53,201 -12,10 -64,25 -84,29 -4,-33 -17,-74 -23,-110 -32,-178 -26,-349 2,-518l-62 -198c-52,127 -94,262 -125,396 -22,96 -37,199 -45,303 -12,164 1,188 9,332 -28,2 -93,13 -116,9 -1,-404 81,-700 255,-1046 2,-3 6,-12 12,-24l-14 -47c-57,77 -103,159 -147,245 -47,91 -104,254 -111,372l-71 -9c2,-47 40,-156 57,-198 24,-60 54,-121 85,-173 26,-43 122,-183 182,-252l-25 -78c-14,19 -56,57 -69,70l-71 79c-44,52 -87,108 -129,171 -71,109 -162,285 -185,419l-86 -23c38,-146 141,-297 224,-412 12,-16 23,-28 37,-44l75 -85c34,-37 122,-118 164,-152 19,-16 28,-28 38,-30l-120 -384c-158,-83 -358,-151 -535,-172 -41,-5 -82,-7 -124,-7 -26,0 -107,7 -123,4l-7 -86c288,7 426,56 663,174 40,19 82,46 120,69l-16 -50c-5,-4 -10,-8 -14,-11 -169,-118 -384,-233 -603,-235l2 -54c180,6 400,124 536,225 7,6 42,32 74,58l-29 -92c-93,-97 -216,-207 -314,-278 -154,-113 -297,-197 -482,-260l-78 -26 35 -116c200,40 551,327 674,451l151 183 -66 -210c-4,-5 -9,-9 -13,-14 -57,-58 -108,-107 -177,-153l-29 -20 27 -44c16,7 42,29 56,41 18,15 37,29 53,45 8,8 14,17 23,25 9,9 17,15 25,24l7 9 -60 -194c-20,-22 -41,-44 -62,-66 -74,-77 -148,-132 -231,-200 -33,-25 -119,-75 -131,-85 5,-15 50,-87 63,-104 48,18 231,185 292,254l9 11 -54 -171 -39 -2c3,-8 0,-3 9,-10 6,-4 14,-9 22,-15l-376 -1196zm-166 3026l-17 -7 7 17 -12 15 20 -1 7 16 4 -16 17 -6c-1,-2 -2,-3 -3,-3 -3,6 2,2 -10,-8l3 -17c-9,4 -6,5 -16,10zm-163 -383l-22 -9c4,10 6,14 11,23l-14 19 25 -6c2,4 2,6 4,9l10 10c1,-26 -1,-24 25,-28l-23 -11 1 -24 -17 17zm437 245l-26 0c2,3 15,14 18,17l-7 23c10,-4 12,-7 23,-11 10,7 9,9 19,14l-5 -26 20 -14 -26 -2 -7 -24 -9 23zm-492 -684c-1,1 -3,0 -3,1l-26 6 24 15 -4 30 22 -19 27 13 -11 -28c9,-9 14,-11 19,-21l-29 3c-4,-9 -6,-17 -14,-24l-5 24zm586 -718c-9,11 -16,16 -24,29 10,-1 17,-3 26,-5 37,-9 26,7 42,32l3 -39c9,-10 27,-7 42,-16 -9,-9 -27,-13 -40,-17l5 -45c-22,21 -10,11 -38,31l-33 -14c6,16 23,32 17,44zm49 1750l-31 8 29 14 -1 34c10,-10 13,-11 20,-24l35 11 -17 -31c10,-8 16,-16 20,-26l-30 8c-9,-7 -8,-11 -15,-20l-7 -8 -3 34zm301 228l-36 19c9,5 26,5 40,7 3,9 3,11 5,20l6 19c0,1 1,2 1,2l17 -36 43 4 -29 -28c2,-17 10,-24 15,-41l-35 18 -34 -27 7 43zm-596 -1532l38 21 -7 45 34 -31 40 21 -19 -41c13,-16 23,-21 31,-32l-45 5 -19 -41c-3,13 -5,38 -11,43 -7,6 -31,3 -42,10zm-241 1019l-43 -1c8,12 25,19 34,30l-14 42 40 -24c9,8 26,22 35,27l-12 -46c9,-4 32,-17 37,-26l-45 -1 -12 -44c-5,8 -7,13 -9,20 -4,11 -5,15 -11,23zm157 -1151l-48 -1c7,11 23,23 35,28l-15 49c14,-7 28,-20 42,-26 10,8 26,24 38,28l-12 -46 39 -27 -46 -3c-8,-11 -11,-31 -16,-46l-17 44zm1230 1974l56 -23c-19,-5 -59,-13 -66,-28 -4,-9 -4,-43 -5,-57 -9,7 -31,45 -34,57l-70 -14c11,16 31,35 44,50 -8,17 -32,52 -34,63l58 -27c21,5 27,33 52,47 -2,-16 -9,-54 -1,-68zm-1020 -643c-9,11 -17,22 -26,34 -18,24 -33,45 -50,71 -19,28 -81,123 -90,156l106 46c9,-35 49,-112 66,-144 49,-89 104,-173 167,-251 162,-188 279,-285 497,-442 16,-11 9,-1 11,-14 -24,-11 -260,147 -310,187 -108,82 -295,256 -371,357zm-283 -471l-52 -24c7,21 22,35 28,57 -10,8 -13,10 -21,20 -6,8 -13,18 -19,22l59 -11c11,16 20,39 32,52l7 -61c10,-1 19,-3 30,-5l27 -8 -50 -23c-7,-21 9,-46 0,-62 -9,12 -26,35 -41,43zm187 -1303l-54 -25 27 54 -40 45 60 -10 28 53c1,-1 1,-3 1,-3l9 -58 60 -11 -55 -28 8 -61 -44 44zm-431 986l13 52 164 -42c55,-11 125,-23 182,-24 -4,-11 9,1 -5,-5 -17,-8 -161,-3 -176,-2 -63,4 -118,14 -178,21zm536 -152c-1,17 4,40 11,53 177,-24 230,-15 407,18 -3,-7 1,-2 -6,-6 -17,-11 -166,-48 -183,-51 -76,-16 -149,-21 -229,-14zm-391 -524c83,-1 166,14 240,34l188 66c12,2 7,3 13,-2 6,-13 4,-10 -11,-17 -8,-4 -16,-8 -26,-13 -110,-54 -269,-115 -391,-118l-13 50zm583 1094c14,14 27,34 45,43l65 -58c77,-67 192,-125 287,-165 19,-8 42,-16 60,-25 -4,-3 -3,-4 -16,-2l-113 34c-81,27 -161,58 -232,103 -25,15 -84,52 -96,70zm-375 173c11,9 33,25 45,30 10,-23 63,-81 79,-98 78,-84 208,-170 313,-222l-9 -19c-38,12 -93,43 -126,60 -87,47 -143,92 -215,153 -18,15 -78,76 -87,96zm-133 -883l-89 32c5,3 1,1 10,5 3,1 8,2 11,3l69 20 10 88c1,-1 2,-2 2,-2l46 -68 91 25 -54 -75c7,-24 40,-56 50,-81l-87 31c-18,-12 -41,-52 -59,-72 -2,3 -1,-5 -3,8l1 34c1,17 1,35 2,52zm495 1131l47 19c8,-13 40,-91 74,-147 56,-90 127,-172 202,-244 26,-25 23,-27 56,-55 12,-10 16,-15 28,-27 13,-12 28,-13 18,-28 -22,4 -206,171 -240,212 -40,47 -63,68 -102,124 -26,36 -66,98 -83,146zm127 515l52 -1c4,-25 2,-75 4,-103 6,-90 26,-195 52,-279 30,-95 53,-150 93,-237 10,-21 33,-57 37,-76l-46 70c-14,25 -29,50 -41,77 -25,54 -49,103 -71,162 -34,89 -87,281 -80,387zm-637 -809c14,9 27,21 40,31l149 -147c12,-9 24,-18 36,-27 68,-51 146,-98 227,-135 20,-9 167,-67 171,-71 -58,-2 -287,98 -349,134 -55,31 -103,61 -147,96 -30,23 -114,92 -127,119zm1156 907l50 -16c-9,-41 -31,-89 -46,-159 -12,-58 -21,-119 -25,-180 -5,-64 -5,-131 -2,-196 2,-26 21,-175 16,-182 -10,17 -28,143 -32,172 -17,130 -18,260 0,391 7,43 23,136 39,170zm-1038 -1185c5,21 35,52 46,75l80 -50c28,-17 56,-32 86,-46 181,-86 387,-128 590,-135 14,-1 49,1 59,-6 -1,-1 -2,-2 -3,-2l-116 -8c-124,-2 -240,6 -362,31 -71,14 -138,33 -203,58 -58,22 -167,80 -177,83zm-483 -83l64 119 125 -65c41,-22 91,-42 136,-59 98,-35 195,-63 301,-85 207,-42 419,-53 631,-43 19,1 78,10 90,2 -3,-15 -51,-16 -77,-20 -443,-62 -861,-37 -1270,151zm2187 706c108,301 92,58 -14,-132 -14,-26 -100,-180 14,132zm-166 266c-2,-3 -3,-7 -4,-10 -15,-46 -22,-94 -19,-143 11,52 6,95 23,153z"/>
   <path class="fil1" d="M7025 1118l-7 -3 0 0 -6 -2 0 0 -5 -2 -6 -1 -6 -2 -5 -2 -6 -1 -5 -2 -6 -1 0 0 -6 -1 0 0 -5 -1 0 0 -6 -2 -6 -1 -5 -1 0 0 -6 -1 0 0 -6 -1 -5 0 -6 -1 0 0 -5 -1 -6 0 -6 -1 0 0 -5 0 0 0 -6 -1 0 0 -6 0 0 0 -5 0 0 0 -6 0 0 0 -6 0 0 0 -5 -1 -6 1 -5 0 -6 0 -6 0 0 0 -5 0 -6 1 -5 0 -6 1 -5 0 0 0 -6 1 -6 1 -5 0 0 0 -6 1 -5 1 -5 1 -6 1 -5 1 0 0 -6 1 -5 1 -6 2 -5 1 -5 1 -6 2 -5 1 -5 2 0 0 -6 2 -5 1 -5 2 -5 2 -5 2 -6 2 -5 2 -5 2 -5 2 -5 2 -5 2 -5 3 -5 2 -5 3 -5 2 -5 3 -5 2 -5 3 0 0 -5 3 0 0 -5 3 0 0 -5 2 -5 3 -4 3 -5 3 0 0 -5 4 0 0 -4 3 0 0 -5 3 0 0 -5 3 0 0 -4 4 -5 3 -4 3 -5 4 -4 4 0 0 -4 3 0 0 -5 4 0 0 -4 4 -4 3 0 0 -4 4 0 0 -5 4 0 0 -4 4 0 0 -4 4 0 0 -4 4 0 0 -4 4 0 0 -4 4 0 0 -4 5 -3 4 0 0 -4 4 0 0 -4 4 0 0 -4 5 0 0 -3 4 0 0 -4 5 0 0 -3 4 -4 5 -3 5 -4 4 0 0 -3 5 0 0 -3 5 -3 5 0 0 -3 5 0 0 -4 5 -3 5 0 0 -3 5 0 0 -2 5 -3 5 -3 5 -3 5 -3 6 0 0 -2 5 -3 5 -2 6 -3 5 -2 6 -2 5 -3 6 -2 5 -2 6 -3 7 -369 1013c1,-15 -2,-32 -19,-38 -50,-17 -38,76 -38,100l1 94 -100 272 -67 -636c-1,-11 -2,-23 -4,-35 -10,-45 -67,-51 -68,5 -1,30 10,69 12,86 9,52 17,101 26,154 6,40 43,267 79,488l-58 159c-18,-56 -34,-107 -46,-146 -24,-78 -49,-160 -73,-239 -10,-34 -58,-224 -85,-231 -18,-4 -37,12 -35,31 0,1 127,355 225,622l-37 102 -190 -391c-43,-91 -88,-180 -131,-270l-97 -200c-4,-8 -7,-15 -10,-20 -24,-39 -78,-15 -60,33 1,4 4,9 6,14l108 193c49,87 98,175 147,262 71,129 144,268 220,400l-27 73c-143,-192 -379,-505 -435,-580 -9,-12 -27,-40 -38,-50 -14,-14 -42,-11 -48,12 -8,27 123,165 148,195 118,144 247,292 368,437l-26 71c-151,-151 -561,-548 -603,-588l-163 -159c-19,-16 -50,-16 -59,12 -11,32 74,93 98,114 78,68 555,486 724,630l-20 55c-105,-71 -292,-192 -335,-220 -68,-45 -133,-88 -201,-133 -35,-23 -67,-45 -102,-68 -21,-13 -88,-73 -102,-21 -9,32 69,65 90,77 58,33 474,279 646,376l-22 59c-7,-3 -14,-5 -21,-9l-342 -155c-45,-20 -90,-40 -135,-61l-410 -187c-58,-26 -115,-65 -129,-15 -10,35 28,46 47,53l349 134c122,43 287,113 413,160l226 86 -20 54 -497 -118c-20,-4 -37,-12 -57,-16l-175 -40c-40,-9 -96,-39 -107,3 -10,41 43,37 97,49l736 132 -24 64 -198 -16c-268,-24 -557,-38 -823,-64 -96,-9 -82,67 -15,69l833 15c53,2 101,3 153,4 17,0 32,0 47,1l-23 62c-203,23 -510,60 -549,65 -50,6 -224,14 -233,44 -18,58 75,30 101,25 41,-7 81,-14 123,-21l493 -86 60 -11 -31 84 -664 186c-49,13 -97,27 -145,40 -32,9 -127,25 -134,57 -6,28 18,46 42,42l809 -279c16,-5 48,-16 86,-29l-38 104c-116,59 -232,118 -346,174 -46,23 -166,74 -205,109 -20,19 7,52 28,43 50,-20 159,-89 204,-115l307 -179 -53 145c-170,124 -347,254 -397,290 -42,30 -83,60 -124,90 -14,10 -52,35 -59,46 -12,17 -4,46 21,52 29,8 93,-57 120,-79 41,-33 232,-188 417,-339l-100 274 -47 51c-17,19 -85,77 -30,93 8,3 18,-1 28,-9l-302 831c-45,121 -35,250 15,359 51,109 143,198 265,243l251 91 -552 0 -1249 -3979 0 0 -2 -6c-32,-101 -19,-205 26,-293 46,-86 124,-156 224,-188l1 0 2660 -835c101,-32 206,-19 293,26 87,46 157,124 188,225l26 81 -79 -28z"/>
   <path class="fil1" d="M11623 4545l-1769 -1675 -1183 3245 43 0c19,-79 57,-162 72,-179 5,49 17,116 20,179l264 0c-19,-90 -25,-198 -26,-221 14,29 93,134 126,221l1495 0 973 -1028c72,-76 107,-176 104,-274 -2,-99 -42,-196 -119,-268zm-2523 862l190 37c62,2 148,0 120,-77 -61,-37 -233,25 -310,40zm833 164c29,20 282,121 320,78 88,-99 -264,-85 -320,-78zm-568 84c25,-115 -193,-142 -288,-152 32,30 86,66 130,94 49,30 84,80 158,58zm-167 205c21,-71 -28,-100 -73,-141 -43,-38 -85,-79 -128,-110 9,51 42,115 67,157 32,53 52,104 134,94zm389 -1239c14,-7 283,-174 229,-233 -8,-3 -2,-15 -43,-9 -68,9 -166,189 -186,242zm-527 668c46,-12 336,-94 272,-165 -49,-54 -200,78 -241,123 -3,3 -11,11 -13,14 -13,18 -6,8 -18,28zm-170 357c-6,51 -60,368 42,310 74,-41 -9,-263 -42,-310zm993 -580c50,0 392,-34 304,-129 -45,-48 -267,102 -304,129zm-627 702c17,35 196,285 268,217 27,-26 13,-54 -21,-83l-247 -134zm125 -265c33,33 107,52 154,72 46,19 140,75 181,30 43,-48 -39,-84 -105,-94 -81,-12 -147,-9 -230,-8zm-19 -236c96,7 409,-37 330,-129 -50,-58 -276,102 -330,129zm-154 -243c57,-33 103,-68 154,-106 29,-21 145,-88 91,-140 -74,-71 -220,180 -245,246zm290 15c65,-21 165,-81 220,-113 46,-26 202,-85 133,-160 -91,-100 -329,216 -353,273zm446 890c12,-110 -58,-121 -153,-144 -87,-21 -176,-32 -269,-35 19,24 -1,5 25,24l79 45c131,73 228,158 318,110zm-772 -1161c39,-27 355,-287 257,-381 -75,-71 -129,82 -153,137 -34,77 -80,165 -104,244zm414 575c81,42 434,128 462,19 27,-103 -130,-70 -195,-61 -81,11 -187,22 -267,42z"/>
   <path class="fil1" d="M9616 2153l-2612 -952 0 0 -8 -3c-99,-36 -204,-28 -293,13 -89,42 -162,117 -198,215l-1 1 -1466 4024c-36,99 -29,204 13,294 42,89 117,162 216,198l471 172 2842 0 1265 -3470c36,-99 29,-204 -13,-294 -42,-89 -117,-162 -216,-198zm-1963 2479c9,-159 200,-394 335,-503 201,-163 358,-96 432,-211 117,-183 -176,-264 -476,100 -95,116 -226,293 -256,483 -20,-26 -8,3 -15,-34 -10,-47 14,-236 26,-280 116,-441 534,-673 957,-780 88,-23 204,-18 272,-76 155,-133 -51,-385 -616,-82 -154,83 -274,197 -371,325 -150,198 -262,491 -277,759 -4,59 0,113 4,171 4,63 -10,67 -15,128zm-270 -51c-35,-248 -265,-586 -478,-737 -283,-202 -764,-226 -952,-41 -62,62 -72,172 8,209 109,50 388,-143 813,-53 353,75 515,315 609,622zm109 -27c-3,-405 -47,-1093 -251,-1448 -43,-75 -200,-296 -331,-190 -188,153 189,329 376,694 164,319 202,545 206,944zm-120 135c-112,-59 -145,-101 -298,-145 -472,-136 -940,185 -951,339 -6,77 46,112 124,84 89,-32 120,-178 385,-297 299,-136 473,-78 740,19zm-62 -470c-51,-189 -242,-589 -372,-730 -172,-186 -518,-123 30,332 62,51 135,122 184,176 101,111 81,106 146,205 1,2 4,6 6,8 1,2 3,6 6,9zm327 528c136,56 234,16 518,197 80,51 141,103 204,157 28,24 155,177 219,72 89,-144 -234,-299 -344,-347 -110,-47 -480,-138 -597,-79zm-28 -645c67,-211 63,-313 204,-549 141,-234 348,-379 245,-477 -159,-151 -497,598 -449,1026zm235 447c146,-59 263,-60 389,25 103,70 133,213 310,185 63,-85 60,-135 -8,-207 -36,-39 -129,-97 -201,-121 -91,-30 -197,-32 -289,-5 -72,21 -157,63 -201,123zm41 -137c167,-102 266,-177 535,-170 311,8 518,171 508,-61 -128,-116 -424,-82 -600,-33 -157,44 -382,178 -443,264zm-470 338c-153,-37 -321,14 -431,84 -344,219 -217,491 -47,247 226,-326 206,-218 478,-331zm-187 -306c-44,-80 -187,-174 -307,-216 -110,-39 -374,-76 -410,43 -28,91 58,129 139,109 69,-17 105,-49 195,-59 171,-19 281,54 383,123zm1008 253c-1,-61 -14,-68 -75,-80 -106,-22 -272,-9 -367,34 93,2 145,-3 238,15 84,16 126,55 204,31zm-1408 -619c-63,63 141,92 359,258 -42,-94 -305,-313 -359,-258zm715 -33c14,-164 -7,-211 45,-397 6,-20 15,-45 15,-65 -1,-44 -6,-36 -25,-57 -52,15 -46,26 -57,94 -7,49 -11,101 -12,152 -1,76 36,251 34,273zm309 323c136,-167 339,-206 361,-245 85,-144 -218,-20 -361,245zm-545 236c-27,-56 -242,-261 -367,-227 0,67 7,64 68,83 227,72 219,107 299,144zm-110 -876c-22,72 81,172 138,313 17,41 24,86 41,119 5,-112 -73,-377 -125,-424 -27,-25 -38,-14 -54,-8zm603 380c3,-2 7,-10 8,-7 2,2 7,-6 8,-8 19,-22 5,-4 19,-25 131,-194 268,-259 213,-310 -61,-58 -230,254 -248,350z"/>
   <path class="fil1" d="M2578 8172l0 -1333 -339 0 0 500 -436 0 0 -500 -339 0 0 1333 339 0 0 -534 436 0 0 534 339 0zm1438 0l-529 -1333 -270 0 -533 1333 366 0 70 -194 463 0 64 194 369 0zm-525 -464l-278 0 140 -455 138 455zm1754 464l0 -1333 -326 0 14 839 -519 -839 -292 0 0 1333 326 0 -14 -809 515 809 296 0zm1440 0l-529 -1333 -270 0 -533 1333 365 0 70 -194 464 0 64 194 369 0zm-525 -464l-278 0 140 -455 138 455zm1612 60c0,-153 -74,-261 -220,-309 100,-58 154,-154 154,-270 0,-104 -44,-210 -126,-276 -96,-78 -264,-74 -380,-74l-409 0 0 1333 421 0c164,0 312,2 438,-116 80,-76 122,-178 122,-288zm-392 -527c0,88 -68,106 -144,106l-119 0 0 -208 119 0c76,0 144,12 144,102zm66 505c0,98 -86,126 -170,126l-159 0 0 -242 159 0c84,0 170,14 170,116zm837 426l0 -1333 -339 0 0 1333 339 0zm1386 0l0 -230 -405 0 0 -1103 -248 0 0 1333 653 0zm404 0l0 -1333 -248 0 0 1333 248 0zm1344 -1333l-258 0 -359 1013 -360 -1013 -259 0 519 1333 202 0 515 -1333zm827 1333l0 -230 -469 0 0 -316 449 0 0 -231 -449 0 0 -324 469 0 0 -232 -717 0 0 1333 717 0z"/>
   <polygon class="fil1" points="586,6201 13122,6201 13122,6516 586,6516 "/>
  </g>
 </g>
</svg>
