<?xml version="1.0" encoding="UTF-8" standalone="no"?>
<svg
   xmlns:dc="http://purl.org/dc/elements/1.1/"
   xmlns:cc="http://creativecommons.org/ns#"
   xmlns:rdf="http://www.w3.org/1999/02/22-rdf-syntax-ns#"
   xmlns:svg="http://www.w3.org/2000/svg"
   xmlns="http://www.w3.org/2000/svg"
   xmlns:sodipodi="http://sodipodi.sourceforge.net/DTD/sodipodi-0.dtd"
   xmlns:inkscape="http://www.inkscape.org/namespaces/inkscape"
   inkscape:export-ydpi="300.01093"
   inkscape:export-xdpi="300.01093"
   inkscape:export-filename="D:\src\hanabi-live\public\img\logos\3.png"
   sodipodi:docname="4.svg"
   inkscape:version="1.0 (4035a4fb49, 2020-05-01)"
   id="svg8"
   version="1.1"
   viewBox="0 0 137.07801 89.678688"
   height="89.678688mm"
   width="137.078mm">
  <defs
     id="defs2">
    <style
       type="text/css"
       id="style1496">
   <![CDATA[
    .str0 {stroke:#FEFEFE;stroke-width:50}
    .fil2 {fill:#FEFEFE}
    .fil3 {fill:#FFF212}
    .fil4 {fill:#ED3237}
    .fil1 {fill:#00AFEF}
    .fil0 {fill:#2F3686}
   ]]>
  </style>
    <style
       type="text/css"
       id="style3175">
   <![CDATA[
    .fil0 {fill:#201E1E}
   ]]>
  </style>
    <style
       type="text/css"
       id="style3214">
   <![CDATA[
    .str0 {stroke:#373435;stroke-width:20}
    .fil1 {fill:#FEFEFE}
    .fil0 {fill:#201E1E}
   ]]>
  </style>
  </defs>
  <sodipodi:namedview
     fit-margin-bottom="0"
     fit-margin-right="0"
     fit-margin-left="0"
     fit-margin-top="0"
     inkscape:window-maximized="0"
     inkscape:window-y="0"
     inkscape:window-x="160"
     inkscape:window-height="1030"
     inkscape:window-width="1424"
     showgrid="false"
     inkscape:document-rotation="0"
     inkscape:current-layer="_912499552"
     inkscape:document-units="mm"
     inkscape:cy="209.55088"
     inkscape:cx="253.42921"
     inkscape:zoom="1.4"
     inkscape:pageshadow="2"
     inkscape:pageopacity="0.0"
     borderopacity="1.0"
     bordercolor="#666666"
     pagecolor="#ffffff"
     id="base" />
  <metadata
     id="metadata5">
    <rdf:RDF>
      <cc:Work
         rdf:about="">
        <dc:format>image/svg+xml</dc:format>
        <dc:type
           rdf:resource="http://purl.org/dc/dcmitype/StillImage" />
        <dc:title></dc:title>
      </cc:Work>
    </rdf:RDF>
  </metadata>
  <g
     transform="translate(-1.4023982,-57.006443)"
     id="layer1"
     inkscape:groupmode="layer"
     inkscape:label="Layer 1">
    <g
       transform="matrix(0.00999943,0,0,0.00999943,6.4413973,55.543384)"
       id="g3210"
       style="clip-rule:evenodd;fill-rule:evenodd;image-rendering:optimizeQuality;shape-rendering:geometricPrecision;text-rendering:geometricPrecision">
      <g
         id="Layer_x0020_1">
  <metadata
   id="CorelCorpID_0Corel-Layer" />

  <g
   id="_912499552">
   
   
   
   
   
   
  <g
   transform="matrix(1.0000424,0,0,1.0000424,-503.92863,146.31426)"
   id="g3252"
   style="clip-rule:evenodd;fill-rule:evenodd;image-rendering:optimizeQuality;shape-rendering:geometricPrecision;text-rendering:geometricPrecision">
  <g
     id="Layer_x0020_1-5">
  <metadata
   id="CorelCorpID_0Corel-Layer-1" />

  <polygon
   class="fil0 str0"
   points="10,10 13698,10 13698,8958 10,8958 "
   id="polygon3219" />

  <g
   id="_913823760">
   <path
   class="fil1"
   d="m 3622,2213 -1517,964 c -89,56 -147,144 -169,240 -21,96 -6,200 51,289 l 1530,2409 h 1330 l -235,-751 c -3,102 4,204 22,304 19,105 34,123 53,201 -12,10 -64,25 -84,29 -4,-33 -17,-74 -23,-110 -32,-178 -26,-349 2,-518 l -62,-198 c -52,127 -94,262 -125,396 -22,96 -37,199 -45,303 -12,164 1,188 9,332 -28,2 -93,13 -116,9 -1,-404 81,-700 255,-1046 2,-3 6,-12 12,-24 l -14,-47 c -57,77 -103,159 -147,245 -47,91 -104,254 -111,372 l -71,-9 c 2,-47 40,-156 57,-198 24,-60 54,-121 85,-173 26,-43 122,-183 182,-252 l -25,-78 c -14,19 -56,57 -69,70 l -71,79 c -44,52 -87,108 -129,171 -71,109 -162,285 -185,419 l -86,-23 c 38,-146 141,-297 224,-412 12,-16 23,-28 37,-44 l 75,-85 c 34,-37 122,-118 164,-152 19,-16 28,-28 38,-30 l -120,-384 c -158,-83 -358,-151 -535,-172 -41,-5 -82,-7 -124,-7 -26,0 -107,7 -123,4 l -7,-86 c 288,7 426,56 663,174 40,19 82,46 120,69 l -16,-50 c -5,-4 -10,-8 -14,-11 -169,-118 -384,-233 -603,-235 l 2,-54 c 180,6 400,124 536,225 7,6 42,32 74,58 l -29,-92 c -93,-97 -216,-207 -314,-278 -154,-113 -297,-197 -482,-260 l -78,-26 35,-116 c 200,40 551,327 674,451 l 151,183 -66,-210 c -4,-5 -9,-9 -13,-14 -57,-58 -108,-107 -177,-153 l -29,-20 27,-44 c 16,7 42,29 56,41 18,15 37,29 53,45 8,8 14,17 23,25 9,9 17,15 25,24 l 7,9 -60,-194 c -20,-22 -41,-44 -62,-66 -74,-77 -148,-132 -231,-200 -33,-25 -119,-75 -131,-85 5,-15 50,-87 63,-104 48,18 231,185 292,254 l 9,11 -54,-171 -39,-2 c 3,-8 0,-3 9,-10 6,-4 14,-9 22,-15 z m -166,3026 -17,-7 7,17 -12,15 20,-1 7,16 4,-16 17,-6 c -1,-2 -2,-3 -3,-3 -3,6 2,2 -10,-8 l 3,-17 c -9,4 -6,5 -16,10 z m -163,-383 -22,-9 c 4,10 6,14 11,23 l -14,19 25,-6 c 2,4 2,6 4,9 l 10,10 c 1,-26 -1,-24 25,-28 l -23,-11 1,-24 z m 437,245 h -26 c 2,3 15,14 18,17 l -7,23 c 10,-4 12,-7 23,-11 10,7 9,9 19,14 l -5,-26 20,-14 -26,-2 -7,-24 z m -492,-684 c -1,1 -3,0 -3,1 l -26,6 24,15 -4,30 22,-19 27,13 -11,-28 c 9,-9 14,-11 19,-21 l -29,3 c -4,-9 -6,-17 -14,-24 z m 586,-718 c -9,11 -16,16 -24,29 10,-1 17,-3 26,-5 37,-9 26,7 42,32 l 3,-39 c 9,-10 27,-7 42,-16 -9,-9 -27,-13 -40,-17 l 5,-45 c -22,21 -10,11 -38,31 l -33,-14 c 6,16 23,32 17,44 z m 49,1750 -31,8 29,14 -1,34 c 10,-10 13,-11 20,-24 l 35,11 -17,-31 c 10,-8 16,-16 20,-26 l -30,8 c -9,-7 -8,-11 -15,-20 l -7,-8 z m 301,228 -36,19 c 9,5 26,5 40,7 3,9 3,11 5,20 l 6,19 c 0,1 1,2 1,2 l 17,-36 43,4 -29,-28 c 2,-17 10,-24 15,-41 l -35,18 -34,-27 z m -596,-1532 38,21 -7,45 34,-31 40,21 -19,-41 c 13,-16 23,-21 31,-32 l -45,5 -19,-41 c -3,13 -5,38 -11,43 -7,6 -31,3 -42,10 z m -241,1019 -43,-1 c 8,12 25,19 34,30 l -14,42 40,-24 c 9,8 26,22 35,27 l -12,-46 c 9,-4 32,-17 37,-26 l -45,-1 -12,-44 c -5,8 -7,13 -9,20 -4,11 -5,15 -11,23 z m 157,-1151 -48,-1 c 7,11 23,23 35,28 l -15,49 c 14,-7 28,-20 42,-26 10,8 26,24 38,28 l -12,-46 39,-27 -46,-3 c -8,-11 -11,-31 -16,-46 z m 1230,1974 56,-23 c -19,-5 -59,-13 -66,-28 -4,-9 -4,-43 -5,-57 -9,7 -31,45 -34,57 l -70,-14 c 11,16 31,35 44,50 -8,17 -32,52 -34,63 l 58,-27 c 21,5 27,33 52,47 -2,-16 -9,-54 -1,-68 z M 3704,5344 c -9,11 -17,22 -26,34 -18,24 -33,45 -50,71 -19,28 -81,123 -90,156 l 106,46 c 9,-35 49,-112 66,-144 49,-89 104,-173 167,-251 162,-188 279,-285 497,-442 16,-11 9,-1 11,-14 -24,-11 -260,147 -310,187 -108,82 -295,256 -371,357 z m -283,-471 -52,-24 c 7,21 22,35 28,57 -10,8 -13,10 -21,20 -6,8 -13,18 -19,22 l 59,-11 c 11,16 20,39 32,52 l 7,-61 c 10,-1 19,-3 30,-5 l 27,-8 -50,-23 c -7,-21 9,-46 0,-62 -9,12 -26,35 -41,43 z m 187,-1303 -54,-25 27,54 -40,45 60,-10 28,53 c 1,-1 1,-3 1,-3 l 9,-58 60,-11 -55,-28 8,-61 z m -431,986 13,52 164,-42 c 55,-11 125,-23 182,-24 -4,-11 9,1 -5,-5 -17,-8 -161,-3 -176,-2 -63,4 -118,14 -178,21 z m 536,-152 c -1,17 4,40 11,53 177,-24 230,-15 407,18 -3,-7 1,-2 -6,-6 -17,-11 -166,-48 -183,-51 -76,-16 -149,-21 -229,-14 z m -391,-524 c 83,-1 166,14 240,34 l 188,66 c 12,2 7,3 13,-2 6,-13 4,-10 -11,-17 -8,-4 -16,-8 -26,-13 -110,-54 -269,-115 -391,-118 z m 583,1094 c 14,14 27,34 45,43 l 65,-58 c 77,-67 192,-125 287,-165 19,-8 42,-16 60,-25 -4,-3 -3,-4 -16,-2 l -113,34 c -81,27 -161,58 -232,103 -25,15 -84,52 -96,70 z m -375,173 c 11,9 33,25 45,30 10,-23 63,-81 79,-98 78,-84 208,-170 313,-222 l -9,-19 c -38,12 -93,43 -126,60 -87,47 -143,92 -215,153 -18,15 -78,76 -87,96 z m -133,-883 -89,32 c 5,3 1,1 10,5 3,1 8,2 11,3 l 69,20 10,88 c 1,-1 2,-2 2,-2 l 46,-68 91,25 -54,-75 c 7,-24 40,-56 50,-81 l -87,31 c -18,-12 -41,-52 -59,-72 -2,3 -1,-5 -3,8 l 1,34 c 1,17 1,35 2,52 z m 495,1131 47,19 c 8,-13 40,-91 74,-147 56,-90 127,-172 202,-244 26,-25 23,-27 56,-55 12,-10 16,-15 28,-27 13,-12 28,-13 18,-28 -22,4 -206,171 -240,212 -40,47 -63,68 -102,124 -26,36 -66,98 -83,146 z m 127,515 52,-1 c 4,-25 2,-75 4,-103 6,-90 26,-195 52,-279 30,-95 53,-150 93,-237 10,-21 33,-57 37,-76 l -46,70 c -14,25 -29,50 -41,77 -25,54 -49,103 -71,162 -34,89 -87,281 -80,387 z m -637,-809 c 14,9 27,21 40,31 l 149,-147 c 12,-9 24,-18 36,-27 68,-51 146,-98 227,-135 20,-9 167,-67 171,-71 -58,-2 -287,98 -349,134 -55,31 -103,61 -147,96 -30,23 -114,92 -127,119 z m 1156,907 50,-16 c -9,-41 -31,-89 -46,-159 -12,-58 -21,-119 -25,-180 -5,-64 -5,-131 -2,-196 2,-26 21,-175 16,-182 -10,17 -28,143 -32,172 -17,130 -18,260 0,391 7,43 23,136 39,170 z M 3500,4823 c 5,21 35,52 46,75 l 80,-50 c 28,-17 56,-32 86,-46 181,-86 387,-128 590,-135 14,-1 49,1 59,-6 -1,-1 -2,-2 -3,-2 l -116,-8 c -124,-2 -240,6 -362,31 -71,14 -138,33 -203,58 -58,22 -167,80 -177,83 z m -483,-83 64,119 125,-65 c 41,-22 91,-42 136,-59 98,-35 195,-63 301,-85 207,-42 419,-53 631,-43 19,1 78,10 90,2 -3,-15 -51,-16 -77,-20 -443,-62 -861,-37 -1270,151 z m 2187,706 c 108,301 92,58 -14,-132 -14,-26 -100,-180 14,132 z m -166,266 c -2,-3 -3,-7 -4,-10 -15,-46 -22,-94 -19,-143 11,52 6,95 23,153 z"
   id="path3221" />

   <path
   class="fil1"
   d="m 7025,1118 -7,-3 v 0 l -6,-2 v 0 l -5,-2 -6,-1 -6,-2 -5,-2 -6,-1 -5,-2 -6,-1 v 0 l -6,-1 v 0 l -5,-1 v 0 l -6,-2 -6,-1 -5,-1 v 0 l -6,-1 v 0 l -6,-1 h -5 l -6,-1 v 0 l -5,-1 h -6 l -6,-1 v 0 h -5 v 0 l -6,-1 v 0 h -6 v 0 h -5 v 0 h -6 v 0 h -6 v 0 l -5,-1 -6,1 h -5 -6 -6 v 0 h -5 l -6,1 h -5 l -6,1 h -5 v 0 l -6,1 -6,1 h -5 v 0 l -6,1 -5,1 -5,1 -6,1 -5,1 v 0 l -6,1 -5,1 -6,2 -5,1 -5,1 -6,2 -5,1 -5,2 v 0 l -6,2 -5,1 -5,2 -5,2 -5,2 -6,2 -5,2 -5,2 -5,2 -5,2 -5,2 -5,3 -5,2 -5,3 -5,2 -5,3 -5,2 -5,3 v 0 l -5,3 v 0 l -5,3 v 0 l -5,2 -5,3 -4,3 -5,3 v 0 l -5,4 v 0 l -4,3 v 0 l -5,3 v 0 l -5,3 v 0 l -4,4 -5,3 -4,3 -5,4 -4,4 v 0 l -4,3 v 0 l -5,4 v 0 l -4,4 -4,3 v 0 l -4,4 v 0 l -5,4 v 0 l -4,4 v 0 l -4,4 v 0 l -4,4 v 0 l -4,4 v 0 l -4,4 v 0 l -4,5 -3,4 v 0 l -4,4 v 0 l -4,4 v 0 l -4,5 v 0 l -3,4 v 0 l -4,5 v 0 l -3,4 -4,5 -3,5 -4,4 v 0 l -3,5 v 0 l -3,5 -3,5 v 0 l -3,5 v 0 l -4,5 -3,5 v 0 l -3,5 v 0 l -2,5 -3,5 -3,5 -3,5 -3,6 v 0 l -2,5 -3,5 -2,6 -3,5 -2,6 -2,5 -3,6 -2,5 -2,6 -3,7 -369,1013 c 1,-15 -2,-32 -19,-38 -50,-17 -38,76 -38,100 l 1,94 -100,272 -67,-636 c -1,-11 -2,-23 -4,-35 -10,-45 -67,-51 -68,5 -1,30 10,69 12,86 9,52 17,101 26,154 6,40 43,267 79,488 l -58,159 c -18,-56 -34,-107 -46,-146 -24,-78 -49,-160 -73,-239 -10,-34 -58,-224 -85,-231 -18,-4 -37,12 -35,31 0,1 127,355 225,622 l -37,102 -190,-391 c -43,-91 -88,-180 -131,-270 l -97,-200 c -4,-8 -7,-15 -10,-20 -24,-39 -78,-15 -60,33 1,4 4,9 6,14 l 108,193 c 49,87 98,175 147,262 71,129 144,268 220,400 l -27,73 c -143,-192 -379,-505 -435,-580 -9,-12 -27,-40 -38,-50 -14,-14 -42,-11 -48,12 -8,27 123,165 148,195 118,144 247,292 368,437 l -26,71 c -151,-151 -561,-548 -603,-588 l -163,-159 c -19,-16 -50,-16 -59,12 -11,32 74,93 98,114 78,68 555,486 724,630 l -20,55 c -105,-71 -292,-192 -335,-220 -68,-45 -133,-88 -201,-133 -35,-23 -67,-45 -102,-68 -21,-13 -88,-73 -102,-21 -9,32 69,65 90,77 58,33 474,279 646,376 l -22,59 c -7,-3 -14,-5 -21,-9 l -342,-155 c -45,-20 -90,-40 -135,-61 l -410,-187 c -58,-26 -115,-65 -129,-15 -10,35 28,46 47,53 l 349,134 c 122,43 287,113 413,160 l 226,86 -20,54 -497,-118 c -20,-4 -37,-12 -57,-16 l -175,-40 c -40,-9 -96,-39 -107,3 -10,41 43,37 97,49 l 736,132 -24,64 -198,-16 c -268,-24 -557,-38 -823,-64 -96,-9 -82,67 -15,69 l 833,15 c 53,2 101,3 153,4 17,0 32,0 47,1 l -23,62 c -203,23 -510,60 -549,65 -50,6 -224,14 -233,44 -18,58 75,30 101,25 41,-7 81,-14 123,-21 l 493,-86 60,-11 -31,84 -664,186 c -49,13 -97,27 -145,40 -32,9 -127,25 -134,57 -6,28 18,46 42,42 l 809,-279 c 16,-5 48,-16 86,-29 l -38,104 c -116,59 -232,118 -346,174 -46,23 -166,74 -205,109 -20,19 7,52 28,43 50,-20 159,-89 204,-115 l 307,-179 -53,145 c -170,124 -347,254 -397,290 -42,30 -83,60 -124,90 -14,10 -52,35 -59,46 -12,17 -4,46 21,52 29,8 93,-57 120,-79 41,-33 232,-188 417,-339 l -100,274 -47,51 c -17,19 -85,77 -30,93 8,3 18,-1 28,-9 l -302,831 c -45,121 -35,250 15,359 51,109 143,198 265,243 l 251,91 H 4937 L 3688,2136 v 0 l -2,-6 c -32,-101 -19,-205 26,-293 46,-86 124,-156 224,-188 h 1 L 6597,814 c 101,-32 206,-19 293,26 87,46 157,124 188,225 l 26,81 z"
   id="path3223" />

   <path
   class="fil1"
   d="M 11623,4545 9854,2870 8671,6115 h 43 c 19,-79 57,-162 72,-179 5,49 17,116 20,179 h 264 c -19,-90 -25,-198 -26,-221 14,29 93,134 126,221 h 1495 l 973,-1028 c 72,-76 107,-176 104,-274 -2,-99 -42,-196 -119,-268 z m -2523,862 190,37 c 62,2 148,0 120,-77 -61,-37 -233,25 -310,40 z m 833,164 c 29,20 282,121 320,78 88,-99 -264,-85 -320,-78 z m -568,84 c 25,-115 -193,-142 -288,-152 32,30 86,66 130,94 49,30 84,80 158,58 z m -167,205 c 21,-71 -28,-100 -73,-141 -43,-38 -85,-79 -128,-110 9,51 42,115 67,157 32,53 52,104 134,94 z m 389,-1239 c 14,-7 283,-174 229,-233 -8,-3 -2,-15 -43,-9 -68,9 -166,189 -186,242 z m -527,668 c 46,-12 336,-94 272,-165 -49,-54 -200,78 -241,123 -3,3 -11,11 -13,14 -13,18 -6,8 -18,28 z m -170,357 c -6,51 -60,368 42,310 74,-41 -9,-263 -42,-310 z m 993,-580 c 50,0 392,-34 304,-129 -45,-48 -267,102 -304,129 z m -627,702 c 17,35 196,285 268,217 27,-26 13,-54 -21,-83 z m 125,-265 c 33,33 107,52 154,72 46,19 140,75 181,30 43,-48 -39,-84 -105,-94 -81,-12 -147,-9 -230,-8 z m -19,-236 c 96,7 409,-37 330,-129 -50,-58 -276,102 -330,129 z m -154,-243 c 57,-33 103,-68 154,-106 29,-21 145,-88 91,-140 -74,-71 -220,180 -245,246 z m 290,15 c 65,-21 165,-81 220,-113 46,-26 202,-85 133,-160 -91,-100 -329,216 -353,273 z m 446,890 c 12,-110 -58,-121 -153,-144 -87,-21 -176,-32 -269,-35 19,24 -1,5 25,24 l 79,45 c 131,73 228,158 318,110 z M 9172,4768 c 39,-27 355,-287 257,-381 -75,-71 -129,82 -153,137 -34,77 -80,165 -104,244 z m 414,575 c 81,42 434,128 462,19 27,-103 -130,-70 -195,-61 -81,11 -187,22 -267,42 z"
   id="path3225" />

   <path
   class="fil1"
   d="M 9616,2153 7004,1201 v 0 l -8,-3 c -99,-36 -204,-28 -293,13 -89,42 -162,117 -198,215 l -1,1 -1466,4024 c -36,99 -29,204 13,294 42,89 117,162 216,198 l 471,172 H 8580 L 9845,2645 c 36,-99 29,-204 -13,-294 -42,-89 -117,-162 -216,-198 z M 7653,4632 c 9,-159 200,-394 335,-503 201,-163 358,-96 432,-211 117,-183 -176,-264 -476,100 -95,116 -226,293 -256,483 -20,-26 -8,3 -15,-34 -10,-47 14,-236 26,-280 116,-441 534,-673 957,-780 88,-23 204,-18 272,-76 155,-133 -51,-385 -616,-82 -154,83 -274,197 -371,325 -150,198 -262,491 -277,759 -4,59 0,113 4,171 4,63 -10,67 -15,128 z m -270,-51 c -35,-248 -265,-586 -478,-737 -283,-202 -764,-226 -952,-41 -62,62 -72,172 8,209 109,50 388,-143 813,-53 353,75 515,315 609,622 z m 109,-27 c -3,-405 -47,-1093 -251,-1448 -43,-75 -200,-296 -331,-190 -188,153 189,329 376,694 164,319 202,545 206,944 z m -120,135 c -112,-59 -145,-101 -298,-145 -472,-136 -940,185 -951,339 -6,77 46,112 124,84 89,-32 120,-178 385,-297 299,-136 473,-78 740,19 z m -62,-470 c -51,-189 -242,-589 -372,-730 -172,-186 -518,-123 30,332 62,51 135,122 184,176 101,111 81,106 146,205 1,2 4,6 6,8 1,2 3,6 6,9 z m 327,528 c 136,56 234,16 518,197 80,51 141,103 204,157 28,24 155,177 219,72 89,-144 -234,-299 -344,-347 -110,-47 -480,-138 -597,-79 z m -28,-645 c 67,-211 63,-313 204,-549 141,-234 348,-379 245,-477 -159,-151 -497,598 -449,1026 z m 235,447 c 146,-59 263,-60 389,25 103,70 133,213 310,185 63,-85 60,-135 -8,-207 -36,-39 -129,-97 -201,-121 -91,-30 -197,-32 -289,-5 -72,21 -157,63 -201,123 z m 41,-137 c 167,-102 266,-177 535,-170 311,8 518,171 508,-61 -128,-116 -424,-82 -600,-33 -157,44 -382,178 -443,264 z m -470,338 c -153,-37 -321,14 -431,84 -344,219 -217,491 -47,247 226,-326 206,-218 478,-331 z m -187,-306 c -44,-80 -187,-174 -307,-216 -110,-39 -374,-76 -410,43 -28,91 58,129 139,109 69,-17 105,-49 195,-59 171,-19 281,54 383,123 z m 1008,253 c -1,-61 -14,-68 -75,-80 -106,-22 -272,-9 -367,34 93,2 145,-3 238,15 84,16 126,55 204,31 z M 6828,4078 c -63,63 141,92 359,258 -42,-94 -305,-313 -359,-258 z m 715,-33 c 14,-164 -7,-211 45,-397 6,-20 15,-45 15,-65 -1,-44 -6,-36 -25,-57 -52,15 -46,26 -57,94 -7,49 -11,101 -12,152 -1,76 36,251 34,273 z m 309,323 c 136,-167 339,-206 361,-245 85,-144 -218,-20 -361,245 z m -545,236 c -27,-56 -242,-261 -367,-227 0,67 7,64 68,83 227,72 219,107 299,144 z m -110,-876 c -22,72 81,172 138,313 17,41 24,86 41,119 5,-112 -73,-377 -125,-424 -27,-25 -38,-14 -54,-8 z m 603,380 c 3,-2 7,-10 8,-7 2,2 7,-6 8,-8 19,-22 5,-4 19,-25 131,-194 268,-259 213,-310 -61,-58 -230,254 -248,350 z"
   id="path3227" />

   <path
   sodipodi:nodetypes="ccccccccccccccccccccccccccccccccccccccccccccccccccscscsccscsssccssssccssccccccccccccccccccccccccccccccccc"
   class="fil1"
   d="M 2895.5046,8172 V 6839 h -339 v 500 h -436 v -500 h -339 v 1333 h 339 v -534 h 436 v 534 z m 1438,0 -529,-1333 h -270 l -533,1333 h 366 l 70,-194 h 463 l 64,194 z m -525,-464 h -278 l 140,-455 z m 1754,464 V 6839 h -326 l 14,839 -519,-839 h -292 v 1333 h 326 l -14,-809 515,809 z m 1440,0 -529,-1333 h -270 l -533,1333 h 365 l 70,-194 h 464 l 64,194 z m -525,-464 h -278 l 140,-455 z m 1612,60 c 0,-153 -74,-261 -220,-309 100,-58 154,-154 154,-270 0,-104 -44,-210 -126,-276 -96,-78 -264,-74 -380,-74 h -409 v 1333 h 421 c 164,0 312,2 438,-116 80,-76 122,-178 122,-288 z m -392,-527 c 0,88 -68,106 -144,106 h -119 v -208 h 119 c 76,0 144,12 144,102 z m 66,505 c 0,98 -86,126 -170,126 h -159 v -242 h 159 c 84,0 170,14 170,116 z m 1587.9908,426 v -230 h -405 V 6839 h -248 v 1333 z m 404,0 V 6839 h -248 V 8172 Z M 11099.495,6839 h -258 l -359,1013 -360,-1013 h -258.9996 l 518.9996,1333 h 202 z m 827,1333 v -230 h -469 v -316 h 449 v -231 h -449 v -324 h 469 v -232 h -717 v 1333 z"
   id="path3229" />

   <polygon
   class="fil1"
   points="586,6201 13122,6201 13122,6516 586,6516 "
   id="polygon3231" />

  </g>

 </g>
</g>
</g>

 </g>
    </g>
  </g>
</svg>
