<svg xmlns="http://www.w3.org/2000/svg" id="svg3341" version="1.1" clip-rule="evenodd" fill-rule="evenodd" image-rendering="optimizeQuality" text-rendering="geometricPrecision" shape-rendering="geometricPrecision" viewBox="0 0 13708 8968" height="338.9" width="518.1"><defs id="defs3329"><style id="style3327">.fil1{fill:#fefefe}</style></defs><g id="Layer_x0020_1"><path id="path3331" d="M10 10h13688v8948H10z" stroke-width="20" stroke="#373435" fill="none"/><g id="_913823760"><path id="path3333" d="M3622 2213l-1517 964a384 384 0 00-118 529l1530 2409h1330l-235-751c-3 102 4 204 22 304 19 105 34 123 53 201-12 10-64 25-84 29-4-33-17-74-23-110-32-178-26-349 2-518l-62-198c-52 127-94 262-125 396-22 96-37 199-45 303-12 164 1 188 9 332-28 2-93 13-116 9-1-404 81-700 255-1046l12-24-14-47c-57 77-103 159-147 245-47 91-104 254-111 372l-71-9c2-47 40-156 57-198 24-60 54-121 85-173 26-43 122-183 182-252l-25-78c-14 19-56 57-69 70l-71 79c-44 52-87 108-129 171-71 109-162 285-185 419l-86-23c38-146 141-297 224-412 12-16 23-28 37-44l75-85c34-37 122-118 164-152 19-16 28-28 38-30l-120-384c-158-83-358-151-535-172-41-5-82-7-124-7-26 0-107 7-123 4l-7-86c288 7 426 56 663 174 40 19 82 46 120 69l-16-50-14-11c-169-118-384-233-603-235l2-54c180 6 400 124 536 225l74 58-29-92c-93-97-216-207-314-278a1713 1713 0 00-482-260l-78-26 35-116c200 40 551 327 674 451l151 183-66-210-13-14c-57-58-108-107-177-153l-29-20 27-44c16 7 42 29 56 41 18 15 37 29 53 45 8 8 14 17 23 25l25 24 7 9-60-194-62-66c-74-77-148-132-231-200-33-25-119-75-131-85 5-15 50-87 63-104 48 18 231 185 292 254l9 11-54-171-39-2c3-8 0-3 9-10l22-15-376-1196zm-166 3026l-17-7 7 17-12 15 20-1 7 16 4-16 17-6-3-3c-3 6 2 2-10-8l3-17c-9 4-6 5-16 10zm-163-383l-22-9 11 23-14 19 25-6 4 9 10 10c1-26-1-24 25-28l-23-11 1-24-17 17zm437 245h-26l18 17-7 23c10-4 12-7 23-11 10 7 9 9 19 14l-5-26 20-14-26-2-7-24-9 23zm-492-684l-3 1-26 6 24 15-4 30 22-19 27 13-11-28c9-9 14-11 19-21l-29 3c-4-9-6-17-14-24l-5 24zm586-718c-9 11-16 16-24 29l26-5c37-9 26 7 42 32l3-39c9-10 27-7 42-16-9-9-27-13-40-17l5-45c-22 21-10 11-38 31l-33-14c6 16 23 32 17 44zm49 1750l-31 8 29 14-1 34c10-10 13-11 20-24l35 11-17-31c10-8 16-16 20-26l-30 8c-9-7-8-11-15-20l-7-8-3 34zm301 228l-36 19c9 5 26 5 40 7l5 20 6 19 1 2 17-36 43 4-29-28c2-17 10-24 15-41l-35 18-34-27 7 43zm-596-1532l38 21-7 45 34-31 40 21-19-41c13-16 23-21 31-32l-45 5-19-41c-3 13-5 38-11 43-7 6-31 3-42 10zm-241 1019l-43-1c8 12 25 19 34 30l-14 42 40-24c9 8 26 22 35 27l-12-46c9-4 32-17 37-26l-45-1-12-44c-5 8-7 13-9 20-4 11-5 15-11 23zm157-1151l-48-1c7 11 23 23 35 28l-15 49c14-7 28-20 42-26 10 8 26 24 38 28l-12-46 39-27-46-3c-8-11-11-31-16-46l-17 44zm1230 1974l56-23c-19-5-59-13-66-28-4-9-4-43-5-57-9 7-31 45-34 57l-70-14c11 16 31 35 44 50-8 17-32 52-34 63l58-27c21 5 27 33 52 47-2-16-9-54-1-68zm-1020-643l-26 34c-18 24-33 45-50 71-19 28-81 123-90 156l106 46c9-35 49-112 66-144 49-89 104-173 167-251 162-188 279-285 497-442 16-11 9-1 11-14-24-11-260 147-310 187-108 82-295 256-371 357zm-283-471l-52-24c7 21 22 35 28 57-10 8-13 10-21 20-6 8-13 18-19 22l59-11c11 16 20 39 32 52l7-61 30-5 27-8-50-23c-7-21 9-46 0-62-9 12-26 35-41 43zm187-1303l-54-25 27 54-40 45 60-10 28 53 1-3 9-58 60-11-55-28 8-61-44 44zm-431 986l13 52 164-42c55-11 125-23 182-24-4-11 9 1-5-5-17-8-161-3-176-2-63 4-118 14-178 21zm536-152c-1 17 4 40 11 53 177-24 230-15 407 18-3-7 1-2-6-6-17-11-166-48-183-51-76-16-149-21-229-14zm-391-524c83-1 166 14 240 34l188 66c12 2 7 3 13-2 6-13 4-10-11-17l-26-13c-110-54-269-115-391-118l-13 50zm583 1094c14 14 27 34 45 43l65-58c77-67 192-125 287-165 19-8 42-16 60-25-4-3-3-4-16-2l-113 34c-81 27-161 58-232 103-25 15-84 52-96 70zm-375 173c11 9 33 25 45 30 10-23 63-81 79-98 78-84 208-170 313-222l-9-19c-38 12-93 43-126 60-87 47-143 92-215 153-18 15-78 76-87 96zm-133-883l-89 32 10 5 11 3 69 20 10 88 2-2 46-68 91 25-54-75c7-24 40-56 50-81l-87 31c-18-12-41-52-59-72-2 3-1-5-3 8l1 34 2 52zm495 1131l47 19c8-13 40-91 74-147 56-90 127-172 202-244 26-25 23-27 56-55 12-10 16-15 28-27 13-12 28-13 18-28-22 4-206 171-240 212-40 47-63 68-102 124-26 36-66 98-83 146zm127 515l52-1c4-25 2-75 4-103 6-90 26-195 52-279 30-95 53-150 93-237 10-21 33-57 37-76l-46 70c-14 25-29 50-41 77-25 54-49 103-71 162-34 89-87 281-80 387zm-637-809c14 9 27 21 40 31l149-147 36-27c68-51 146-98 227-135 20-9 167-67 171-71-58-2-287 98-349 134-55 31-103 61-147 96-30 23-114 92-127 119zm1156 907l50-16c-9-41-31-89-46-159a1600 1600 0 01-27-376c2-26 21-175 16-182-10 17-28 143-32 172-17 130-18 260 0 391 7 43 23 136 39 170zM3500 4823c5 21 35 52 46 75l80-50c28-17 56-32 86-46 181-86 387-128 590-135 14-1 49 1 59-6l-3-2-116-8c-124-2-240 6-362 31-71 14-138 33-203 58-58 22-167 80-177 83zm-483-83l64 119 125-65c41-22 91-42 136-59 98-35 195-63 301-85 207-42 419-53 631-43 19 1 78 10 90 2-3-15-51-16-77-20-443-62-861-37-1270 151zm2187 706c108 301 92 58-14-132-14-26-100-180 14 132zm-166 266l-4-10c-15-46-22-94-19-143 11 52 6 95 23 153z" class="fil1"/><path id="path3335" d="M7025 1118l-7-3-6-2-5-2-6-1-6-2-5-2-6-1-5-2-6-1-6-1-5-1-6-2-6-1-5-1-6-1-6-1h-5l-6-1-5-1h-6l-6-1h-5l-6-1h-23l-5-1-6 1h-22l-6 1h-5l-6 1h-5l-6 1-6 1h-5l-6 1-5 1-5 1-6 1-5 1-6 1-5 1-6 2-5 1-5 1-6 2-5 1-5 2-6 2-5 1-5 2-5 2-5 2-6 2-5 2-5 2-5 2-5 2-5 2-5 3-5 2-5 3-5 2-5 3-5 2-5 3-5 3-5 3-5 2-5 3-4 3-5 3-5 4-4 3-5 3-5 3-4 4-5 3-4 3-5 4-4 4-4 3-5 4-4 4-4 3-4 4-5 4-4 4-4 4-4 4-4 4-4 4-4 5-3 4-4 4-4 4-4 5-3 4-4 5-3 4-4 5-3 5-4 4-3 5-3 5-3 5-3 5-4 5-3 5-3 5-2 5-3 5-3 5-3 5-3 6-2 5-3 5-2 6-3 5-2 6-2 5-3 6-2 5-2 6-3 7-369 1013c1-15-2-32-19-38-50-17-38 76-38 100l1 94-100 272-67-636-4-35c-10-45-67-51-68 5-1 30 10 69 12 86l26 154 79 488-58 159a12620 12620 0 01-119-385c-10-34-58-224-85-231-18-4-37 12-35 31 0 1 127 355 225 622l-37 102-190-391c-43-91-88-180-131-270l-97-200-10-20c-24-39-78-15-60 33l6 14 108 193 147 262c71 129 144 268 220 400l-27 73-435-580c-9-12-27-40-38-50-14-14-42-11-48 12-8 27 123 165 148 195 118 144 247 292 368 437l-26 71c-151-151-561-548-603-588l-163-159c-19-16-50-16-59 12-11 32 74 93 98 114 78 68 555 486 724 630l-20 55c-105-71-292-192-335-220l-201-133-102-68c-21-13-88-73-102-21-9 32 69 65 90 77 58 33 474 279 646 376l-22 59-21-9-342-155-135-61-410-187c-58-26-115-65-129-15-10 35 28 46 47 53l349 134c122 43 287 113 413 160l226 86-20 54-497-118c-20-4-37-12-57-16l-175-40c-40-9-96-39-107 3-10 41 43 37 97 49l736 132-24 64-198-16c-268-24-557-38-823-64-96-9-82 67-15 69l833 15a8021 8021 0 00200 5l-23 62c-203 23-510 60-549 65-50 6-224 14-233 44-18 58 75 30 101 25l123-21 493-86 60-11-31 84-664 186-145 40c-32 9-127 25-134 57-6 28 18 46 42 42l809-279 86-29-38 104c-116 59-232 118-346 174-46 23-166 74-205 109-20 19 7 52 28 43 50-20 159-89 204-115l307-179-53 145-397 290-124 90c-14 10-52 35-59 46-12 17-4 46 21 52 29 8 93-57 120-79l417-339-100 274-47 51c-17 19-85 77-30 93 8 3 18-1 28-9l-302 831a469 469 0 00280 602l251 91h-552L3688 2136l-2-6a385 385 0 01250-481h1l2660-835a385 385 0 01481 251l26 81-79-28zm4598 3427L9854 2870 8671 6115h43c19-79 57-162 72-179 5 49 17 116 20 179h264c-19-90-25-198-26-221 14 29 93 134 126 221h1495l973-1028c72-76 107-176 104-274-2-99-42-196-119-268zm-2523 862l190 37c62 2 148 0 120-77-61-37-233 25-310 40zm833 164c29 20 282 121 320 78 88-99-264-85-320-78zm-568 84c25-115-193-142-288-152 32 30 86 66 130 94 49 30 84 80 158 58zm-167 205c21-71-28-100-73-141-43-38-85-79-128-110 9 51 42 115 67 157 32 53 52 104 134 94zm389-1239c14-7 283-174 229-233-8-3-2-15-43-9-68 9-166 189-186 242zm-527 668c46-12 336-94 272-165-49-54-200 78-241 123l-13 14c-13 18-6 8-18 28zm-170 357c-6 51-60 368 42 310 74-41-9-263-42-310zm993-580c50 0 392-34 304-129-45-48-267 102-304 129zm-627 702c17 35 196 285 268 217 27-26 13-54-21-83l-247-134zm125-265c33 33 107 52 154 72 46 19 140 75 181 30 43-48-39-84-105-94-81-12-147-9-230-8zm-19-236c96 7 409-37 330-129-50-58-276 102-330 129zm-154-243c57-33 103-68 154-106 29-21 145-88 91-140-74-71-220 180-245 246zm290 15c65-21 165-81 220-113 46-26 202-85 133-160-91-100-329 216-353 273zm446 890c12-110-58-121-153-144-87-21-176-32-269-35 19 24-1 5 25 24l79 45c131 73 228 158 318 110zm-772-1161c39-27 355-287 257-381-75-71-129 82-153 137-34 77-80 165-104 244zm414 575c81 42 434 128 462 19 27-103-130-70-195-61-81 11-187 22-267 42z" class="fil1"/><path id="path3337" d="M9616 2153l-2612-952-8-3c-95.3765-34.2712-200.4196-29.5531-292.3395 13.1307-91.92 42.6838-163.3024 119.8904-198.6605 214.8693l-1 1-1466 4024c-35.0802 95.5997-30.6446 201.234 12.3266 293.5563C5093.2977 5836.8786 5171.2662 5908.2873 5267 5943l471 172h2842l1265-3470c35.0802-95.5997 30.6446-201.234-12.3266-293.5563C9789.7023 2259.1214 9711.7338 2187.7127 9616 2153zM7653 4632c9-159 200-394 335-503 201-163 358-96 432-211 117-183-176-264-476 100-95 116-226 293-256 483-20-26-8 3-15-34-10-47 14-236 26-280 116-441 534-673 957-780 88-23 204-18 272-76 155-133-51-385-616-82-154 83-274 197-371 325-161.3672 222.1859-257.3204 485.1046-277 759-4 59 0 113 4 171 4 63-10 67-15 128zm-270-51c-35-248-265-586-478-737-283-202-764-226-952-41-62 62-72 172 8 209 109 50 388-143 813-53 353 75 515 315 609 622zm109-27c-3-405-47-1093-251-1448-43-75-200-296-331-190-188 153 189 329 376 694 164 319 202 545 206 944zm-120 135c-112-59-145-101-298-145-472-136-940 185-951 339-6 77 46 112 124 84 89-32 120-178 385-297 299-136 473-78 740 19zm-62-470c-51-189-242-589-372-730-172-186-518-123 30 332 62 51 135 122 184 176 101 111 81 106 146 205l6 8zm327 528c136 56 234 16 518 197 80 51 141 103 204 157 28 24 155 177 219 72 89-144-234-299-344-347-110-47-480-138-597-79zm-28-645c67-211 63-313 204-549 141-234 348-379 245-477-159-151-497 598-449 1026zm235 447c146-59 263-60 389 25 103 70 133 213 310 185 63-85 60-135-8-207-128.355-127.8273-315.904-176.0542-490-126-72 21-157 63-201 123zm41-137c167-102 266-177 535-170 311 8 518 171 508-61-128-116-424-82-600-33-157 44-382 178-443 264zm-470 338c-149.1235-28.7073-303.571 1.3938-431 84-344 219-217 491-47 247 226-326 206-218 478-331zm-187-306c-44-80-187-174-307-216-110-39-374-76-410 43-28 91 58 129 139 109 69-17 105-49 195-59 171-19 281 54 383 123zm1008 253c-1-61-14-68-75-80-106-22-272-9-367 34 93 2 145-3 238 15 84 16 126 55 204 31zm-1408-619c-63 63 141 92 359 258-42-94-305-313-359-258zm715-33c14-164-7-211 45-397 6-20 15-45 15-65-1-44-6-36-25-57-52 15-46 26-57 94-7 49-11 101-12 152-1 76 36 251 34 273zm309 323c136-167 339-206 361-245 85-144-218-20-361 245zm-545 236c-27-56-242-261-367-227 0 67 7 64 68 83 227 72 219 107 299 144zm-110-876c-22 72 81 172 138 313 17 41 24 86 41 119 5-112-73-377-125-424-27-25-38-14-54-8zm603 380c3-2 7-10 8-7 2 2 7-6 8-8 19-22 5-4 19-25 131-194 268-259 213-310-61-58-230 254-248 350zM2895.545 8172V6839h-339v500h-436v-500h-339v1333h339v-534h436v534zm1438 0l-529-1333h-270l-533 1333h366l70-194h463l64 194zm-525-464h-278l140-455zm1754 464V6839h-326l14 839-519-839h-292v1333h326l-14-809 515 809zm1440 0l-529-1333h-270l-533 1333h365l70-194h464l64 194zm-525-464h-278l140-455zm1612 60c0-153-74-261-220-309 97.5909-54.3166 156.9286-158.3501 154-270 0-104-44-210-126-276-96-78-264-74-380-74h-409v1333h421c164 0 312 2 438-116 80-76 122-178 122-288zm-392-527c0 88-68 106-144 106h-119v-208h119c76 0 144 12 144 102zm66 505c0 98-86 126-170 126h-159v-242h159c84 0 170 14 170 116zm1587.91 426v-230h-405V6839h-248v1333zm404 0V6839h-248v1333zm1344-1333h-258l-359 1013-360-1013h-259l519 1333h202zm827 1333v-230h-469v-316h449v-231h-449v-324h469v-232h-717v1333zM586 6201h12536v315H586z" class="fil1"/></g></g></svg>